<mxfile host="65bd71144e">
    <diagram id="HIP3nbAZw_EuaXWnEj3U" name="Page-1">
        <mxGraphModel dx="1023" dy="639" grid="1" gridSize="10" guides="1" tooltips="1" connect="1" arrows="1" fold="1" page="1" pageScale="1" pageWidth="850" pageHeight="1100" math="0" shadow="0">
            <root>
                <mxCell id="0"/>
                <mxCell id="1" parent="0"/>
                <mxCell id="7" value="http://ics2o.mths.ca" style="swimlane;whiteSpace=wrap;html=1;" parent="1" vertex="1">
                    <mxGeometry x="40" y="40" width="780" height="480" as="geometry"/>
                </mxCell>
                <mxCell id="8" value="" style="shape=image;verticalLabelPosition=bottom;labelBackgroundColor=default;verticalAlign=top;aspect=fixed;imageAspect=0;image=data:image/png,iVBORw0KGgoAAAANSUhEUgAABLAAAAKjCAYAAAANs/bAAAAAAXNSR0IArs4c6QAAIABJREFUeF7svQ10XdV1Ljp1jn5tSZZly8KSQ8Fgu3EgCKidkGBDIYZ7Q2zTll4wNwPI5aYJSV6N8UvCbaDGJc1NSh3HGfkZfZQRYLQEXmkv2CGv4JAmNi2t3YAoxE0wOIRYMv6TZUm2JB/pnDfmPsytrXX23mut/b/3mWsMD1na62fOb66//e255qoBgBJwYgQsCCx8+mPT8Diw9geB4DNjWSecdc8yrbomB8bg15/4kVaZLGZG3BA/t8RYZdHyrFPcCMy+aTHMXrcY3vnyXji993Dc4nD7jAAjwAgwAowAI8AIMAKMQNUiUMMEVtXa3lFxJrCS1yeYwEqeTVii6kCACazqsDNryQgwAowAI8AIMAKMACOQfASYwEq+jSKXMGgCK9/eCL/1vY9o6xGU55d2wwkugDginnaJPbASbDgWLfUIiCQyz0+pNykrwAgwAowAI8AIMAKMACOQMgSYwEqZwaIQl8gmIkr8vKhhHbVtDdC9dYWy6EjEYOKjg5WQuRJYg+NwcMNuKBUmoThcUMabMzICjIAcgY71PTCjZ66Z8eDGF4z/03wlr4FzMAKMACPACDACjAAjwAgwAoyAHwSYwPKDXsbLkieWHwJL9OZSgcxPeyr1pzmPG4FFemGcHozXw4kRYATCQyCI+TE86bhmRoARYAQYAUaAEWAEGAFGIHsIMIGVPZvaaiQLAG4tRIGKKeC6FzKE2tMJ2k7temmvSsxoHMV0OkLIBFa19ALWMwkI0Nw29OzbpjilQhFGe48mQTyWgRFgBBgBRoARYAQYAUaAEcgcAkxgZc6k9grpeEIF4QGl0x5JHES7WTcnE1hZtzDrlzYErHMdx6FLm/VYXkaAEWAEGAFGgBFgBBiBNCHABFaarOVDVrxJS5ZmXb8Qck21cOL7rxtZTzxe/ukl2bVX1z0Tmld2V1R38qkDUByd8NWeFxnTWIYJrDRajWXOMgJ2c12h/xSM7OrLstqsGyPACDACjAAjwAgwAowAIxA5AkxgRQ55chsUyZGgPaLwWKHdkUIM1s6BkNX6BRNYajhxLkYgDgToxlWOQxcH+twmI8AIMAKMACPACDACjEDWEWACK+sW1tBPJEcoJhVWMTlcgKPbeqW1ucXNyrc1QMOitoo6MGYMxo7hJEegqacDaupytkQglZ4cHIfx/YMwsqufvUDkkHIORiAwBHBs4hit7WiCGZd0mPWeeGK/MSY5MQKMACPACDACjAAjwAgwAoyAdwSYwPKOXeZKunn3qMZ24Zu5oukWKjHG8Cion2Og0WjCrTAC2UNA9DbFiymsHwSypzFrxAgwAowAI8AIMAKMACPACISPABNY4WOcmhbQQwpy2CUqU761HuZvWg6ne4/ZemJ1b10BtW0N5g15bkcCB58+ABj3ipN3BJjA8o4dl2QEwkYAPbFyLfVmM3NuXwpNS9vh4IbdgB6SnBgBRoARYAQYAUaAEWAEGAFGQB8BJrD0MavKErLYLiqxmQg49gzy34WYwPKPIdfACESFAB6tRq8sjvcXFeLcDiPACDACjAAjwAgwAoxAFhFgAiuLVvWoU9hB3D2KxcVsEGACi7sFI5A+BHiOTZ/NWGJGgBFgBBgBRoARYAQYgeQgwARWcmwRuyT8chW7CZQFYAJLGSrOyAgkBgGeYxNjChaEEWAEGAFGgBFgBBgBRiCFCDCBlUKjhSWyn5crlSOEfLV88JZTIbI4gHTwuHONjEAQCPClF0GgyHUwAowAI8AIMAKMACPACFQLAkxgVYulFfRkAksBpIRlYQIrYQZhcRgBDQSYwNIAi7MyAowAI8AIMAKMACPACFQ9AkxgpawLUDB1EjvIgOgqBJZ4PTzJ4RacWBYAPmUmSJS4TGAlyhwsDCPgCQEcx3hzK86jnBgBRoARYAQYAUaAEWAEGAFGwB4BJrBS1jNiI7ByNZBva4AZPXOhY31PBWp9G3bDhM318PhShuUWbF0Bp3uPwdFtvSlDPNniMoGVbPuwdIyACgL48WBy6Awc2rzHzF4anYDi6IRKcc7DCDACjAAjwAgwAowAI8AIVAUCTGClzMxxEVhiu6qwHVj7A9WsnM8DAkxgeQCNizACCUQgzLk9geqySIwAI8AIMAKMACPACDACjIA2AkxgaUMWXwE8vpdvqZvmATWyqw9GdvXD+P5BmLTxgNKRVjxCiMG/KYntyurFgO2Yhp59G0qFIoz2HpUV4eceEDjrnmVGKewbTomDuHsAloswAhEjkGupg3kW79bxN07C+JsnA5nbI1aFm2MEGAFGgBFgBBgBRoARYARCQYAJrFBgDadSN2+bIEgKlZsEVTUjzyuO7aKKmL98YfcNf9JxaUaAEdBFYPZNi2H2usUQxNyu2zbnZwQYAUaAEWAEGAFGgBFgBJKIABNYSbSKg0xIUmBMlJNPHYC67pnQvLLbzBnES04QBBYGlcd04vHyTyawoulgbgQWeukV+k7ByacPcEydaMzBrTACvhFovGAONF0wp6Iemlt9N8AVMAKMACPACDACjEAgCCxevBhuvvlms67HHnsMXn+9/C7EiRFgBIJFgAmsYPEMtTYrGSTeBpgUAkuMecUEVqhdwqxcJRaW202R0UjJrTACjIAuAnhM2HpEmOMK6iLI+RkBRoARYAQYgXARWL16NWzfvt1sZM2aNbBjx45wG+XaGYEqRYAJrBQYnuIcWeNJiQQWxcA6sq0XisMFT1r58cDC2wUnhwtAsa/sZPYkFBdSQoAJLCWYOBMjkDoEGha1GTe5Umq99mzjv9YYhalTigVmBBgBRoARYAQyhEBnZycsX77c1Ojaa6+Fs88+G2677TYYGBjIkKasCiMQPwJMYMVvA6kERE5Yv7yLBBZV4sfLxg+BJbZrJ7NUUc7gGQEmsDxDxwUZgVQhwHNrqszFwjICjAAjwAhUIQLojYVeWd3d3dDf31+FCLDKjEB4CDCBFR62gdVs98JSU5eDXEs9tK1dCLOuX2i2FTWBhZ5Xp3uPlW9ALJZMOfglKzDzK1XEBJYSTJyJEUg9Avn2RkOHBVsuN3WZGByHvg27lXXDjxWYcL3gxAgwAowAI8AIMAL+EFi1ahU8/PDD8NCbT8FDb/4f+Our74ePvOeDsPz/vQmOnD4e2Xrbsb4HZvTMdVSG131/dubSyUCACaxk2MFVCjcyiG6qogqiJrCcYm8xgRVtx2ICK1q8uTVGIG4ErGN+cmBMa3PM83Pc1uP2GQFGgBFgBLKEAMXA2vbLx+Cbv/w+PPiBe+GqzuVw2XO3wpGxAYgqfqUYN1PEOCo5smRb1iV5CDCBlTybmBKpvGSIBBYV9jJBeTlCKBJYKjInGHJDtLQGnkfPDPKscMPYS99Ius1YPkagmhGgsY8xCDk2VjX3BNadEWAEGIF0IFAqTZ3aIInxqB0eufOTnEKs+KlTpSySVUhaMYGlghbnYQT8IcAElj/8Qi2tQgYxgRW8CZjACh5TrpERYATCQ4AJrPCw5ZoZAUaAEWAEgkeACazgMcUa2QMrHFy51mQhwARWsuzhWZogJiwvHlgksJ+ji56V5oKMACPACDACJgLil2enI94MGSPACDACSUWgr68Purq6KsSrqcFXFk6qCMi88uPat4v2JbsioeXVA0sljIYqbl7zxe2B5eTQYKePbtgBr5hwOUYgLASYwAoL2YjrZQIrYsC5OUaAEWAEEoYAE1gJMwiLwwgwAtoIMIGlDZltASawgsFRtRYmsFSR4nyMgH8EmMDyj2GialDxonKKk6JS1knZuL7kJAr8mIWRbVZIPI6BFbOhuHlGICIE6MMGz88RAc7NMAKMwDQEdDxjyGOUCCyrZw5Wyh5Y6p1LBfe41gWy73nbV09T6M01O4xg5xj0PI2JCCxR9qiCuPvxwLrvvvtg06ZNpugYhwy94TgxAklFgAmspFrGo1zdW1dAbVuDWZquXLdWN9p7FI5se8X8U3H4DJQKRaCydmVk4uAV7niVO7qlcooHgXxbAyzYugJq6vKQa6mrEGJycBygWNK6rSweTbhVRoARCAIBuk770OY9MDl0xqyS5+kg0OU6GAFGQIaACpFCdRzd1gune4/B2z8/AF1nzYfaOU3Go4njo8ZPJrBkaAPQ/l3lQp+4CSyRqHrxmkdSTWBd3tEDD1y8ocJIH33603Bs9ERoe++auhzkWuqhbe1CmHX9QnknAYDSyQKM3/2qmfeP/uiP4JOf/CS0t7dDY2OjEUg/aQRWPp+Hzs7OCv0GBgZgbIzfPZUMn6FMTGBlyJh2qqhsHpxuEvQCDXv3eEEt2DJON7DEtVkJVjuujRFgBHQREL1reZ7WRZDzMwKMgBcEVPagYr1IZMxrbAfy0EHPHCaw1NDXwTuuPaHTEVHUMM0eWE4WChtnL7cu4vjCcUZp8+bNgF5Y27dvh9WrVyeSwMK4eNh3xLRmzRrYsaM8R3CqHgSYwMq4rfEICSVk6Zt6Oio0PvHEfhjfPwjomYWeWDoLoFgZvxjF36FkBBY+x4RHSTkxAoxA9hFAT6y8xStz6Nm3eQ7IvtlZQ0YgdgS87CeJwPrkv91vyP/gB+41fs5cflaFPoX+ESj0nYpdz7gFoH2ddc/vJNP72xbD3IY2QI+34kgh8pf/J3qfgblnzbUVb/DMMHz+5W84woleTvW5evP5jw/v0YY+6r3vEcR5uKAtp2qBaiOwDh8+DHv27IElS5bA4sWLgQks1Z6SrXxMYGXLnq7ayGIk0VcCLxsOapgJrPg7lIzAIvuyreK3FUvACMSBAM8BcaDObTIC1YeAl/0kEVgiWmLMJHx+4vuvw4nHX68+YAWNdXBGQhDjNVGK+mimn3i7Yt+w6xOyzpC1vW+1EVjobYWkFcXtYgJL1uOz+ZwJrGza1VarXFMtzFo7dT668cI50HTBHDPvyacOQHF0AmavW+wZlaAXBpK50H8KRnZVuo56FjTDBcXFDHGzfqEk+9rZqq57JjSv6HZEhzeKGe44rFrmEcAgr9bE4znzJmcFGYFYEdAhVkjQ28+7HmbWluNfWdM3f/n9ir+NvnYcxl49XrV7Fox5lGusVdq3f2DOhfCBuRfAmu4r4NzmqX1eGgis1YbMXaad1y+52fg/E1gAXggsHF84zhY2dwNim6YjhExgxTqlJ6ZxJrASY4roBdG5sUJVuqAJLPIac7o5UVWuasonLmYU40wlDo5sIQzavtVkF9aVEYgbAfa8itsC3D4jUF0IeCGwgkQo63sWHW+mP16yDoj4sWKcBgKLvMboRj+Ki8YEljcCi+xPNycygRXkrMN1RYEAE1hRoJzQNtDbpq6rGWbfuAgaFrUFIiWdLUfSJIhEcbvwBj2M0xV3IqzCPtPuR09VAssuDsDE0VE4/dJRx+ajjh3gBwcuywgwAmUEKAYWx77iHsEIMAJRIhA3geW2ZxnZ1Z9az37ai2JcW9wnqyQisL71+uPwyon98MDFd0JbfUvktzvqyLxu3Tq4+eZ1QHG7zr/uIjh09DCc2vOOobJdXDR8n0F8nFJWSE28bXwexrdsa/D8Dpc0AkuM12m1YWdLB/R+4RkjZhsfIVQZ8dnOwwRWtu2rpB0GfaQAkEoFFDJlZYEQVSWswr5VRAFixyyqBJZdBezp5gd5LssIJBMB+kqf1Xk5maizVIwAIxA3geVmgTTHz/KybycCC4PjY/BziicVtQeWzqigOEdUpru7G/r7+6FUKhl/spO9Wk4SyOIaq+CcNALLzaOQbk5kAkvFstnPwwRW9m0s1RBZ/Jq6vJkPJxC/KasvSoTV/E3LId9aD0hkJS3h17hcy9QtLXNuXwpNS9uNrzSQwyE/PVl1KBUmQ70tJWlYsTzViUD31hVQ29aQyPEbpEXwa+aMnrlwaPMemBw6A5MDY0FWz3UxAowAI2CLwEsvvQSdnZ2w4t8/5YgQ3nx9ZNsrFc8XbF1R3q+EnDDma2l0wmzl4IbdgN7+SU4Y86pt7UJjj6fqeUX6EIGFN/2dKRaMmwhzNbnIPbB08G1paQH8RwlvoJucnGQCCwCCILAacnUwq74Fbpz3Efhv866Gu+66C3bv3g2Es46tgsirQmCNjY3BwMCA0S/wHwdxDwL59NXBBFb6bBa6xEF8McsqgUXgp8mjQfalLuu2Cn3AcAOpQyBN49cPuGnwGPWjH5dlBBiBZCLQ19cHXV1drkG2nTy+deI6Bal9kj3rSU8/sWuTEgMrCJuxB1YwBJZIbsZNBqkQWGL/iVvmIPoz16GPABNY+phVXQkVQisNC78fw9GmQQyIngbyhwksP5bnsllEgAmsLFqVdWIEGIG4EBCPepEcbkG2dUMWqOxF/eif5H2s7FicF73TcISQ9Nq+fTusXr3aVU08WohHDGVYpWHfLrNn0GMhKcdp3Qgs9CBP4qkXma34eTgIMIEVDq6ZqlVlokzywh+EMZjACgJFroMRSAYCTGAlww4sBSPACGQDASawwrWjjJTx0joTWF5QS0YZlfcyHUmZwNJBi/MmAQEmsJJghYTL4DZRih5JoipZ+NKBOjGBlfBOyuIxAgoIVMuROnG+UoCGszACoSBw6aom+Pwjcz3V/bOdo/DArcc8leVC8SLg5wihF8llnuY6db65ZoeRPQnBzb3GOcK9t6xslj4805FCtBsGqMdA9U4pze8lVj2PjA3AZc/d6qgn2VeF7GICS2eG4LxJQIAJrCRYIeEyMIHFBFbCuyiLxwgoIcAElhJMnIkRCAwBJrACgzJVFTGBFYy5ZCSUG0kjK8sEVjA2irIWJrCSd3FWlPbntqYQYAKLe4MUAS8EVhK+cNDirRtnwQ4Q9sCSdhPOwAgkFgEx8G2WNu5W0OmYSVK+pia2Q7BgoSLweP97zPqdvKiiDtRN3uKhKs6VmwhETWDJoHfbxz74gXvhqs7lFVXE7YGl4jkjCm3de1cTgWW3DrqRe7L+krTnYtB6/F3VA4t0cetPvGdImsVZHhkCTGDJEOLngBtNyNXYXmtMm0K6lp7gSkKgPbyGGa9jPt17DI5u6/VlSSawfMHHhRmBWBGgq8dJiDRcl64F2Lvzc9PSdphz+1IYfPoAnHzqgFYVnJkR8IvA7M68UcVX/rHTrOrVn47Bd+4cgFxTLdQ01Zp/n79pOeRb6/02qVz++EP7YHTfAEwOjgMUS8rlOKMaAnSlPeV+6aWXoLOzs+KIE750Uwri46KadOC6jyUC69j4IBRLRZjX2G5UGxeBhcQTJmPvrZgwwDUm696bCSx78JLwgV3RrMYYyufzsHfvXqPIsmXLjJ9IEDsRWMXhApQKkyDuc9wILNwv4L6hOHwGSoWiqnicjxGIDQEmsGKDPl0NOy2E1fJVkwmsdPVXlpYRqCYEgvQ2rSbcWNdgESDPq5u6flNRcdxekNVyfDhYi6rX5hTEXazBeithlAQWyuG0jyUCC+MJISkQdwwsv55XhDkTWOknsMiTkchUlSOETu9lKv2qWt7p1Gc2zplUBJjASqplPMrV1NMBNXU5j6Wdi+Vb6qBjfU9FhhNP7Ifx/YMw2ns006x988puaF7ZBadfOgoTR0eh+cpuyDXkASf7pCcxuCluGq1p6Nm3DduhDTkxAllEoK57JtR1NTuqJo6JNGGAxwZxLsI5CedinJM5MQJRIoBxrjCt3rbQ+PkXNoHXG86bBQ3nzzLFOrKtF9BTIKo0+8ZF0LCoDUZ+0gfF8UlI85iPCjOddtatWwf4T0wzl0954+Eza3DtqAmsXEsdzFvfY5wmwL5A6XOLb4KLZi+Cz7/8DRg8MxwbgYVzOSbcs6km2nvb7UWZwLJHkTywVq9ebWYYGxuDnTt3qsIeWT4nAgsD1WNfxT4rJiawIjMPNxQjAkxgxQh+GE1HHVeCdMhqTBnRRmn8iisSWKL7NH6VQffzJBz7DGNMcJ2MgOj9ISKSpiMFouw8frl/x40AeV79yd6LHEVJSowV2iOleczHbW+d9t28PqImsEhuihXopEdcHlgqHjKizG57byaw3AksqzdTf38/dHd363TtSPI6EVhWT0YmsCIxBTeSMASYwEqYQfyKEwaBhRtPWTqJZ6dHJ2TZpj1Hr6a6rpnm3048Xm4HXzZlaWR3HxT6TgHGtsk1TsXVoHJUl6we3ecksxd9ddsKKj8RWHjG3c5Gs9ctZgIrKLC5nkQi0HjBHGi6YA4Y47d7as4hYdP4MmudJ4tjExzzKuSep7IuhSxCRfW0Dkbd7oevnwHzz5tadwmbJ7cMOYoy+tpxGHvteNSiVrQn7hnC2ivErmhCBEgDgbW6+wo4t7nLRGz9kpuN/2/evNn4iccjw0zUJ3EvpppGdpX3wG57USawpqN5+3nXw8zaJhh8fLqX8qZNmyDpBBb1RZQVExNYqiOF82UVASawMmbZMAissF7unDyDVL5CkYusk75hyZzG7iJ6jdnhyx5YabQsy6yLgDjnpJnAonHMc51uL/CWX2Vd8laz91JxxSv5/CNzgY4NovTkeZWmvsjjx3u/0ymZBgLL6RZC0jPsYO5e9u0qY58JrOk99cVrHjED9OMTa1yppBNY4phjAktnFuK8WUSACawUWJXOw6vEWxIXQpUyMgi8xIpQOcNP8aSofWrHbcODX51GdvXDjEs6oLajCZxiftnJjOWwfJaSFefJ4YLtbYsY6wFjPlDcLoqzYMWBYmBxDJ14egfFZ4k6Lkw82sbXqhOBRfNFEPMlaodjDm0axpxDYx5j12HyMj/HZ4HktEw2UpWI8FbNH0U+WgfFtoLqx2K96Hn1od+bAW/Pew8Mz2gx1huMY/Wfg62p64u0DrZee7apptMaGoUts9pGEgksioGFcU3RK/f9bYthbsNUTCzRFn/9wT8NxTy07uvErqU9MO7VjBs1XRITWNPBIQJrzZo1xoMdO3YYP/EoYVIJrFWrVkFjYyN0fml6XDSMgSUmWd9QibFG/Yr3oqEMea40QASYwAoQzLCq0vlSKBJYcX0RVfla7SXQIMXRcHoRdbNBUmJwBNlPrDjLvKhUvvLFFZMiSEzSWFcaY6ulGWcn2YOaLynGShhzjs56kEYbRSWzLA6OKEdQfSNI/aL2KLxhYyvcsHEWPLr/XPjFYKsRNxHXnTQnnTU0zXrGJXsSCSzCQhYbkfKFNfbD3scygWVPYIkedUkmsEgDlXcq1f2GSl1ZmNvjmvO43WgQYAIrGpx9tYKLEKYFWy6HicFx6Nuwu6I+vCFwRs9cw9MGcmjWcgpr4cUz+21rF8KRba9Mu70OSRJMJLOb4vjltlSYNLNQEHEqS3VhBrxpBdtqveZswC+muZZ67dsWMf5TySVOVxqDmE/DuVhy/SLHBJavYRhKYRpH1J950xAKzGal9MKAcyjOpdY5BjPhy7jTHEuVdG9dAbU4zwrJOn/gTbBoU5xvdGMDOiFA7R7c+IKRJe3EQbiWdq4d18gFW1fA6L4BOP7QPmUxkog33qpWU5ev0AH3Ck5p8OkDyvHSCKvzW0fghoVvw/N/MwLP/80pGJ3MQ6GYK683xZIyhknMaF1D8631MH/Tcjjde8zWmzmJ8iddJiawKi0krvsqNqQ9sM6awgTWdGTJA4sJrI9JuxzvRaUQcYaYEWACK2YD6DTvdttU1F9i6cuV6EWlwuw76Wx3Ox7lJc8g1S9mOrhS3rDIPi+yhFGGCawwUPVXp9ifedPgD09Z6SDiwcUVd49vT5NZV+05vdRl2dvUbR1W/UqPaBJWv902BLcs+hU8ueUkuAVqV7NAcnNVQ9+IGn0msCoR97KP9TJfMYHFBJbdeFd5T+O9aNQzJbeniwATWLqIxZxfXJDEI3VhTzrisQtZMHUduIhAcjsiE8ULv3VyFzcNTi/ASSS/otok6diY85YRcDq+FPb4rXb8nY5q2m3onEjzuGzEBJb33hvXMbFXx39kCH1hQ9kzOQnJaV2w+4DUWleAu3v2wc92jsIDtx5LgviRyBDmEeBIFEhQI0kmsAgmlaN8shANKpDrHlvGOv20ywSWPYFFf01DEHeSVYV0Uv04oVJXXPsclXHEeRgBRIAJrJT1AyawFoP1quEwJlkmsPambFSkT1wmsOKxGRNY8eAed6tMYE1ZgAkseW9kAkuOkWoOJrCmkGICS7XX+MvnhHMabyFkAstfX+DS2UWACazs2jZSzVSOpzkJRCSUneeVE2HnVJfKlwUqK7arA1gYxJlO+17y6thI9UuOFzmquYzTERUO4h5Nr5Dh7HZMOxoJK1uRyRyXXEluNymXmSTRA0t17fzKslfgxOFJuOPi/iSbOlTZnEIlhNpoxipnAmvqKK6uaf169rMHlj3ib64p3z5oTUm9hVBl387HS3VHFufPAgJMYGXBignQQWWSZQIrXkPp2IgJrHBsxQRWOLiq1iojg5jAUkUy2fmYwNK3j0g0MIEFwASWfj8SSzCBxQSW/16kV4PM040JLHmfTONHer1ewrnTjgATWGm34Lvyi2f4/X65kcEibux0yBGxbnGidDvu4dSunb4y7y0/MpMOKnG7ZFhG/VzFS40JrGitIiNWopUm+61xPKls2TiK2IgqiP34rSegY/4cM2uSYl/J5Kd1AYkrTDd1/cYM4k5lq3Vd4PlZ1nucn2eFwCINdb1dVPZbInpe9u+lUvk2UOsNe+yBZd8vveDrfQT4K6nynqLbJ1Giau0b/qzBpZOEABNYSbKGD1k61vfAjJ65Zg3WK919VOtYNAgCqzhcgFJhEg5u2G1cx03XWVuvAJ8cOgOHNu8x5Wi95mxovfZs4/pzvAYdr0PHq75FfTHwJV0BToXp+nC6epzK+sGHFkJcZDDRFff4f9QNdUxaUtlQVeuLSly24hekaJHv3roCam3mDUOKXI0xd9D4zTXVQk1TLRSHz0CpUIxWUG7NFYGauhzkWuqB1gXKTGtK2PDNbJkBM5qbzGa+u+N/Q/vcWebvV51zY9gi+K5/VkcecjkAWsM+Nf9Vo04AQQcoAAAgAElEQVQ8OiiuoUPPvg1Dz71ttonrNhTLL85ZTrS/wr0I7klwf8FJDYE0EFhkX+zvOP+7JVWygPazNK5U0KJ+pbN/7+zshHw+D319fUYTTGA5X5JDNmACiwkslfHIeZKNABNYybZPYqULgsCiGwxJSZ0YWLJbY9wWKFlZHdDtbm6i8qobHZ32gsjLBFYQKAZbBxNYweLppzbxmCcfI/KDZrhl4w62fcc9t8Bn7r3FVBIJq6OHjoerdMC1f/flLpjdmTdrRc8rp5QUT7eAIVCujj03laEyM6aBwCJhg/R2UdlniWh6IVaQuOrq6jKrYgKLCSyVUcoeWCoocZ4kI8AEVpKtk2DZmld2Q/PKLjjxxH4Y3z9ofL2lL04ysQt9p6DQP2KWpfz4Eo8Jv/JSyrfUAX4dwy+92M74Gydh/M2TMPvGRdCwqK2iKSSNMCE5ZtbR1jAt74xLOqC2Y+qrOeXDlyHdRO1Qu3Y3GNZ1z4S6rmbHqqmsbtte8xPObvqyB5ZXdL2VYwLLG25eSzX1dAB679iNPfTQnLe+x5hvcH6jue70S0dh4ugojPYeDcUTC+VBuWiu86pbNZQjrHAex/l8ZFc/jOwqeyCEmeob6+Gyqy81m1h68SJ43yWLzN+/9D//Ak4ODIcpQmB1n9dTD20deVj1Z78FjbPycOrdtfOBW485tkFjgTKM/KQPiuOTZv6o17LAwFCsCPciuCehPUrW9VWExTVbtRFYtK+ifZYKhrSmWPetKuUwDxNYlUjJYmB5IQpV7RFUPny/QY9A3IvgnsQuoUc49h3aq+i0LSOwjm7rhcnhgu0eSacdzssIhIUAE1hhIVtl9eoQWDJyxG7DQ95MTleAE9x2C5O4mImeX1TWyxczsV07AsuLzFF0Hzd9ZTaKQr5qaoMJrGit7cWTImwbOQX4jxaZdLQWF1YY3wrjXFH6zv2Pwne//Gg6QBOk/Pwjc+HSVU3w1d6lMFSoAy8vdUkJlh+1Aey8xaOWIS3tVRuB5WUf6SdgNhNY2SSwVE6K4JFTneOmVqRkBJbbO1Va5h6WM9sIMIGVbftGpp0KgYWeV/iVfPS14zD22tQxi1nXL4RcY60p6+x1iyvklhFYSLiIqTg2ASefOgAigYUyoCxuCePeoFyqiTb/SFZRWSeZUabi6IRr1YX+MlZhJreNlmGjV4/DyG45VroyIkaYTjxeaTPdutKW3+gbayv7FXo2oKce9Y1qxCZKW+oQWI0XzIGmC6YCc598Wj5+dXWhMYHlohj7uvIlKX/UWOExQaf077tegb27ykHP05KWXtYASz/UYHgW1nXNhGf+ahhGR0qe5mNx7bbDIIv92doHq3UtU+3vaSKwqD/b7UFJX6fQECplnTBT2RM6ld24cSM0tzTD+iU3G1na1y0xs8r2sX7aVbW/NV8Y+0k7ObLggaVDYC1evBhuvrlsf0yPPfYYvP66+/6aCSwvPZjLJAkBJrCSZI0Uy6JCYDkt/DplnbyZxNsAEUr6OiFbzAh26xdo1cndrawTgeV266JskxRkF1H5UujkreZHjmr+eq3ar7x4Q/ixSbWV1SGwooiBhWPCz9fUarJf1Fi9Ov4jE16Mb5WGwOxu/eGGja1ww8ZZ8Oj+c+EXg63GF/yggpK7eU9nsY9W81qmas80EVikkxeZVfaxqph5yffmmh1GsfO2r/ZSPJIyYewnmcD6EaxevRq2b99uQrFmzRrYsaPcH5wS70Uj6fLcSIgIMIEVIrhprZrO7uucx3davK11iLFdKI4VxaOxwwtv8TuCZ7HfjYFF8aSoLJ3TxpsJMVnjOtH5cIxbg/FrMGYXfnV2StZ4FhjXA+N7iMkp9pYd+UUElhgDq/nKbsg1TAXNtYtF5RQHB7EI6mbDuAgs0jes+CFkoyCxCmosU+weWX1hYSNrt1qeu8XAqhjzNy0G/CJPm2+Kg6MzPzrhao37R/NVtdjAq55hE1h//tdfgFntLaZ4f/fQD83/nxk7Ay8+/zOvoieiHBFY3/zyBPTuLcdQCep2Tbu1jOKUkfIUNzMRYPgUgvTF/QfGi8H9CKfpCHghg+LG0IvMcRFYD1x8J7TVt8BVncsN2H58uHxr9yf/7f64YaxonwksuUkoziDFwHIrQR+9RAJrz549cPjwYbjttttgYGDAtgomsOS24BzJRoAJrGTbJxbpvHxVdFq8/d4G6OSVIMajUdlwyGJRWcGWtSsaxo3AEvP62eiE/bVclDWqDUeQHT3sWEVBysp1JR8BpxtXg/CS8zLXJh+xcCUMm8DCGFcY64rShQ0fCVehiGsnAguDtf9s52joravGoAxdkBAbCLtPhih66FWr7M1CF0KzAS8y+9nXaYo3LfuL1zwC8xrbK6pIoidWVPtJ2amLINZuPzZzK+vlPUUksKj+7u5u6O/vt22OCaywLMj1RoUAE1hRIZ2idug2QZ1jBbR4iwEFF2y5HCYGx6Fvw27jhq156y8ykci11Bs3gTklrCvfWg/zN5W/LGEafPqAEScIb+WoqcsbnllQLIHKhsNpYbANglgsGXWrykwLIuIwOXQGDm3eA6XCpOEthbER2ixxj/BmEcjh0NNPpK9Y0ksgR5VbI4vDZwL7Oq+vrbcSYt/wVot9KbQv9ecg6+W6kosAxhGpaaqFObcvhaal7cbYxjGuMz86accEltzuOOas6eDGF4w535gLA0i33nkD3HrnH5o13bH6f8HAsZPm73hsMMok6mtt+3TvMc9ePrSWfeT847DqvGMQFYGFazyu9ZRoHNHvXtauKO2h0haupbRX8WMjlbbSlkdlb5Y0nbzIHBeBNbehDXI1lfvoI2P2njd2WCMJhumy524N1RRMYMnhVSWwjHnz3XWQCKwtW7bA17/+dXj44Ydh1apV4EZg4TsIvovM6Jlr3PTulJJM9snR5BxZRoAJrCxbN0LdnGLKWL9Myr6KiOLixCl+JXC6HU9lwyGLn2UHl6rM1hhcoveW6oLkx1y8yPhBT70sf2lXxyprOcPw7GMCS95LxLk96LkOg7R/5t6pQO0Y4ypq0sqKgspaJketMgetZVd3vQNXdx+OjMASJRGDEwdtTy/YBFEmrpsxg5A9zDrC6s9JkzkuAisIHKKKn8UEltxaqu8L1nmTCKzNmzfDfffdZ8TDwr+5EljviiJ7x8nK/CxHnnOkDQEmsNJmsYTLa/eyoeqqSqrZBWRXDYjuBR6VWFCyet0medUFSdaG6nOnYPlO5e30J6IwjJd2VT04HyOQVQSYuJJbVifQvry2cg5rQHYq8537H4XvfvlR1SpCyye+ANutKV6O49H6+9ttQ3DLol/Bk1tOwpNbhkLTQ7firIwFJrDsLc8Elu6IiC6/ePww7GOHTGDJbav6vmBHYIm1M4Elx5tzpBcBJrDSa7tESs4EVqVZVBekoAzKBFZQSHI9jEA4CGTlpT0cdMq1MoH1gwp4mcAKs8f5q5sJLCawVMIy+OtlwZZmAitYPIOoTfV9gQmsINDmOtKMABNYabZeAmUXX8y8eDd5cVn1c8zEi4xiMHWr3uJGVnVB8mJOt6/0oheVWL/Osccgg8d70TPoMvyyETSi2a1PHL9+xkIYpEzWkI/b6/O7L3fB7M6pW2LDwpc8ofwcqVPBCnVBnTBgO8a9SmrKCqlLJKNTuIOk4h+WXGnywFI5Bqj7gTAsXFXqlZ1+EAmsmhpvsVlVZIkij0xfksHLO0bY8suO8qm0/8dL1sH6JTcbN1DSbZRO5SjUiazdJGKlggXnyT4CTGBl38aRasgE1lTcLqdjj0EahAksb2gygeUNt2osxQRWtFZXIWXClIgJrDDRda6bCax4cA+7VSawwkbYuX4ZocMEVny2EVuWEUkqkjKBpYIS58kKAkxgZcWSCdNDxatJ5Ty8bAHWUTvIL6JOX+rcAs+LX9p1ZKe8Tp5fbnWJONu9KMhw9uN14kXPqMp4OZITlWzcTjIQCILAipuUSQaSalLoYOW06b+7Zx+01hXUGhRy3XFxP5w4POmprE6hGza2wg0bZ1UUuanrNzrVGHndLlFBHBCPpHtgkdLWvUOavF1Eo9G8obLP0TZ4igowgRWfsVT3daVSyRCSPbDis1UQBFYY0rMHVhiocp1BIMAEVhAoch0mAhQDYNpV4A5Xnh9/aB+M7hsoX4deLBk3DloTurjKFmAd6E8+dQAGnz4AxeEzUCoUjStk8SpZbEc3dW9dAbVY/t1EstsRWNQuXR9O7bq1ifKhnGI6tHkPTA5N/d3tyvXi6ASURifgyLZXYLT3qFkVlTGuo383oS6ok1PKKoFFV8uT3tQn6XcvfUO3L3H+ZCJQU5eDXEs9tK1dCLOuX2gK6WUs4DXVeF31wQ27y/OdQso11UJNU605XykUSXUW0pfmSVes3r0CvGlpO2D+xuYcNM2cOv7y8Xm/gJl5bwTWl/7bIJw8Xgwdy499qgWu+3SL2U5LbQHwBA8SaNZkJdPqG+th1uypMpSv6e4LoKa1DqxzOj5bsOVyaG2YgC9d+WZqCCzrmob7A5yTKdHaHbpxAmiACawyiExgBdCZPFYh2z+P3/0qlE4WoK+vz2gBg35j6u+fPgd5bD7yYjJ9SaAkkjJMYEXeXbjBlCPABFbKDZg08e02K3TWWpRV/NIeRAB4FTzoi2iQ8WjsYmCJsojtusnq9OVZJUYD1SvzOFPxkqO6vLy0q9giaXn8xKNJmi4sjz8EnDaUUY2FansB1tFXPAIsejP58aLSmWP99bDppZ28xqweWVdcdxl86x/ur2j2qnNuhKOHjleQBfiilpYYWHZYptlDVqc/B9mPklYXE1jxWURG6IhHCEnStHpiyfRlAku/LyaR7NPXgktkEQEmsLJo1Rh1QgJATMXxSRj5SfkLjzXNvnERNCxqA3ohpI0OkjeYhp59G/ItdYDeC0EmkUjC3zFRu25tobyGB5WQWq892/gL1pVrqYN563uMfJif0okn9sP4/kFovrIbcg15wM25U7sTR0fh9EtTXlNUB9aL9bsl9PDAdkZ29cPIrinc0dsIvUpIT7IVyeFW59FtvTA5POXRoIJVkDaLqi6RwNLpG1HJyO1Eg4D48oxjCsfWkW29ULSMhbCkaV7ZDc0ru4DmjbDa0a1XZb7QrRPzo66os4q+OH/iPIo2wfwfvn4GfOj3ZpjNfnf9AIwM2ntR4RyIc6FTovlZfG6nd6HvFBT6RyqqEvOqzJc3nPsbaKqdMOua+e76sGP9ASiUauCNky1w4bIl8Kn/9XEzD/XJH3z/eRg9PQ7i+ovzV33TBPSs/hW89asaeOaZnBfTaJdR0VelUlw/cZ9ACddEXBvN39/dK6jUFXUeGr8kM3pBo2d1taWsEFhoO7QhzTlpsKOM0Pmzmo9DK0zNm6TTmjVr0qBehYwyfWkM0r4uCUrSeiTOdUmQDWXgPXBSLMFyiAgwgcV9InQEZIuKSGBZb8cLQzgnTyiVLw1OcazcgqmLOjjpa83nx51Y5r0lyqrjiUUyqmAVhu3CrlPHvmHLwvXHi0CavT/CRM7LfBG0PE5evSrtqK5HYl12ejt5ufq5FZfapTq+suwVGCrUwVd7l1aoR2vZj996Ajrmz7FVHz2z0EPLz5qigqs1T1jrQxo9ZHViuuninIb8WSGw/Mw5cdnJ61wXl7x+202jvjKZ/WISVPmw5vSg5ON6qg8BJrCqz+ahaoxu82LC2CbWGDL0HL2D8Au2U5q9rrKuIISXteuljROPv24WM/RdOxUzR6zvJMbhGp0AO6wob133TMMbQTXhixSlQv8pw/Oq8YI50HTB1EsN2gBls+alMk42EtunsqQv6lAcmwCM82XIvGJK5pHd7vZV1c1vPjecVeu22le1TFLyWW2UFJnSIIcXAovGPo3BNOgpk9GYNxprZdk8P6e5bvS14zD26vGKemgdoLkHf8f5E+ccEWecM+u6ZnqWBQvS/CxWojOPiGsXyk7zpKpw1N7V3e/A+GQeXnjH2Wvs1jtvgBktlZ4U2Nbp4dPwyDeeVG029Hx+1gWZfZM4TzOB9THHPpW0IP1ux4eZwAp9avDdgIwMiur4v44iMpnd6qJ1UNZeEO9St7z8O0Yz9913n6w5fs4IRIIAE1iRwFw9jeh8nXeKRaVThx9kg7jRz659MT6LTMYg9LX7OiLenuYkh13gebe81mcoO23svLzwy7AJ4rkOvlm8McpqoyDwrJY6vPRn3bGfBizFl7qgv8QSzjJvJjvPXPEFWOWm1yBfRFXnWLRzkO1Sv1HRl/JGSRa4zblBzrFBeLqFPQaZwGICK+w+5lS/jBxJIqHjB6s06iuT2Q0P1TVFZw/s1N6ba3YYj9IaH81Pv+KyyUSACaxk2iV1UmGcKoxXRbE/VM6Yz7ikA2o7moz4WBgni+JIhRVjhUClGCt0Hl4nFhTFHHEyEOpNZ9opFhXlpZhfYgwd0tcufpjYjhiLip4jdhijCp/TWfq6rmbDK0qW8MWG4pQ5ncOndsXYJig7xYYQY37JsJLJ5fc59UmMpaaa4pZZVU6dfFYb6ZSrprw09qzzli6BhXXQOBLHfpqwpNg9JDPNz1YiJAh9KFYgxfvDWFJWj1xx/NLcY10fcP3AdYQSxSh0micxH81XQcQckc2x1v5EcbtE7FRifjnh7RSzj/IbfXK4YMRtC6NP/vlffwFmtVfeiui2hqvMsScHhuFL//MvpN1MbMe6DkoLR5SBCSwmsCLqahXNyMiRLBBY27dvN/UegtPwp6W/cYQ7ifrKbETK2L1T0Vom619u87FsHXzwA/ca1V/Vudz4yQSWDG1+HhUCTGBFhXTG2/HylV52C2FYkIlfgIP4OkGyunknyDayKnI4LcBunlAqODp5UVHZJC78Mr2CvGVS1hY/TzcC1ltESRNdAisrnm6iV1FYY1/mraYyfv3cFBlFTCjreuD0ouLHI0kWEyrsPukWe8vPjEBxu3TrCFtfXXkwv2zd91JnmspwDKz4rCUjR8Ka26PUuFQqmc0dGRuAy567NZMEVtCez077HBE88ryivzOBFWXv5rbcEGACi/uHFgJ4e9O89RdNLRjbXjFuZjFu5svVAL50YFKZbPELfE1d3vgyDMUS4GJrTVSXloAumTFmyuDTB2DO7UuhaWm7mfPgxheM/wfRnlVvwgrbxLZFfak93ERgEvW3U2X+puWQb62veIQ64N/xOWIqu6lQrIAILPQey7VU1k/tkqxuNsGYOW0uMcCCsKeKHNQnUTdOjIAbAlYCC/vNgq0rYHTfABx/aJ9ZrDh8xvUWsSS+PKtYnfSlvOixOPTclNcizc8qdenkcSKw0PNqRs9cOLR5D0wOnTGO3jnNz6KNqH1xnqT5wjrHO5VV0QHlQzlpTXEqs2DL5eYj1AV1EpO4HtFzuzlOXH9xrsY5u2/DbpgYHDexojqMfl0sldfYdxOtRyp6yvLM6ZwNuZzezYaf2dYOF66cWuspOL1V32KxCMcPn5A1X/Ec+xStg2Hoqy0QgLnu66yhXtpJahk7AmtuQxvsuGIblAqT0243vu2222Dnzp2xqcIxsGKDXrvhvr7yDdvLlpVvPsff00ZgGetRrsb2ZnMCxGlu1wbMoQDt+XHPbhereF5j+V3pxWseMX4ygRUU8lyPXwSYwPKLYJWVl3kl2HkyeIVIxSNJp26KseL01TqI9qwElm5sFxVdnDZYOnGs7NqRnaVX8YagenXiwqjobJdHhSD1WjeXqz4EphFY7Y0Gma0bMyi1BNa7+pLVnWJRBd0rnAgsJ48Vu/lZduMqyawSP0tHP9ncTnVZZXaaY3VuPtX1ONO5OVFHfz95P//IXLh0VZNZxZ/sLX8QC2pOF71OourPMkx01lBZXWl6btcH8aWYXoituqxZswZ27CjH2okjMYEVB+re2iTPKyJU8Pe0EVgq7xxRecnJ9u0cA8tbP+VS4SHABFZ42GaqZtlxD3HDHtRmVARRNsla84svDE5l7V5uZMZTWVRkR1RUMCKZZcdMVBZCmU74XPbSrkJQ6thIJpMKzrI6+DkjIEPAjsCiMrIXYJUxIWs/rudxkW5u7eoQOoTbDRtb4YaNsypgJHLEbV1Qxd46x8rmSbs6VddQcS211uUUtN5tnhTbla2DqngEle/x/vdMqwptJvugotO26hqqU6eXvExgTaFGBBaSVUha4c1mmzZtMjN0d3dDf3+/F5h9lWECyxd8sRZmAssf/E7rgniEEFvBsYljNIyUtTEYBkZcZxkBJrC4JyghoLr5DvtlToccYQJLybTTMslezFTsq2MjmYRMYMkQ4udBIMAEVvkYc1SJCay9UqhVPM5U4isxgbUY8Bp52UcgqUF8ZmACiwksn11Iu3g1xMAiUJjA0u4e0wowgeUPPy4dPQJMYEWPeaZbVCE4wgBA3Ox7OVLn5oklemE4Ba23vpjJPLAIBztPLFlZN+8tWVk7/L1+8bZ7EQ2SwBJlVfFaC6N/cZ3ZRsDNg1HmgZVmZKL2wHJbH3SCx8/uzMN3X+4yoX9yy0l4csuQ+bsbWaD7McZtnvZie9nxQ7u1jNrRPUJolc9Pu1701C1Dnlg3df3GiAfp5RivW5sqZJ+uzF7yx7VH8iJrEGXcjhCSBxa1gzfKrV692vDuiNIDy8nr06q/1z1SEBh6raMaCCzqX+gpREcI8cY8uj3Pil3U/UpmN5WTE1F9xFXdt4e9B2cPLFmv4eeEABNY3BcCRSCuzRkTWFNmZAIr0C7NlVUBAkxgReOBxQQWgB8iiQks75MRE1jesfNTkgksP+j5K8sE1nT8mMBy7k9MYPkba1w6egSYwIoe86prUfVratDkl2zxFg3h9mVBNrlbvbfoS53qy4aXoyJuL9x0DFAmM+mvE3hexCwqDyw37zhR37iPilTdAM+QwipfRO3GTdogCHqulenv1p5I6KgQDeSB9bOdo/DArcfM5p3KvjpeJugubCjfkovJ6UKSII966fQnGYZ+n+vOk1F755F+6Il14vAk3HFxv5Ts84JJkPb10n7UY8+LjEGWcSOwqJ3NmzcbcbDYAytI5Ms3W7vdrh2Vd0+wWpVroyDudnX/+PAe+OS/3W8+StqeUGVdiFpm1fcFBDVMb0T2wApjtGSzTiawsmnXRGlF17Sf7j0GR7f1OspGC63d9eFeFBKvh6c66Opx+p2uaad2cdEXk9MVs1T24MYXjCKog0hgFUcnoDQ6YVZJ18PTH+w2GPSykWuqhZqmWqCr1g9u2G1ciR43gUUY4TXxdD08XoldHC6AzkIos6tx/XuxBFZ8xTKjvUfhyLZXoPWas6H12rPh+EP7YHTfQEXVZCtZm9X4HMcKXucspmrDTGVjSRgRqUpjIU1YRfUSTf0K5wlMdnM7EUknnzoAg08fqJjrxD6J5FXrnBzc/bcd8OpPx+A7dw6A0zzZMX+OUfyJF79j/LzqnBvN6pp6OmDe+vINeJho3liwdYVxrXkQ65Dby2PU8wzNk7SW4VqMa7K4DlrXJZrb6W+4juF6FmbCo6FDx4vw1f9+FGrfOxdm3HohDD37Ngw99zYUh89AqVD01XzcBBb1CVrT0jRveAHebk6d29AGO67YBvW5Omirb4EtW7bA17/+dXj44Ydh1apVoR0hzOfz0NnZWaFG/WfOg9yFlZdAWDOG+dLuBVeVMlkmsPr6+gwIam326y8cfRk+//I3TIiiJoNktlHZZ0Qt86zrFwKuDeL7kZ0uYY6FSx/7Q6ib02QcBxVTmO3KbMbPk4cAE1jJswlLFDICYrwD0fNKZXEhEe08g0QCSxY/y05d2dfyuAks6wuwapBgL2alL4QqNiGcvdxi5kW2LJVx+uoVdryDpGGo0s+cxn6asIqKwFIhC5w8oZz6htVDh/I43TRn53nlVK9KHJyk9dcg5bHrv+ILcFTx4EQPuyBvElTpk0Hi6lRXVGMwCl3c2nCbU6OOVdTV1QVEfFhlRm8d9NpxS2l8ec4ygUW2UlmzoyaDZGMuyTKrrINhjgUcnzhOz9u+mgksWUeq8udMYFV5B6hG9WffuAgaFrWZquPiZk0qi4sKgYVtYFvjb5yE8TdPmk3MW98DuZY6V+jH9w/CiSf2Q8N5s6Dh/Flw+qWjMHF01CyDnkbWhC+BlFSPEGI+TFb9SeaRXf0wsqvPwAm9EfDrvfXLd9gEFuqP3lcjP+mD4vgk4KIqSzICS7Qz1odtYFvVnuiljvoE4WGHWRawQu+bmrrctDGDv3gZ+9Q3ESusE+tOar+ieYLmj7DsS/NG85XdkGvIT5tjCHTCqrajCWZc0mHaAuc9uzF56aomI8/nH5lrHjGjQiLBcdnVl0J9Yz384e0fNbJ87vfvNX5a50mxH6MMKIvYN7LQ31V0sOsLaDu0ISVay2h+VqnXS57mthzcsa0djh2chP/4yRgMdc+D4QXzzHVQXI902uhY3wP5ljrDqwuTdc6jPqlTnyyvE1ZMYAG8D34LPllzbQWEt912GwwMVHpgyLCWPScC6/Dhw7Bnzx5YsmQJLF682Dhu5kZgYR+ZHC64niCQtR3HcyawyqgnhcCi9UdlPxuXzHERWMuXLze8I9ELs729Hebfu7xiyKRxDMYx7qulTSawqsXSrKcyAl5eYq1lxK8Tfo7UOZEybl5jqgSWiseIU0yZsAksWrzdzsOLBpURWHYdgLBS7hwZzZgUr4So4HW7RVRVBjePlaT2q6hemlXiWKnGRiR70C11+DvFSKJnIoH147eeADw+aI15hXnd5nYvc45qX0lrPqe1LKqXKyQtkbCkWyZV+pUq1nZjQfbCr1q3NZ8TVlGNRS8yB1lGxVs8yPbc6iICi24/xLhbmzZtkhJYKnulqHTQaUfWn9McA4twUNmvRzVfyWyjIivVEZfMcRFYFP+O9K+pqQxpIcOXn1cXAkxgVZe9WVsFBPBlSEyNF86BpgvK8VQwYbwWjAVy4vHXjd+tZYpjE8bzuliWbtkAACAASURBVO6Z0LyiG8SyCiKYWYiUaV7ZDXVdMwHPqWO8F/y7mPDv+FxGYFFZkt1OnsYLBH2fLutLyaqvarsqeo++dhzGXj1uZiV9wypb6DtleJqJ6aSgr0r7fvKQfaNul2TOEoGFfZPGIOkn9mcnW81eVzn2nfLajSNjLKxdCIX+cr+Stes2Bv30J6eyUb00OxENbvOGTF8isJDMGB0pwTN/NWzOsVR2ZdcS6JoxG9quX2jEDvzu/Y86VmvMzyu7wc+cI5M57c9xzse1zBxH766D2Ldx7gx7viICa9+/jMO+F8fgzfddACfntBvxyZxiRzXX5OAzLW3w5kQB/v70sKMJaCzYraVh2s1tzxBmu3HVnRQCC8mq5uZm2LhxIzCBVe4NWSewaG4f2V2er+JOKgRW3DKL7xp2mNG6QPucIHBdt26d4RF51113QUtLCzCBFQSq2a6DCaxs25e1CwgB0YtKZeF3uoVQRyTV+Fn4hVA1FpXK10TVmCPWBVlGnKno7cWLSqw3CE8KFfuq6KOaJ0jPAtU2rfmyRGBhn5R5QYr2VdlYOuEaxO2lXmzmpUzcBJYdzqreakRg3dT1G1N18QbDb/3D/XDFdZfBJ/7pQRgYr3xhcbtxVeXLsxfMs1wm7HmSCCzC8NH958IvBltdX7zPytfCz+efA8+OnYKbjx2SEljWDGHEdlGJuRlGu0npd0khsKy31jGBVR0EVlQx+1THmso+Iykyq5x+UF27VfHBfBQDiwksHdSqMy8TWBm3uzU+S5SqxtVuWDri1/q6rmazeorB4XaWHWNWYeyq5pVdxpd+nSTGwKKyTjGhcCHBWFH4nOLvOB1dpJc4NxuRvhQX5si2XuOGQTEFRWCJ+lIMHR3MKG8QBBbZl+LCWO0cxjl8lZhBXrBQLUNxf8KOjaQqj0o+imVjtTv+H0kNMXYPjl3s0xRfiWIzUVm32EiiLHh7G/YBSmLcMGt+cd4Q6xJj2eFzGgsqGOjmCZvAwnkO5zuK2SfOkxR3COXGOERoQ9kmmMbeNz7zjqHund85y1Qb4/Ph2LmstAAuK3bDz2efhIHGM9B77NdQKE5WwGO1FZXFL/OF/hEz3p8uptWcX4xFFXRMtVkdeTi/px4+9Hsz4MPXz4D6b7ZA7pX6ipiMVhucLpbg704Pw9B5LfCr33uPo3msfREzYT8Lg0iiuZ1iX9od/w+j3aT0yyQRWBhXC+NrUQwsPkLo7MmYlP7jJAetC25rd1LIINIhTQTWE73PwNyz5hrHa52SbO3W6UP33nsvLFu2zLiFtLGx0fCSxLRmzRqdajhvFSHABFbGjR32C4sTfHG1G7U5VTZnXmJgOXkzud3KJ/M6IWzEmxPdPEhknkFBEVhBeG+RfkEQWE5Y4d/DfNmI2xMqTePWKY6VQY60NwJdV2+dE4LoG0F6nfjxSPIy14VtXyfPTbd4Q7JNMJX9yrJXDJX/ZO9FFarfdP4HYd35H4Qvv7Qd9h6ZOvLmBSMu4x0BFe9eL7XfsLEVbtg4C3o21kHH7qnLF+zqemdyAt536C2DyHb7wBQ1keQ0t9t5jHrBKKllVPZIUciOHlj9/f3Q3T31MZEJrPQSWGkig9JIYLndBkj6yNZunXEtxsCisuyJpYNideVlAivj9g77hcUJPnyBpJf9LENMepKO1pdmL6QMek8d3LAbmpa2w5zblxpxXDCuDiV8DsUSHNz4gvGnaS/pxZLhfXW695hxWw6Ww/Lz1l9k3KzVt2E3TAyOm7FD7PoG5sP8g08fMGKfOBFY1K5Vf119kQigVCpMGh5eJLOfPoO4IX6HNu+ByaEztkSGav0i2WeUexdnsY4j214xPAP8JPQKgVwNLNhyuVGNFSM/9aqWjWu+sJMPsViwdYXZnzEeWtvahWZWwoowssbEEQks7MvYp6lvUFk3XNCWaFMx0RhUxdQtnzh/YF4a+2I5nBeMtj2k7q0roLatwZw3nOIHeajaKELzBnq1DD33NhSHzzjeWkrzFo5NHKM09qlt9Mqa0TPXFIXmur99rXxT4X+/4KihC+rUM+dsWP/+a6EpXwdNtfWw/pY/g5/u3FOhhh2Z6VVXLueMAPUrv/NWK9TCl2CJ2VBTcw6aZtbAZbXjML+m0rMOCSuzXwHA0ckJGN03AMcf2ucorDgGcCzmW+th/qbl5pwTpK2d5vaw2w1SBy91JYXAwgDuHR0d8MMf/tBUA2Pt4D+nWwjt1hYvGMRVJstB3NNEYNH6a7feU9+g/UZpdGJavNmo+w7eAoheUHgjYD6fh/O2r3YUIUgCC28eRM8rMSHpzIkRsEOACayM94skvZBmHGpDPb8eSeTdo/r1WMWDQ+UmQbKNGFNGVtZqU10CK6yv9aLMKhsdp75pS2A5ZA7y1pi4xm1c7dpB6iemm7hx9xJbLcjNmc7c5zT2/Xh+he3ZJ84bor5iv3LzOnGKGWSNgUX2XTZvIdxzydQRg8/9/r3w02derIDbzxygYzvOW0bA79zeBnXwNXhfBZwfnjsG8xunLhOhDHMOvuG4/urYRPdmTJ26Ka8fb0Qv7cVdJikEFuJAtxCKmDgRWH77cdzYM4H1unnRUpy2iCuelBedRU+oqAgsL7JymepGgAmsjNpf54UhoxCEqpbOgqR6hNAaiF1VeDuCRSSSVK7xlpEFTi/P1hdRGelGOtltClXLquAi01elDlFWPy/AQegb1UY6LgLLDl8ZmevWJ8l+MlI1Klx1+pxTXqc5R0WHuAgslWNT4tjXGb8yktHPuA3CZlyHHIEvrj0ozbS09QzgP0rPHJoJo5M18LWnF0wrqzIW3BpjAktqCu0McRNYfuYAv/1JG6yACzCBlR4C66rO5fDgB+41ewDGfqI4UAF3C6Xqoj5CqCQUZ2IELAgwgZXR7sAEVriGZQKrjC8TWPJ+xgSWHCMmsOQYMYH1sQqQmMCS95uk52ACaypmn6w/J92WdvIxgRWf1ZjAYgLLa+9jAssrclwuKgSYwIoK6YjbqTY39bDhVfWissoh8/4QZfbigUV12JEkYkBlFS8MVW8IajeJBJYdruLfZEG+rfrJ+lbSbrqRyavyPCxPLJ1x5OSBJXrouJH1sqNtKlgkPY/dC6J4ZNLP8UM3/Z08VugY4Pd+95PQ3jDTrGLtP35DmYRSCdIvvvCLxw+TbrtqlO8PvnwMzt87pqW66IG165kzMN5RMuu4qes3WvXJMgcxb3yhtR2+2NoONx87BM+Onapo0jpvReH5JdM5rOdBE1gyUiZIPdgDK0g0g60r6H4VrHTTa3P74D2vsR1evOaRiubj8sByCqbudpQwi3vgMPsD1x0MAkxgBYNj4mphAitYk+i8eFPLTGDZ2yAIjyQd69q1xwSWO4JMYOn0sHjzMoG11zQAE1jx9kWV1pnAKqPEBBaAF48zJrBURlk5jwyrsD5sqEvoPScTWN6xcyvJBFY4uHKtwSPABFbwmCaixjQTWGG9POsYRrbwq9TlRGDpbBr8EGcko1NQcyux4+cLsCpWbkSS00ZW5aimzBZinDCrp5uuB4ebp5tMDnzuNa6TSt1B5rFuDklm3fr9xB6xYiW2q9KfdWXNWn6neSNIjwKr9yXhJ7ZLHlii55WbHE4XR1htpDrnZM2uadEHjwWOtOfh29+bb3hbIWmlmj4FvSAGcScPrLs+vQB2X9hsVvWVZeVbQpPkgXVt40x4bO58U0b2wKo8+qvaF+LKF+Q8GZcO2K5sntTZi8aph13bWSGwxP3VfffdB5s2bYK4PLBErFX2ceyBlbTRUR3yMIGVMTs7XdVsXcy8fPWKEia68tzvVdyqMttdbUvXtKvWYZePrsVtveZsaL32bDPLwQ27YXJwXKnqWdcvhLa1Cyvyul3H60TK0GbFjdwUr/LNtdRBTV2+LG+xZGyIMFmvIMc+t2DrCqk+dvaksk5XnuOV5ni1uW3K1YDR3yWJNqPWfkXtnu49Bke39Zo1dKzvgRk9cx1rPLjxhYpnaB+0kywhZhOD49C3YTc09XTAvPUXVRQ5tHkPTA5NBSuelqFYUu43MllkzwkrzEcyy8qIz6116Ja1tltTl4Ncy1QfmHP7Umha2g40jqKeL7zoEnUZmjcQN8SPxq9d/8VxrTof0TqCPxdsudzsG2QjGgvF4QKUCpPw6O99DtqbmuFjj33VgIDmD7sXxFxTLdQ01YJoXxE7rCOI+TlqmwTRXm2uBDPyEzBezMP4ZC6IKgOto3lg0qjvs584BKfa8vDw1nlwTu84XLdtQLmdL8LPoRlq4f+ChVAHOZgJeSOAO/678+OdsGtJk1nXl646YPz/i8t/bfw8cbjcvt/k5QghWmNevhaubGiCb7d3miI4EVg0b+GYxDUO1zpaB0ujE1Acrbxt0a9ecZRXeQGOQy63NpnASppFKuWx61e5mhzMbWiD0Xf3dcPDw4D/4k5uH2KJwGpsbIT29na46667YOPGjXDbbbfBzp074fDhwzA5Gcy85gUHlfHLBJYXZLmMXwSYwPKLYMLKu8U58uNlkzA1AxVHZYL202AYk7vO1ycVjxXxS51TDJ2wvOOcbiF0+0Io+7pINgtyM+qnr6jIobLR8dMX01hWNy5bGnUMS2ansW9tT9fDzm4OcLLRj996Ajrmz4ELGz5iNOk2f4gx+5ww8TMGw8I5qnp/u20Ibln0K3i+rxOe7z8rqmaV21EJyK5S2SAUAIms90MrfBYWmgSWSAZRXwjaE8sLgXVWvhZ+Pv+cCvWcCCzKaBdHMow9gwruYeRJ43hVWavDwCroOmV7pKx5YInxpDZv3gzo0RR3UtnXrV69GvD4npi6u7uhv78/NhVUxm+W5qvYgOaGtRFgAksbsmQXYAJL3z74kqeaGha1uXr9oPeTmEZ29cPIrj7VJpTy2cmMXhDo2UMeWHXdM6GuqxlmXNIBtR1NMPKTPiiOT5reYBgMmxJtdNATY3z/IIy/cRLG3zwJs29cBKgzbXSoXWtZalcmuB02VAbbwLbEdGRbL6A3h11C77B563tkzYJVVjEzemJh26pJp6+I+qIcMqxQH9TLLiEOiIeY0F46HjSqulI+mcy69ankt2In9o0TT+w3+mi1J3zJxuQ2rkQCy67/4pyAc4Nqv6INrXVckY0Kfaeg0D8CZCM3AkvsVw3nzYKG82eZZUke0pN+1xmDWesjC2aehqu6DsMrA7PhlePq81ZYOJzTOwa1lulZ56igm0ynYBIehl/DOTATroNOqJ9xChpmjMBfDp2Al85MBYAXCawHbj0GZ8ZL8OouvSDxoizUn2kdlM2xeGxwdi43zfOK6mQCK9wjhOc2d8O5M7tNE/7z0ZdhvGi/Z6BMtM9x6oNue4awxlIY9WaZwBLXgY99bDW01bfAAxffaUKZFAILPfvzDvu6yeGCcQpg+fLlcM8991R0A/TEGhhQ92ANuh8xgRU0olxfUAgwgRUUkgmphwmscA0hCxIc55c70cNO5xZCp7KEZtI8oYKyspPnVxD16wSP99OeeCufn7rsyso2wUG3h/XFOY7C0CeMOlW8If3Ek3LqV24bWvFLrBuB5eT1KWKlsoEOA1+uU44AHhWkY4Py3N5z7IB34AfwTkUFIoGFGfAY4R0XB+OxoOoVeHzB+Y7KMYEVLoH1x0vWwfolN5v4X/bcrXBkzP2FP+lhNLyPlOklZWt3mj2wRIxKpalbSelZUgisoOwZRz0q6y97YMVhGW6TCayM9QEmsKYMijFVZtnEjwrT5Ccefz3M6l3rJn0L/acMj6/GC+ZA0wVzYGR3H6BnBMbFyTXWAsmIm3Njw//46yBi1XhhuSwlPwTWyacOeI7ncfJp72WdwCK98Tl6qTWvnPp668d4iDni7JYMnBXiZenI4dSul75o7RMkg2wTrCOrU17cAFmTF9mDkCNNddjZSpRfhcDSnSdnryvPG3aJNrIfvfEq+K1FC8wsj7/xr1JoR187DmOvHTfz0Xzl1p60Us4QCgJLd52G2X0TsPzpYagfrXxxDKrRge5a2LdiBvzHa7+GV14rx7myJhoDN2xsNf58dfdhODlUA3ffV47ViEnsVzqy0RpKZcT16Aut7cajL777067uaiewvvGLvzVg+eYvv68DvTQvel6t7l5p5lvTfQXg35Z+ZgW8c+KIa3naI0kbSXkG2dqdJQLLelRw8eLFsG7dOmACy38HpjlWZd333xrXwAioI8AEljpWqcjJBNaUmWSLtxeDhu3t4kUmr2VUYtlQ3X4ILDF4vI68YWywVL4o6chIecW+EVY7qrJ58WJyC/Cv2q6XfF5k9dJOtZVRIbCcMJF5m9qVIwLrW/9wP1xx3WVw1Tk3wtFDxytiX9ndYCjWF8QNpNVm76j0xaOCeLtg2OmNZY3w9/fMBdkXfqsn1lChDr7au9QUTVZWRQenceTmeUX1VjuBRZ4x521frQK1cp6rOpfDgx+4F7b98jGDHMP/49/ijhmkrEAEGWV74DD2VxGoJW2C4kkxgSWFSjmDjue1cqWckRHwgQATWD7AS2LRaiewrOfiw4jdkyUCyxpDh+JJOcWEcouB5bRJojg4eLNhqVA0X2J14ktQWbex5hQ/SyxD7Vpj6qiWtdblFIuKYo1RXjF2T9TzhVtsJCdZxLhKiJlsE6yjF3qLYUw4MXmRVafdas3rh8CieH9ucdlEXCkG1v033gIfXPzeCgKL7Dz07NvGnIDjW0wUdw/j+eEczkkfAQz0junR/efqF3YpgZ5X7911GubvL8DMwfBuxhprycEz69vhVFsODi2qNzxbrbHVRBHp5Wr2t56HQqkG3jjZYsQ2xL5EZamMW1xFJ9XFcYSB5TFd2zjD+PnhuWNwplgDewcaoL2+CO9tnbpJtloJrIcffti4VQ3JBEw6BBbGBMLYQG7poyuugb/b8ih85cG/hD9/8C+N/+PfmMCaQk22dmeNwML+hv2us7PTiCn1+uuvwy9/+UsTkLjjSQU6GUdcmdt+Fudm2emDiMXl5qoAASawMmbkaiewwvZ6yRKBZe36qhsdHQ8dJ4+koL1tVONY2bWrWtaKldOtbV48VpI+/SBmsr6ho0MQ3hA67VV7Xj8EFmHnxRPqnkvWwLJ5CysILKrTbQ7I4jiKuh/SrXx/sveiQJv+8PeH4PLHhwKt066ykfY8fPt78yseyeKyWfuVl5ttVQmsv4Lpl4fcsGAERidr4JlDM2F+44RBaFGqVgKrr68Purq6TBx0CCwVYkX0ssEb3PBvTGBVL4GF/Q37nVPivhH61M0NMAKRIcAEVmRQR9MQetBArgYWbLl8WoO4IRADdUcjUbitdG9dAbWo87sJdQwi4S01BzfsrqiqOHzG8BzIXMrVTLtdsW3tQiNWE34JPd17DOZvWg751nqjD2GyviiIBAfGvBrE2FUCVlTW2jcnBsehzwZnHXzRSyPXUi8tQu0aY6GtARZsXQGj+wbg+EP7pGWnZSiWjFv/0ENk3vqpF0SUISseI4gRJiTrcD5BvGb0zAW8TUeWqKxdvtLohOd4aLJ2+XklAn4ILLQ12pzWFNGuSGxRQk+qI9teAZo3WuoaoS6Xh+NHTkBxsmjOG9P6lSAuzjdYPkvjKK4+2VpX9l7B43RBJLxt8LptJ6B+tBhqzCuS1YnAQu/XUmHSWJutN6/ShxVjvno31dTlbW90NcoV3eN24ZqHax+l21vOh6V1s4w2S8US/O33zjYeYRB7TEhgYY1jkzWQrwGoz5XgO8OD8O2RQThRnIRxmwDTVLf1OC2tZa3XnG3cFoxjys5LMQibhl2HSGDVzmlSblLFRkxgKcAp7OvEEio4K7SSiCzY3/L5vOF9tXPnTkBvKzEdPnwYJifD8xxNBBAsBCNQJQgwgZVRQ4ueSFZPiizdwOLFO0DF5E5eNipls5DH6QZD0s2NwJJ52Vj7ZpQ4W73HgiBzvXhvpaVv+PFWC9rDLi2YJVFOPwSW6Akl2tU6jmlNoXnDCQu3viErm0R8q0UmjHeFca+iSk4EFrUveugE7Xkt7pHwyOD7oRwoHtPXni5fUPDFtQeNn0hgielrQwPwF0Put+FhGbt4cKq3H0ZlDy/tiARWTQ2+bgSXmMAKDsss1GS9hXDHjh2wZs2aLKjFOjACjIADAkxgZbxr2G3s0khgEVlA5Ij4YhbEBpZfvOWDQTxCqBKM2a1WP8fT4ia/5Gip55AdjVGvKZicNBas9hUJu6wepw0GwWTU4oXAEokkp+M8dgTWHffcAp+59xb48kvbYe+RA64g0PjNMhHspxeEdQxQR6bmgUnTy0innJ+8RA55qUNlDRc/eql8jJERWChrU74E182fuoW22gkssh8RC2ERWGI/4WNiXkYOl2EEGAFGIF0IMIGVLntpS8sEljpkKptf9dqymZMJrGBjQlEvYQIrm+Mlbq2YwIrbAt7bZwJLHzuVNZwJLH1c/ZRgAssPelyWEWAEGAFGwA4BJrC4XyQOAZXrWv14YLHnSOJMzgIpIODHW02h+mlZ7DywKEMWjrfo4uGW3+5igyDr91OXDoF1xXWXwbf+4X6zubeHt8HwmV644+J+OHG4Mm6IigeW01GvoC8H8INR0ssikYWxrL7au7RCVLxt8Lfbhoxn1nhXQZFfWfTAIhDd9hnkpf4xOAtWw1laXeQ/YAi+De7eh9YKs3qEkHQMi8DSMgpnZgQYAUaAEcgUAkxgZcqc2VCGCaxs2JG1CBYBJrCCxTOo2pjAAqAXfvEIIRNY/nsZE1jqGKp4YDGBpY5nEDmZwAoCRa6DEWAEGAFGwIoAE1jcH2JHQCUQu1OQYHpBUvmaGruiVSqAin39QJPGmG5+9I0iZpDVA4tkDSJQtx+9uaw+AioeWB3z58CP33oCfvrMi/C5378XbtjYCjdsnAUP3HoMfrZztKJRu8sQKNNN538Q1p3/QTMGlkr8LH2tqqsEeVOh1r8YbIVH959rAuDkgRUEQhSgPIi6dOoIOwaWiiwYsB3jXr1wUyv887pWI4A9BrJXSeyBVUZJDOJuxa6/vx8wVhUnRoARYAQYAUbACwJMYHlBjcv4QiDXVAs1TbVmHQu2rihf1e6SVAks6zXaVJ14JbYv4WMuTFfai2LY6R2zqGbz3VtXQK3Evn5kjdy+wtXUpdEJKI5O+FHBsSx6XYmpaWk7zLl9qTGGcCyFkfwQWEhaiKlUmITicCEMUSvqNDArlowr76s9yQgsxGpeZzs81/so/MuP/hXu/h+b4OqPz4SrP94M31k/AK/umnppp76IhDQmtDOOaxzflEQCq2/DbpiwsQPVUe32UdH/7p59kIMSNNdNwBtDLfDkgffAeDEP45M5EAms1rrpY8x6rFClLWseJLBKOYBTbXnzz/WjRagfLelWpZU/TgIrBwCtUAfvhRa4Dc6Gvde3wJ61zXDdthNwTq87gVUEgCEowH/CMDwMb0Mj5KAR8nAKJqAAzpjZHSGcdf1CaFu7EI4/tA9G9w2U57JiuLhrGUkh80svvQSdnZ22OQ8fPgyXXHKJQi2chRFgBBgBRoARqESACSzuFZEj4OW6dFUCS+cIQeSKB9CgkzdT1vUOALrAqhCP8tHNmIE1YKnI7RIGL+NIVUY/BJZdG1F6yfm9GVMVozTkkxFYiFV7w0z43u9+0oh3hXGvntxyEp7cMlShnspNryKBlQaM0iAjElNIZFF6vq8Tnu8/q4LAsnprYd4/2XuRZ/WQwBppz8O3vzffrOPD3x+Cyx+v7BueG7EpGCeB1QZ18DV4nyd1BqEAX4Sfm2UpfhbGw0KvLKfkNl/Jxq8nQbkQI8AIMAKMACOQcgSYwEq5AdMgfk1dDpp6OkxRm1d2QfNKPfdxkcAa3z9ofJUc+UkfFMcnATd6mDBAOybMn8VEBBbph8fJMDGBFZ21cy11MG99j9ngyK5+GNnVF4oA1K+xchpH2PdPPLEfGs6bBQ3nz4KGRW1SD0Zd4dJMYCFmk8MFOLqtV1ftzOWXvQB/9KcrobW+Bb50yQY4dOo1+Jd3HoR/fuo0/PP/OV2BBfVFce7BjDgXY7+8+ncuhasvvQQe/cfn4Be//nVFHTRfZQ7okBWaUTsJN5z7tuGFtWDmaSAC66quw8bvT/7qbDg9kQcisPCoISbrcUNdEfHY3FhLDp5Z324WlRFYbyyr9Bh1avec3nGoLVR6FfkhsHD9LxWKMNp7VKouHhPEROQS/j4Tag3PK6f0Vk8jTNSB7XFCkcBaBrNhOcyGZ+AdeAsqxxO1wQSW1FScgRFgBBgBRoARmIYAE1jcIUJHIIjg0yKBRTcJVptHEukrEgxMYIXejWNvwMnzi0iKIAVMM4EVJA5pr0tGYD3e/x6ozbXBktlbYe+RA0bsKllS6RtON72qeHHJ2q/m53jjIB4bJAJLxCKo2wedMJYRWDrk02c/cQjwlkMx6dRhJycep7c7xizm/Ssof4T4FJSJbvrdrX+hNxp6pdnFBxMJLNV+ygSWKlKcjxFgBBgBRoARKCPABBb3hFARwGNOGKcHYzr4SURgNV4wB5oumAMju/ug0HcKnAgsPNZFqdB/KjQPGT86eSlbrQQW9qOg0onHXy/3ybXOffLk0weMuFZiu1jWa8K6imMTcPIp9SvWrW2JMo++dhzGXjtueDPWdc00xlhQMbHcSAoag0a73TOV4HAav1SYcCZ8/WKlJFQVZBIJLML56u53DO3x1sAzxTzsfqcDfr3/IPzw8R87ojJ7XXkMWudWMXPjheX5WSSwqF2qowqgD0VFLwRWQ74Il3cegWPjjfDK8TZluZCsonSiuxb2rZwBRGDh/we6KuPvYcBzShgra9lTw0Blz35tHN7z6jj8J5btrjWeYR7xSGJUBBYe8bOm1cLvdkBhTKzxxpoKmTHY++jYGXjyqX9VxpcyMoGlDRkXYAQYAUaAEahyBJjAqvIOELb6QX1xd4qho3LDXZTxd8LGs1oJrKD6EdoHyRmZV6DTWmvdVwAAIABJREFU7ZZ+PN3Cjs2kMhZU+6cbgUV16Hh+OXlQWl/iyDb4M2ysVHFIez6RwKJxRJ4675vzPRgYPwWf+KcHjWPXdATbTm9xDFrHgngzpkhgBTl+024TP/J7IbAofpZ4g6FMDquXER4N/Pt75poEFv5fdlwQvavQy0pWVvRmiorAIv1VPK9kWKHMqp5fYl1MYMnQ5eeMACPACDACjMB0BJjA4h7hCQH0vsBYVpSObOs1bhmzxuzBZ35inlhfpijGiigsxtbC2EDWl2oxD5UNM1aRJxA1Cs2+cZER64j0rbYjhG79CHFBfFSTHwLLLraaar9CHWTxWTrW90C+pc6VSCA9xTEoxoNTxcMuXxAElnX81nY0wYxLOqCuq9nw2iKCg/QdevZtQ4zWa8vxZ/D3XEMemq+sjJWH8b8w3hKnSgTEsUDx0TAmEPa9T99cjsWzY33ZC/DhH+zQJrDs4gwSgYWx4HA8UIxCkpAJLPXeikcEMdnFryIC69hYA+A/MeFzTNYYWLW5EpzfOgwjhVo4eGqGsiDn7526de9UWw4OLaqXElgYNwsTElxOBBbWg/VhbC2MsWVtB8vKiDGZAjTHUqxAp/yfhbIHLsXCktXr9hwJLHFuV10XmMDygzyXZQQYAUaAEahGBJjAqkarB6CzeAOak8eKn6a8eLu4vSiFeVucHz1VyoreLtVGYLlhJHp/yPD0Q2DZ1R1kvxI97Nx0CXMMBkFgqXjouHkUOnnJOcVXktm9Gp7LxgJ5Xt3U9RsDjlfHf6RNYNnNy9Su01hgAku997nFsSICS7U2P7cQ2rVBRwidPLDImwoJHScCi+qleFKquujmk3kUBuF5RTLZeY2prgtMYOlalvMzAowAI8AIVDsCTGBVew9Q1D/f1gALtq6A073HjNu9MNZOTdNUDAz0coJiyTj64zWJgVfRJV834Usvpdq2BujeusL8HWMalUYnzN8Pbtht3J4VZMIXckqEVRD1E4HVt2E3TAyOG8cVMBHeXsi+IORKQh3ogZdrqa8QBfsr9lsxBU1gBdGv0BNpRs9cOLR5D0wOnTHta4cveuHNW3+RMf5wHOJ4xL5GY9A6BrC8tU+q2ov618GNL5hFSoVJw8sSY221rV0Ixx/aB6P7Box5wYozjWOsg+aNmro84O2NlMRLGOwIWScCC2VAWcSkErhZVf805bPaF+2BdqGE/QT7y+fe97pxg90Xl5dvBvz7f3vM+PmFX/wDFE6MwWuffdbAFLEVE86hOJdSv9IhsMSyacI1LlnxyB+mocLUeCFZ4iawMGZV/WjR8JyaqMPt4/REQdkx0HlNEWDm4KSRD/MT+YWeV2/1NMCptjyUppynA4dbJLDwdsH3QovZThtU4qsrxO+89adGEdT3+OEB+MMP3GHM4zifB0Fg4ZyJc+f8Tcsh31qvFJxeVwfOzwgwAowAI8AIpA0BJrDSZrGY5KWXSdlXTT8EVtAkjGqcoyAhteovw0qnXafbxJjAckbR7YZK1b7hpT+TN2IQ9rWrQxZvSCzjRQeqw25MkueX002g1jIyLyovHlhOuAY9f+jYL868bnMOzRt39+wDJEasnlco89p//IY0do84jnQIrCDjssWJcVLajpvA8oODzHvLT912ZcX1F48MBnFc0NrWh8b/0vz16KHjcNU5NxphE3DcBUFgUeU6nrlB48j1MQKMACPACDACSUOACaykWSRB8ti9+DoFY9Z5UVHd2AUFhdOxGi9Eg4wcCOslmgmsoHpDuR5VYsVPq2H1BVEmWTB1FY8zL3rKCCw34kwW5DtomaOec7zgqVrGLZi6WMfnH5kLl65qMv+sQ2A5HVu2k9PppV1nXVDVP635vAZTR32prK7udkcIr+56B67uPmzE2KJYWbr1ivmtRwf91hV0eSLOgq4X66Ojg0//lzvN6n/6zIvwud+/17jBFm/dlB15VrmwggmsMKzHdTIC6giofMhRr41zMgKMgF8EmMDyi2CGyzOBJTeuzsukvDbnHExg+UGvsiwTWP7xZALLP4ZeatCZc5jA8oJwOGWYwAoHV1mtTGDJEOLnjAAjIEOACSwZQvycEYgWASawosU7Va1ZX5TEK6Jlx4isinq9XjoqsNyO4YXpveVFP7cjV17q4zJ6CPg5jqfTkh/vLTsZaQzKgnzryCiLY2VXl+gJ5eeYp46safbA0vGEEjEhAuuOi/vhxOGpuGEYvB3ThQ1TMfuorNPc7tYnRQ8smVegju2yktcPgUUYpPkIYVx2DIPA+hT0GupY59r2hpnwvd/9JLAHVlyW5nYZgfAQYAIrPGy5ZkbACwJMYHlBrUrKMIEFZjwL0eRBHD/00o2YwPKCWnBlmMCawpIJrOD6lVtNTGBFg3PYrTCBFTbC9vUzgRUP7twqI5AlBJjAypI1WZcsIMAEVhasGIEOTkHc/bxcRSC2axNOZJC1kFPMr7hk50U0WuR1jmvJJPNDfgXlkSX2Z5nMKs+JzFXRLwoPLLfA8yr6xO0xqhuk306nGza2wg0bZ5mPyAPLzfNKFsfKDldxXSDvLRWcOY8+AuyBpY7Z+XvH4A++fEy9gEZOin1lvT1V9MCi6pyO/9NzlRhY1rz4fz/rgYaanJURCBSBLLwvECA8BgPtGlwZI6CNABNY2pBVTwG6Nh01xmvU8Up08WYfvC4ar42mlKar7OmKd5LZ7gV8tPcoHNn2CrStXQizrl8oDcgadu8gmdOId9jYhFE/EobWZO3fNXU5yLXUKze7YMvlynnFjHbtlkYnoDg6YWbNtzUA5GqMW+WsyarD6d5jcHRbrxlg2LNAAFAcLkCpMAkHN+yGycHxacdpxHpLhSIUh8/A4NMH4ORTB4Cuh1+wdQUYcgtJJ4i7qO/BjS9U1EfjV0Vf1AV1EhPKj3qElnI1BhZNS9thzu1LzWZw/sF5SCVRn/zoLU3w0VubINdcBzX1efjC8l/D4OFJCIvAEudJFVmzlGdG7STU1kz1jaFCnbZ6zXUTkIMSuJUNk8BCDzFMXmTXVjaCAmEQWDUdRajJAfzv/+dsQwN6icU5tq1xJnzzuv8B//5PvfDVT38TTo+Mwqnh08aNhEgOO3ltM4EVQWdISBONjY3Q3t5uSjMwMABjY9PX64SIGooYNBZwjYViyRgTflNXV5dyFYcPH4bJyamj9MoFAYA/HuugxXkZgfARYAIrfIxT24JbEPfUKuUiuIoHiexGoSziwjrZI6AbTyqoL3ZePGVEDYLwlJHdJGhtUyS+ZTGSdAgsEVeVceylT4c99p28XHVkdYpFRS/PYRFYOjJmMe8ti34FSC5Rsrv9T6b33T37jNsG3cqGSWB9ZdkrhoheZJfpFsfzMAislpdPQK6zaGJknXto/C6btxDuuWQNfOf+R+G7X36UCaw4jJ/QNlevXg3bt283pVuzZg3s2LEjodIGL5aMzPXSYqlUUi7W3d0N/f39yvmtGZnA8gQbF2IEQkOACazQoE1/xXYvguP7B+HEE/uh0D8Chb5T6VfSogEurpTQk6Gpp8P8HXVFnVF3xIATI9CwqA1m37ioAgjsN9h/xIQESBCJ2h3Z1Qcju6Y2Y81XdkOuIW94CcpS88puaF5Z+eUSCRBZEscC6dt6bdkrwVoHeiyhdw7NG1S3HwIL6zK+4L6bRH2t4xg9mhCvIBIRWKJ9kZzzmqxYoe3QhiJWKnXXNdTA+1c2QuHcuTBy3UVARzWxf6L+Iz/pg+L4JPzbC39rVGcN3k5zXW1HE8y4pMPoU9i3sBzi59avnG7zVJE5S3mu6joMC2aeNlV6dP+52uqpEFjYBrZFCX9Hzy2nZJVjpFALB0/NcMyLJBwmL7JrKxtigdpCCc7pHYf5+8/Ah56YIhWDaJIILMLoh1fsMqt1IrDEMSjOFzoeWDS3DT37ttGun7knCDyquY7FixfDkiVLYM+ePYCePU4JSStKy5Ytg3vvvdf8/f7774e9e/fCzp07q8ITSzYWvPSnuAgs2nfwGPRiNS7DCPhHgAks/xhmtgY3T4Y03+qlYjDxxSzr+qpgwnnUEHC6WU+ttPdcQVwsoOK95BTHyhoPhrRwiiflh8DS8YTS9ZJzQ18MWk95/XjWuV2UodMTZnfm4bsvd8EvBlsNAsLJRk//lzuNaq0Eliy+oVu/YgJLx0rueVUILLEG0fPLrQXqG8FJnMyamgcm4bOfOBSKcERgUeU3df3GbMeJwKIMYsxN+rsOgWUtg//3M/eEAlAVVXrffffBpk2bQOZFpUKw+PEMSiPkTmPBiy4q+FK9fnB2uzHZi9xchhFgBPwhwASWP/wyXRqPGWGava78ExN6X+DXeTGdfPrAtHg8aQcm11QLs9YurFBjZHdf5jzP0m6rpMmPsdJyjbUVYlnHURgyY2wpa0wsauPE46+bzdV1z4TmFd0w+tpxGHvteKWMNmNeHPtUFr246rpmGrHhcLy4EVhiuzoEljjniGOQ5ikVTA2Zu2eqZDXzGPq+OoUV6Wvi+/0pfMWKZThb8xfHJoz4YF4SEViv/jwP33movsK+tPm+dm85/goebaLEBJYXxIMvwwRWMJiGQWDthRPwDoxDw6dGoaa5ZF6QcMddTYbQOMfSnuGcxQvgv954lTG/jr56HP6/J34Mb+0/aMbQsTvyrHtxBBHfaSew0Ivp5ptvlhoeyaKkpSuvvBLwH6UtW7bA8PAwqMh6xRVXTCvrh1hJGi5u8jjtGfzoYCWwEP+vf/3r0upUbCRWQvs6cR+X9jEoBYszMAIJRYAJrIQaJkliWb0EnG4xC8L7I0k6i7JQzCAd748k68OyRY+AindTGFJZN1hO8bPEdlXi3zndKGTnVeQUm8lJX2sMLDF+loqslEc39padPOTNJCPd3Mo6yRzU5pcIrJ/tHIUHbq28ec3tizcTWGGMOv06mcDSx8yuRBgE1rfhAPwHTB1HfLz/PUbTFC/Mbo696fwPwrrzPwif+/174afPvMgElo2xxJhQTj2gpgZfVZKZMKYV6kEklOgRZCc7eW+RRtVCYIVxC6EVb4xvhVg6pb6+PsCg7376U5A3UyezR7NUjEA6EGACKx12ilVKJrDAvLWNCaxYu2KqG8dxhDf3HdnWa+qBcajwq2SYyRqjYeLoKJx+6agZw45iUqBMKBvFWLHGZiKZxRhJKgQWxcCiWFSqZBC+EFJsJox3hXGhvMTtorImofXSUUAMxGSNm0XPKBZVw3mzoOH8WWZMKB1bUbwwsQzhGwSB9flH5kJ9Qw1cuLIRRAKL7Etxu8T2UG+MjYUxskSsZAF38bkYK1AHmyzn9RJPSoXA0o2BZcW4Go4Q/sGXj0FtAeCc3mBvdhMJrEtXlT2vVm8re2nft/TnJtRE1odJYNH8gXEHJ4cLxs2yaUxZILCWL18OnZ2dZhwra8wrtIldkHaRwKIYWHgcMctJ3DPQ3kQlbqcTLla88UZHxNIphUFgoQ5pHoNZ7m+sW7YRYAIr2/YNRDsmsJjACqQjVXkldrFOgrgNUAdWJ48k8qC087yi4y0yLyq7I4SibDoEllg2CKycCGg3j7Mg2nWyURAEFnmDYBsigSX74u0Wf0dGYMXlUajT3+PK6+VGPxUCS/cWwmojsL649mAoJhcJLGqExp41FlYUBBa17yV+VigAeaw0CwSWF9VFAovq8OMZ5EWOqMs4eTEHsQ6q6BIGgYXt6h4BVpGV8zACjIA7AkxgcQ+RIqBCYBm3ghVLgC/CWUwY36KmqRaKw2cAvUo4MQK6COBRrXxrPczftBxO9x4zvppTv3KqC49+BZmw72IfpnT8oX0wum+gfKtfsQQiKYHjmWSuqctDrqXODBCu4oElyu5EYInzBm4I0WtrwdYVJlZBEEnoTVYqTFZAenDjCxV/w3yYP0wboZ6UJgbHoW/Dbm1z40v0yaOTcPc1h6EwXoKRwaIRl6xt7UIg+yKOiCe9KFC/MvQulqbd6kgCMIGlbQqzABFYQ4U68294C+C3fj4VT1Ks3Y3AwpsGP/e+16G2pggzaiv7r4qkE8UaOD1ZCy+802H8o4T1Yv1f7V3qWM35rcNww8KpgOVPHngPvDHUotJspHmCJrB2whH4ERyFUzABBShV6GJHYKFXYq6lHj698Wb49P99s3mEEMcf5GpgwZbLjXpozvNDQvkpG6lhHBojAgvjR7nFLsKb+ijhjX+XXHJJEsT3LENLSwvgv4cffhhWrVpl1oNH4DC5HYPTaRQ9w1566SXDK+m2227TKRpKXtw/4D6C1iNqJGwCi3BGPPL5vK8jhLiPw0RrqDGOHdbQUEDkShkBRsBAgAks7ghSBFQIrKgWIqmwnIERSDACTvGGnEQO28tF9Eiyi+/gdCNnkASW3QZWxCoIAssJZz8b6KBs5PUrLr5Enzg8CXdcXH75wSTG7BNjYKkEgWYCy/tEQgSWtQYks9xIIjcCq7WuAPg8iPR8Xyc833+WWZUXzy+86RKPJCYtBU1g7YB34AfwjqOadgQWZb7jnlvgM/feYhJY9Hdx7PkhofyUTYLtiMDavHmza/BznThHSdBLVQaKnyXmD8oTC+M9odcRHmNM0vFE8UY/P+uvCtYizkHgq7KGqsjGeRgBRsAbAkxgecOt6kqpvkyGvRBVHfCscKYQ0CWw7JSnIypBAuN0CYMOeU3yuB0lJA8sUXa3wKhh6KuCndOFFSplg8zjdOzR7fiSiDMTWEFaRF5XkASWXV1yCeQ5RBJK5djj1V3vwNXdh4EJrOn4upHI91yyBpbNWwhXnXMjHD103PRytc6TXsnrtBNYhCIdqUOSxRozSgyIjvllgbrlPb/6cohHNUWco0YkTQSW7PIWfueJuvdwe4xAGQEmsLgnKCHABJYSTJyJEXBFgAms140r55nAUh8oTGCpY5WUnExgxWOJqD2wSEsmsPzZmwksf/jJSjOBVb4pkpKOBxYTWLLexc8ZgXgQYAIrHtxT12pSCCzxaEzqgGSBGQEAEAOiBwGK+FXTS53i10TrF35VTyg7Dyyn4PFOMtpdS+9FH6cyTh5nQbWhipWf9ogksQsg7eSBRe25fTWWzbFBHZn0o3tcZekon+xGP9GbCX/XPUIYlufV/8/eu4DZUV3nguu8+nS3+qVH69VCASEJLCBqwJITRxKMuUC+2ImY2F94JIPBvlyS2BOhKBl8fR1jDNdjJpFl3Q8ncWyPbSYxkOt4kLE9MQQHJDmJJQdaNshGAskR6hZSq9+t7j59XvOtaq1zqvepqr3rearqrMXXn+iu/Vjr37uq9v5r7bVk2H388EbTIuSBRQXwSKQ+zpesbb+v14vAwnuC5oaYSOHxbz0CN7z3VyseWISB/j5qVA8sVWIlbkcIgw7ibhYsH2NtUdwtv+9NffuiR7BffXuBsyzwfFy8IP0aA26XEfALASaw/EI2Zu0ygRWzAWVz6ooAE1ibNBKPCSzn05AJLOfYOa3JBNbcEUImsObPICawnN1RTGDNx82OZ5AdxJnAco4zE1h2ZhqXZQSCQ4AJrOCwDl1Psi/tVgrLAirzufDQDTcrFCIE/CCwzMxT8ZghjySrAMOqXkVWsV1kzw2yAdsQg8c7GT7R84vasPJWI28IVXuN9HLSrxP7zOo0qgfW3etOwpVd4xVYrLyJVPHWe0LJvKioTZV4UrL+g/bAErFS8RqT2RDUda89r34C4/AFOKGsvv4Zi/MP5+E3d4/BN3ePg5kHFjXu1oPDi2PpyoZ6XLBRCCwKpk7wyYLWewWz2K/Yblw9sLwk7MyS1Xg1RtwOI8AIOEOACSxnuMWiFhNYsRhGNiKCCLT0dsPSHRth/PunYPy5U1CamIVyvuSLJZTuWd94oiUNyZY0lCbyUM4X4czDh6A4PltJDU0kFNbFv+P11t4l0L2jV6qjUV3sA/sKgsBCAopk+ugwDH2lNnubmMabymPdwmgO+nceqBzzlBpsUGC6bxDO7T1Sc2XFQ5sh1dFU+Tul5HbSh1WdsWdOwOi+6gbcTtpy2XtBhRD12h5Ze9lUCbLJIvzG6gG4tP1CpbhV1j9Zm3Rdn/1vMp+Gx19bL60aBwIL7Va1VwqIzwWiQGDd0ns3nDs7DPrnE8LCBNa3K7ODgosvW7YMUqlU5e+YSY/EyyDu+A7Ed2Hl+T+aAyiVtY8nKOJYOZ3GaM/LL79cqf6lL30J/uZv/gaGh4dhZqb6vnLavlk9sV+x3HXXXQdnz1Y9Kr3u36y9nj1bId2VhdO7DtrusnhxjIwq4pxBm2+++Wb42te+VlOE7LVzbBLXPLj2IcGPfXrRv8NpnWPbKK7ACDACthFgAss2ZPGpINuoWFkq24iyB1Z85glb4h8Cbu5BN1qJ/VplBbLrCaW/91WPHou2uPHAchM/y01dlfEQY2/ViwyKWwyssGXHiwOBpTKfw1ImCgTWvf/8JRjOXQCrOINO8IyjBxYSVug9ZCReEljiOtbME9nJuFjVMQta73U/YW/PyfvPKn6lzOOM8PDyqKZRpuaw4876MQJxQIAJrDiMokMb3GyemcByCDpXYwR0CLi5B90A2batB9q2rYSRp49D7vio5lmVas9UmsTMdySqBBYem0OhungED9vEtulIney5oW/Dbr+kL3q1kWTXdcHC29cpQ4Wby0QmCeghZ7euVSeIMX45Pre3T/NEo/hfeDyhHqIfX/T8Q4+xVFdWszl7eSdk13ZW5oaon5NNh982Bk1gtWUKsGrBlKlZeIQM5Ynjl1XKFEoJeGO8XRmKoI8Qkq4YoF5V1nZMQDpZrhS3U1e1D6Nyl/bNQDpfvfL+R8+7aa6mrt0jhHgf03MD58V7Vp6F1/9xBI79fyPwwCf/DHo3bwYrAgufCfhswGcEPivsSJwIrEceeQQOHz6sec8sWrSoBoZnn31W81q655577EBUU1Z81lGByRf7oZQrAj2X6TlJ7yU7neqz3lE99HY6dOgQ3HnnndrPo48+qv3ulzQ3N2veSNTv+vXr4YorrjDE1akOVrEsqc38wCTk+6uesfR3J++SoAksfCfifMF3pJGXPBNYTmcO12ME3CHABJY7/CJd283mWbYRZQ+sSE8NVj4gBNzcgwGpqByLysizgHRUJbCMvLdkdlr1K6srXnfj+WXVF26E9JsgJwt3u7aolhdjfonxs8R2wqQ76RY0gUVxjlQxxnKq8bOozaAJLOrXTtwwPGaIge2d1LWDnVj2I/eegbbhopsmLOvaJbCwMZFwpzm5un0HtDf1WhJY4nPSjmFxIrBkdnvlOWMWg9IsNqKT9aw+cyLZhQQcHpMMSsgjifr1Iiufk/eB2TvFybskaAKLYmCZ9csEVlCzmfthBOYjwARWA8+I5qsXQ8vVi2HyQL/h1xEraEQCC2OulKYLNVVGnjrWwAiz6YyANQJ0D1KpsX3G91E9ccQ4IZ3b10CmZwGg55Yo4r1P9zwu7PCZgNdJmq+Ze+aYiQqBNbnf+nm18E55jCKr/lU9v6zGBL82o55m4kZHr+cCjRGN7/SrQzDz06Ga9wI+81HCpPuS5hxsXDRSgeTI8EI4P5NVgojqnphog5MTbTV1kIDQywsDywFjbW1Zdg60uovtecrkikk4+HY3nM81w5GhLqmOUSCwtiwf1GKPUWZCO+SXFACLAlEisF793jUw9Isl0HXbGi3e0k+uelyz7DswN7/cboAbicDC4OcTExOwe/du5elDzy2sUJqZex9pz7qtte+yztvWaLEhRbFDYCFJhPLQQw/VtHPs2DF48skn4cUXX9R+/BTUo62tDXbt2gVEYN14442AP+j9hd5YJIgrCumuopeGVXPa8n1A70HtnfLqUE2zRgSW2ZqB3vtWa6T29nbNXpmQneK/+nq0NsM1D84XFQJLZq9ML77OCDAC6ggwgaWOFZfUIWAWO4CKiNnMGDxGgBEwR0D2lS8M2Jll5fMjgyHaa0Yk+enN5JUHlpiF0CwVdxjG1UwHP3H2ym7yhHqhfxkgwWRHZHVFAgnJGfQ20gd1t9MflcVjdvqjhWZtRIHAIt29iPllB8soEVh//sHz8O/PT8MPfvE0dK9YDP+S/RPN1PuhT/uXCaxqEHeVOWA3BpYeX/I2pX5kJwmonB0Cy8jzSrQriCyEej1Ez69vf/vbYHTE0Y6Hm1UmX7LXLBuvuE/Q42M2RuL7SGWuyMoQRkZ2y/Y4VjbIvJhlevF1RoARkCPABJYcIy5hgAB+kcisrH61bruxB5LZatYYOhdv58XPQDMCjYoAxVmg+0gfowgxQQKkOJGHwb1zm556CMUNEfsmnemep6NyGIuK4iuZkV9iW0YeWBgTBmN1kbRe1w3p7pbq75uWzWtGxA4vYrwvI+8xqkh1Om5dXYll4wRjimWD+qGeJDS+TtqsVx2K21XBXcC5Xnrp+5WRUFY6yuqKBBISTxjvCeM+uRHM7Hf6QmuliR8MLJv3O12oF4FFcaxUSDbSFbFE2dxd9bKYKqTgmydXa7HCMCYUesepeJ6pYBtmAoueV5feshguvWUJrD77FrRPT8B9B98FC3JZGPneXFbUn8CY9u8nvnJ9xWTZht8IG4q9Rc+cyf0Dlt6fKvgGVQZJFCRT7Ahm7Xv++ee1WFkYM0sWT8qIwKL4hriGxbUsxYI008NODCwjAkuM23X99dcDZsRTEacxv6wIrM2bN2vZ+ijWGB1rRKJLVUQCy+i9K4vpZuSBJRJYtNcQ3/tG/anqTuWIxDOy24zAEuNWGsUAYwLL7khweUbAPgJMYNnHjGsYIOBl7AAGmBFoVAToPvI6U5WfeKrc+24ILLveTEakuexLO9VxEpNDj60YT8pP3LltABkJZYWRrG5QBBISRUbBz4Pq3wwjJ8cB9TpTzC8Zzk7mcZgJLDHeHwb0Rwy2vbcJsoO45J4vm75wZeUPTggsqmwW18kJvkHVcUJgkW5iXCckYYyICCMCS3wfeendY0RgiV5jZrGojHC363FGbVgRWFSGsj3a8bwuEZJoAAAgAElEQVSiulaZi1XnjwqBRW2JXsx+fxyXZai0spEJLNUZwOUYAecIMIHlHLuGronn37u2r6lggN4ZkKxdnOGGrjCag/6dBxoaLzaeEVBBwIzAwuN0UCprWarCJlb3vri5kulu5IFFmzp65iTbmzQvKTPRjgF2ZWHVnq2VIugNNv7cKVi6Y6OWYVAUNwQWHqEkSXU0wYqHNkMik4KkLqujzG6+7gwBN+QIelO1pgqwqXsINi0drlFAH5zcmXZqtdBTqVCuzufP9m3QKtabwEICCr3FHn+tNqbcBy47BWs7J00xQxtaMwW4Z/1J+MXEAvjeqZWQK6UA44B5IQtGi5AoVVtCQsutfOGrK2DBaAnu2XkW3ARxFwmsx75xGn7t2AQ0DSXm6fzdMws0lT/1rUsqqjc6gYXZBdG7SkW2bt0Kn/vc5wDjHuEPeiqhdxZ6NmHWvcozGd+dF8Xs+ewlgYWB00UpFovzdPKTwEJSCgX1QBwQD8QF8REFvbBSqZTmzaaXnp7a+GB0HbMKt/Yu0d6xuOan9x+u9e1KvQkswsrIXiKw0Ot9qu+89l7H+aOtxSTCBJYMIb7OCLhHgAks9xg2ZAsyjwY9KKJLcEMCxkYzAgoImBFYClVDXcQLDyzVZ45RHCtaUJrFonJDYKkEng/14ERYOTcEFplN2eLCAgN5PtWbwEI8zDInkleRGWb6eGGqMb/c4P/g9tNuqmt1H9u3SstsiGSYlwTW5/76NGz9aS3Z983TcyEYsF+SRiewzLyojAbXzHsLyQj0WjIS1biKrieTpAE/CSy955Wq95boNWblkeWlJ1S9CSyVGFhEbqrE/KJhZwLL7zuI22cEAJjA4lngCgGV4MRMYLmCmCs3IAJxT4IgI5Kshlz2zLEKxC770q5yhFDMRqRSpwGnsK8mUzB1GTliFFzci0DsvhoXosZFAssO2WdGfnlpnhviiogjfRuTi1KAnlhuNqLiUb5vLFkBtzbPeVvpRU9giUePnWyA43CE0AsCizAWSRi3wfK9nLeytpyQUNSmk7oqxx7NdHazVqkXgWWHsJONFV8PHwJ25lX4tGeNVBFgAksVKS5niIBsM4mVmMDiycMI2EPAzaLQXk/1Kc0EVn1wj0uvTGAFM5JMYB2DkaeO2QKbCSx1uEQvKiaw5rBzQkIxgaU+75jAUscqiiWZwIriqNnXmQks+5hxDR0CMgLL70CLPBiMQBwRCJrACvPRRXFDqPLMMTsqIs4VJ88nO0cJ4jg3w2CTjMD6WO9RCCqGVRjwCLMOMi85N7qT95Tem0r0ohLbNwsArz/KR3XceELd993z8F++dx5+eL4Zzsyk4b0rLkBLqlxRhz2wANwQWOK4YjZDbM/qCCHVCbu3mtXRNtn9YkV+yY4ukteaVQB4P48QWr2P3Xz0EucGE1iyWRSt67I1IVrDjhTRGlMVbZnAUkGJy5giIHtwONkgMtyMQKMjwARWdQYwgdXod0Ot/UxgRWdOMIHFBJbZbGUCyxgZJrBqcWECKzrP/KA1le1DmcAKekSC6Y8JrGBwjn0vVil1yRvCTYDS2APIBjICBggETWSFcRDMUp6beUJZxcAS7TMK3i5+qaPg8bL4Wfq2VYPWhxHvKOgkElgUm+mJ45cBEiZmEobA6FHA1w8dX+hfBi8MLPejacs2f+3Jcdjy1Dj8wyeWwBub5BnEjBpzcu+TB5aZcl57YFE/Tp5XgQ/KxQ69JLBUbBA9c5142Kn041UZJLLsBmLXx/7CTISUaU+vk52jmqItbogksS1xfYO/yzxlrPYaMtwRC32WSKtg9bK2+Hr9EZAl9rHKal1/7VkDtwgwgeUWwUapn0xoaXPL+SKUJvI1Vvfs2QppTKt7UU7vOlj5f/w7XmcCK7qThVImO0mVHF2r6695XAisRCYJyfYmKE8XoDRdsAVsS283LN2xsVLn3N4jMN03CGYEFgZZN0uXLnZMCxxsi6Q4PgtnHj5U+b1r+xrovG0NUDptsQ2je0LUWWawSmpuWRuNdJ0JrOiN9sG3uwF/poppKJRw6emvpPNlaJ4owcbvX4De5y7Ad3cshF/01o/AmikmoHqAEOC7Z+YCu+PRRdq003Nj/PunYPy5U1CamIVyvmQLqCgRWDfffDN87Wtfq9h3zz33wPPPP2/LXrHwsmXLIJVKGWYiDDuBpSdX0K7Dhw/D2bNn4brrrpNiQkTVpk2btLJIfCEWL7/8ck1dFZwRQ6w/MzMDw8PDlTbMCCx876Jo78OL+wWqZPbep/cu7Rfw9yAILMpSicdNG0FofRGX9TutJ2ltVlm7jeYAStWnLM1JvM6OFPGb6UxgxW9MfbHI7s1vFESPCSxfhiaQRsMcIykQAOrUSVwILD9ijljFohKzepkNn9ERZ9X4WdSmF8ekOZOhvRuMCSx7eIWptMxLzitd1x6egfc/eh4O3tEBP7zT3CtPpT8vPLCQsJou1hJ3egKLdHFDQrmpq4JF2MuQl42Rd03YCSwvYjO5OX6oH1vy3nr22WcBPbZIZMe1jDygZZ5u+vdfEARWo3lexWUdSXPQzMNdzBCtn89297Bhf86xfgBMYPEsUEIg2Z6BpTt6IXd8FEaePm5aBx8sKPiSE4UJLCWoQ1moe0cvpNozgAt5luAQoPsIv8jjl3j0PIqiZNd1wcLb18Hk/gGY3N/viQk0J8XG8BkkElj5/guQH5is6RdxFQXnObYtE3yeoRi1IasrXjd6Xtpto5HKE4F1+kIr/GBgGfS0TkHPgmnt//FvolzZNa796e51JxsJplDaSmP0xni7Z55YSFah6I8Irjg+C+9+ehx+tq0Vjm6rzolL+2YgnZ9fVgaUHQKLnnV/2DcDH+mbhuHZFORKCTg8nIVZA8+zH/zrNpgevADf/q2vVNRwQ0K5qSvDwevr6OGzefPmmmbRCws9f1Rk/fr1cMUVV1SKokfXokWLQIXAwncRvpNwXVtE7406CXqiNTc3AwYb14sdogWPY6Lcd9992r960smJWWYEFr7HcY6jtyB6wpDo34fiO1RGYOnff8WJvObtbCbie9/OmpTmhltsnOBZzzpxILBob4k40jOWMKX799zePsMTQliO9rCFwWmYenlQWw/iupAluggwgRXdsQul5laeBExghXLIWKkIIKASGyICZgSioh4rmeeXG88no/hZgRjInWgZBjHTIIksvhLHvgrfpPls3wYYz2c8UUzMRmjVKGUhNMo6aFbPDoFFbfwfHYvgwY5FlSyEZm2/O/cXMHhmCN5z6e2VIm5IKDd1PRkMG42IMbCoqkomQSprlllPhcCiNpyMrw0zpUXF2ExUwQ6B5ZXnFfVtRmDRdbNYVEbvVBmBJQWIC7hCIA4EltVazc79K1sTugKaKweKABNYgcId/86YwIr/GLOFwSPABJY65riBK80UYOyZE5DpWQBtW3tg+tUhmHl1CNq29UBm5VzsGZSFd65Xb/hiSWxXH8fLSRu2O+UK8xDIpkqwZdm5yt9OTLTByYm2yu9blg9CNlms/H5Tz5y3HEt4EMB4WLlishLYHQPxozgJ9I6B2lFUjgpuemYCmqbLSmUJLTsbJKpzb7YbPpTthrem0jBRqHqq4JFGFAwsj/Ifr30AJs9NwP/4Xx6rDE7z1Yuh5erFld/H9s1/5liNYqMQWOh5ddddd8ENN9wAN954YwWS3bt3w+TkJCCxJYrZ8XAn42vnTmpvb4ddu3ZVqrz44ouAP3feeafmPfbHf/zHgGVEqSeBRTq//vrr8OSTT9bohnEhk83pyt9Hnjqm/T/OP1Ho/WsHMy7rHgGzMXLfcnAt0HwyWmdp8+qnQzB5oF/Zm0pcEwZnCffkNQJMYHmNaIO3xwRWg08ANt8XBJjA8gZWWfwOlV4ozoIb7y2VfriMcwTQOwu9tFjCj8DHD88laCAvOfo9TJo7ITjeB8vhN6E26yJ5fum9xszi/tDzyiq2i4hToxBYTry36kVgidkAH374YY1gwyODdPTPaL7Xk8AK0/3HujhDIA6xa63WWezZ52xexKUWE1hxGUkXdtCZdqvzw6rNM4GlihSXYwTUEUC3Z4qBJZ7/V2lFFldCpY04lEHstIyagtiJQcUEVvhnwtqOCUgnyxzzKvxDBT8fnfNIOjQ453FEv4dJdZUYK6TvpdAK74XlsAyy2o8oFKeL4nYhoUXPdjHGaNwJLIqBhZ5I+EMiHiGk2FAYuwjjW2EsIzF+1iOPPKJl7bOKn4UxmzB2UzUmo38xsPTxrDC+Fca5OnToEDz66KNw/fXXa5kFMf4X2kEixmbCAOqqQkSYnTqqbXO5aCIQRQJLjHGmj31VmsgD7lNJOI5VNOelV1ozgeUVkhFux8kiycxcJrAiPBFY9UggYJaBxUp5WWafSBjuo5J2vKmYwPJxIDxummNfeQyoj82F0fNKNFfFE+qXoQM+AmuUkdLH4hLjhDpZm0XJA4tAEuNYiQSWPr6T6M2kJ39UyZsg4uCIGQVRT8roZydul/JE4oKMgIBAFAkslezSPNCMACLABBbPAy07QyKTmsvCUiq7QkSFwMJz2V3b18C5vUccZ1VDlr61dwmc3nmgrtljXIHFlRkBAYGePVsh3ZUF3CiZCX5FTrY3SbHDhQCK1lap3FD3CXpZrdqzFab6zltmNCIQ8WiJKPh8McpGyASWdOqFpgATWKEZCqkiUSawHoOrKvZlIAkLICW1lwowgQVa/Cd9DKjvfe970N3dXcFw06a5rNboYZVKpeZ5LWHMq8997nMwPDysnLkwaALr7NmzmscVZlZEPUV7ydCBgQHlecMFGQEzBGh/dObhQ1Acn9WyModdSGfNQz6J1MR8acR1bNjHrN76MYFV7xGIWf8qBJYXXwidfJmMGdRsTgwR8PKLWRwyzzgdYop14ibzqZmnGxNYTkcl+HpMYAWPudMeo0xgfRF6nZoNTGDVQidm5aNYUEZeTRRPys4ABE1gITGFXmUsjEAQCERxfySLT0pZn4PAj/uIBgJMYEVjnALV0ouNrxGRRZtJLwksAoYfboFOEe4sAgh4cR9HwExDFb0gsGS22zl2KGuLr3uLAAdx9xbPIFrTE1gYgB/HEONhPXH8siC6t9UHrTfcEFedA0Nan3q7zQh3Ox82vFhf2QLDh8JEYBkRV0wG+QA4NxkrBPwgsPwKpk7PK3EAeE8XqynpizFMYPkCa7Qb9WLjywRWtOcAax99BLy4j6OKAhNYUR05b/RmAssbHINshQksACaw5mYcE1hB3nncV9wQYAIrbiPK9hghwAQWz4saBIzIJwoCLQsgTay5vg2zuk5SU5Oyorsps/U8kRmBOQQambgi++sRtJ49sup/B9697iRc2TVef0VYA08QCKsH1oPbT7u2736Yy6aFzw1xjSSmh280DyzX4HIDjEADIuCn96VX60r6uGg2PCqJMhpwaNlkAwSYwOJpwQQWzwFGIEYIeLXQiCok+g1hkDYwgRUk2sZ9MYFV/zHwUgMmsObQZALLy1nFbTEC8USACax4jitbZYwAE1g8M6QEFno3yVhzKxhl3ltOGHf2wOKJywjMR8DOJifO2NWLwNJjKgYJlgUojfN4RMW2epNfVyzcA+lkF7w2dG9UIPNFzzAHc//IvWegbbjoym7yvKJG2APLFZxcmRFoeATEkzFuTrfIwHSzvrL6yOenzjKb+Ho0EWACK5rj5qvW9JCh1KtIMFFaerOOzVKfYnkvCaxkSxoSLWlY/OEN0LJhkaYXplzlI4S+TgluPAII9OzZCumuLGjphhtYkMgrjOagf+eBuqEgElhiimgMUo0yns/UTUfueD4C9SawLu/8FKSTnfD6yE6PhyYJ6WQHlMt5KJYveNy2982FicBqmi5D03SpYuQ9O8/BglFnBNY4FKAEZXgQXpsHmrYhHM3B6Z0HoLV3CeCzgo8Qej+vuEVGIK4IiATW4N4+mOo7rz1XoFT21Gw76yt0fNAL1iUp50tQmpit/H5u7xGY7hv0VFduLN4IMIEV7/F1ZJ2TI0jk/WHUoZcElugiy14njoaYKzECjICPCJilaafn1Wc2HdF6D9Nm3Uc4ItF0vQksv0BCry707pqY7YNTE3v96sazdsN0T/zak+Ow5SlvYqohcTUKc8S1Xoy8EpjA8mw6cUOMQOwRMItN7OR0i5dgWXlcmSWs8LJ/biveCDCBFe/xdWQdHndBQZdOVcGvhqn2Wm8CfLBGmcBCD6/sui7ID0xCvj/8X69Vx4vLRQ+BRCYJLb3d2le13PHRigE4P3Ge4tcr/KrFoo4APp/0gosqL4QWlJP7+2Fy/0ClyXd/8nJo6kgDkiUoD/zl8pru6JnjhR7chhyBJc05wJ/3rDwLqxZMySuEoERTajlkU8thunACCiVrgiWVWAA9bf8ZpgsnYXD62yHQ3lqFoAistYdnpFi8Y/8UbNjvzZxQIbDo2Z57Ywxyb45pz3n8G62vxr9/StPZ6jnVtq0H2rathKmXB6EwOM3vBekocwFGINoI4Bpw4e3rILOyDTI9CyrGoCdWcaJKmnu1vjFbi1LHuE7FMh23rtb+JK6z6BlmZ48Z7RFi7f1AgAksP1DlNisIGMV3EOGx85UgaA8sM08KHmJGIGgEKA6d+OXKj5TJQdtWr/7EL4ReHUU2+yL6sd6jQMcH0eY7Vr5VY7os02u9sIprvzetfBtu6vGGuAwKo+6W7bC09TbNowo9q+IkQRFYXmQStIO7CoFFz3azYMx2vOP5vWBndLgsIxB9BOi5YWaJV+sbs7Uo9SuejDHyxGIPrOjPt3pbwARWvUcg5v3jA5UEvwzg10FRxp45AaXpAow8dUyKBj2g0bMBPaI6b1sDGBfLqwezqICm89YemH51CGZeHZLqxwXUEdDPDfVa1ZKlmQLg3GkUwXneuX0N5AcuAM7/5qsXQ8vViyvmj+2bu4+sJM7zmeaTynOEMBLnoJ26VjgTCaU9N35afW589lMz0NlRhhf65zy/vrTpxzXNmNWlZ12jzHe/7USvq42LRuCyjguwpn3S7+48aR89rzqb3gULMldqP2O5f4Nc8e1K24PT+7T/R4ILhX73pPOAGsF7I1dKwcG3uzXPOByjExNtcHKizRMNNj0zARjbyqujgTKlDsMIvA05+Cc4BzNQ6yGr39wxgSVDk697gQCuwzMrq546Xr33vNCN23COAK0JtfHVeWJRi3b2Sdp6ozltqIy2Fr1tjbYHw7WoKOK+TL/OorpMYDkfZ645hwATWDwTfEdANYOhysPV7AuDSl3fDeUObCFgdT5epSE6mqpSNo5lnKRMjrNHoR3vBL/ngxnOf/XKSli4LFWJfWX03JLFz/Jb90Zp/8qu8cpRzqjY3N7UC6vbd5iqSxkMr1r8Va1MVDMaYnKDz/ZtABojJLVeGKg9butk3LzIJGin3y/ACfgJmB/zZALLDppc1gsEOIu3FyiGtw2zrMd29klWcY1VLTfqT+a9pdo2l2MEmMDiOVBBgOIseH0u2UsCC78q4DlvUbw6283TITgEjM7Fy3rXx2fDeE+NmLWE4h2IcVJk2OH1OMd0CwOBlWzPwFKMB3gxdp4YjNkNgUVxJWic9fcCxh/E5zeLOgJhI7AwThXGqyLRB1ynOFaYpbAlfVmNkf2TX9YyDNJxwrgQWG2ZghaX7PxMVvtxI+9+ehxWHJ+FS/tykM57m5kLSaoFkIZ7YC7mC8rRba3ws22t8MrTfTB4/Lyp6vjcKk3k4dzePkh3t0Drdd2VWDZiank7zzg+QuhmtsS7LhNY8R5fiosqWkkxqfDvGBsLY2SJgrG0sL643nCCmBGBJYuf5aQfrtOYCDCB1Zjjbmi1Xxn9vCSweLgaGwE7C/i4IhVnLyo3YxaGuSE+67wksERs9PaqPmPd4Bu3umEjsDBTIGYMJNF7T1EmQbMxeH1kJxRK1cQOcSGwvJxz73/0PKgEbnfS5/3QB12Qgcfgqkr1g3d0wA/v7NCS4Vh9YLOKE8oElpPR4DoyBJjAkiEUz+t6b0+zEwxm3ltOELHj8eWkfa7T2AgwgdXY4z/P+noRWP07D0BhNAerdm/R9MGg7iyMgB4BnJsop3cd1P7Fl2+jCXr1rNqzFaaPDsPQV45CebogjXnVSBjZIbB69myFdFfW02cNztHi+CycefgQtPYu0TyizAis37160HQeqxKU8+xNJjSvL1GW7tiofUllqSKAXj0fveoYpBMlaE0XQwMNelfNRXWYk8s7H9L+RXJKRmAVSmMAUNbKohARhqQWtnt556dgMv8aoKdWFISOEHqhK8a82rxvEponSp57XpF+egLrZzABX4NT0HLH5dBy51omsLwYRG7DUwTQUziRSWnrCXxvMNHgKbyha4zWz/ihi0RGYNG+TDSG2jIyEj26pvqq3qZG63Rax2I5Iw+w0IHHCoUWASawQjs0wStWLwKLshDa2YAGjw73WE8EeG4AcOwA6xloZ4748awz8qQwI7CMsg+SdY4ILBNovPyaWs/738u+MQskZoMMu+i9qGQEFtliFPOK6uLxQv2xxDDb7yWB9WtPjvsesF1PYGG8KzxSqBqjkD2wwjwT462bH+/BeCMWTeuM4s3KCCyz7PBWsWtl3qaIHq9jozmHwqg1E1hhHJWY6mSWHp4JrJgOuAdm8QKrCiK/+L0jsDyYmpUmjIgzWRB3IwLL7vjaIexEe90mUPASvyDb+symI0F2V+kLySj0hkIPKQrEfm7qGeUsgaoElhGRxQSW/wQW4j4KeXgQXquMuZhwxmpDKG4mzcgvO/c8x8Cqy60eqU55fRXe4fLy/hXf93Y87lTWCuKHuvCiyprFCQEmsOI0miG3hQmskA9QCNXjBRYTWKrT0s7mTrVNlXJMYKmgFI4yTGDtDcdASLSImgcWE1iRmFaspIAAr6/COyWYwArv2LBm4UCACaxwjENDaCESWORuKqZrtfN1oCGAa0AjvXx5xwE+/TGTONjjhw1BE1hW/YXVA0vla6ofY0NtEoH08cMb/eympu16EVekiN4Dy67hdJTQTj2jAPBROkIo2vpC/zJ4YWC5HQhqyvodxF3sUPSiMiMLjJ7tMu8tlWcdv0NdTRdpZdUjotKG6liACaw6gi/p2otA++LeirpU2WOZ1TVSmz2wwjuP4qwZE1hxHt2Q2cYEVsgGJMTq8OJ7/uAwgSWfrCqbOnkr6iWYwFLHigms6hFCu6gxgQXABNY/zUtcovKs43eo3TvNXnkmsOzhxaXtIcAElj28uHTjIcAEVuONuSuLVQMMW3Vi9mVSrKPylUCso7KwcwUAV/YVgTgsCn0FiBs3RSDoe99LAssJQenE3np7YBkN3pVd43D3upOekBRmk6PeHlgqt+0VC/dUsgeqlFcpg55YYgys7pbtsLT1tprqRgHgVfrwo4x4hPCmlW/DTT1n4Ynjl8HPRzuUulx7eAbQ6+rgHR3wwzs7tP/Hv3kpj+1bpTVntFZhDywvkQ5PW16sgettjRk5on+n2I3JWG+b4ta/SEA7ed/bOd0ien3awZM9sOygxWW9QoAJLK+QbJB2MCU7pmYf3XcCxp454cjqztvWQNf2NTD0laMwfXS4kspXbMwJgUUpXjFgKktACCQTWirmcr4IpYm8o04TmSQk25ug45bV0HHraji39whM9w06aosrNSYCThZ4TpDCuQ7JBKzavUWrbvSssXuEsJEJrLUdE/CBNW/Bwbe7tR8vBTMOogSVdTCd7ASAhBawvVaSkE52QLmch2L5AiQTzdoPyeWdn4K5+t4JBo3HNrHtyfxr0D/5ZVjS/OuwuOVWTQfUhQTLhkVEAmvL8kHAn2+euATeGG9XUvPSvhl4794R6LtlARy5dYH2//g3USYXpbQ/tQ0Xa67NtiRgtiVp2t8Xvrqi5hlA70GRwOrZsxXSXVk4veugVodSzPMRQqXhrH+hi+uclg2LYPGHN7haA9fbmO4dvdDau6SiBr3D9OtnfM+t2rMVpvrOw+Devnqr3DD9J1vSkGhJa3MM59rpnQegOJoDGht6fhgBUp4uQGm6AMn2DCQyqcreip41RmsVWnvjngz3ZnaknC9BaWI20veCHXu5bLgQYAIrXOPRUNrIUrw7IbAaCsCQGOvFl7o4fNUMyXA0rBpBEVgqcUOYwArHNAza84q8qIy8mVQ9oYJC7tTEXsC4WGGUIIO4kxfVg9tP10BB3lt2MJo6fBYwvqdqJkEmsOygW7+yXqxz6qc99xwVBGSnEKy8qMkTys7xQ7PkWip40bNOpSyXYQS8RoAJLK8R5faUEWACSxmqUBfErz1Ld/RC7vgojDx93Jau+PUHvfrS3S3Qel03TO4fgMn9/bba4MKMACLABJZ8HoTxCKGo9aoFU9CWKWieNoUSLlFqJZ0sA3puTebTcPpCa00BvIZl8GhikNLT9p8hlVgASA6Jgn/H6/nSEEzmX4XOpndBZ/ZXglRvXl9hJrCmCin45snVpuOrAtqC0SKsOJ6Hd+yfgg37pypVftHbDIUMVI4T/sMn5jxR8IihKHYILPRGQK/hwuA0TL08CG3bVkLbth6NzMKNHon4nDIisLAe1s+u69K8m9FzgrwoVJ91HANLZZaolcFNfjKbgrYbe1ytc8TecM2E3jUsjAAhQPc+rqVxfoiiQmAtvH2d9uwgwWeQKOLaW7yO63IsYyVMYPG8rScCTGDVE/0G75sJrAafAADAXzV5DniFABNYciSjQGAh6YRxsT7btwHQE8dI8GggHgvEeEgYF0kUvEbHB+WoBFuivakXVrfvCLZTg97CTGCRumbjqwIexcASy+KxPzw2aORxJZa1Q2AhwYREk1myGmpbhcCismYklMqzjgkslVmiVsbJEW99y7TOEXsTyU01bbhUIyOgQmCp4CNbe6tkIWQCSwVpLuMXAkxg+YUstytFQCSw0P1VLyNPzf9d2iAXiBQC6CpNkh+4wJ5XkRq98HJO3J4AACAASURBVCmrsqnzQmuVI4SZngXQtrWn0t3kgX7I91+Av3plJSxcloI7Vr41TxUnGyQn9saBwMKA3tlUSYuJJBIcGxePwpLsjHYNy4RRmMBSHxU3BNai/oLmfWUmW54ar7mEMa8Oba/G2HrrmiycujqrpDARWHTvN1+zGFquXqy91/DeJ1l459x7j9Y7+DvVFTtiAksJet8K6dcopZmCZdxXjB+UbE4b6oJxjYziCzGB5dvQxbZheofr90vaM2dbj/ZMUd03aXNye23MK1qrWBFYGGcLYyDzuj220ywShjGBFYlhiqeSds5pxxOBxrbKyaa9sRFj660QcELoOEFUhcCqbFbvWA+4QaWNChNYcsRlHlj6uFYiwUF15b3UrwQTWOrYuyGwzHr5yL1nDAO2Y3n0zKLA7OpazpUUSSg7Wb2YwLKLdjDl7bxTVDxWRK2ZwApmHOPUi9GcdBND1sxj1Go+mz2v4oQz2xJ+BJjACv8YxVZDiu9ABmL2OVGKE/lQZkDBLC6p9trjLUZnzWM7gDYNQ8JSL+PfPwUUN8RmU7aKU788NrZgi1xhO5sNN8Z5SWDR3HRyLzixN0oeWBQDSzwiiMcLScQYWGEmsCgGFmYFbEnXHnt0Myed1I3yEcIPXHYKWtPVrIFGx0jNMMFMhGmTZLkYGwtjZDkRMwLLLJaN/n3oB4FF6yuM24Txm/j9Jx9VWtcRVri5R8GjUhTr06wVlZhBYpxQjoElHxMuMR8BmpO4X6L9EcbJw/s9PzA5z9tTBTuqS2VpTlrN5yDW7Sq6c5nGRoAJrMYe/1BZb7S5CivTb/Z1gjMnmk8pcXyDwsrJRj9UNwYro4RAUOPsJYHlRmcndaNEYNGgf/zwRqXxx0JhJrAoC6GyMT4XjDKBJcY4szNH/ILVjMAy87LR34t+EFhkp53nlV/YRKVdK6zM4ljZsY1jBtlBi8taIcAnGHh+NDoCTGA1+gyoo/34tau1dy4DEAouEGqkVNaytEz1nQ+VJxZ+tYBkbYasVbu31Jgwuu+EZewEJ0OACy0UDBobdunZsxXSXVk4vevgPFX1WZX8tIHmVVD9+WkLt22OgBNCxwmedjaEYkps8QihG53t1KV70PAZ6wQEl3WQgCB5Y6xNyzhHgp416UQJPnrVMS0boR1yIqwE1hUL9wBAAtD7KixSLF+ActnEFQkAXh/ZWXdVzY4Q4rxIQlkL5I9iZ474ZZQbAgtM1jkUZkHLVFcqV973du59O88rv7AJe7u0Fj3z8CEojs9WMj7SOkvTP5nQMkLKxGpNVs4XoTRhfs/J2ubrjADNSW09ffG5YReVefP6YmXap9C9cHrngXkZMqO057CLB5ePJgJMYEVz3GKhtSwLod7IqHy5MvJwsBNYUXVg7SxgVdv0qxwvoP1CltvVIxDUPWFnPoeFwHISn8XP2WUVx4r6JS8bO+REWAmsqxZ/1U84fWn7taF7fWnXTqOyGFg0j+zMETv92ynrisC62JG4zjGLE2rnWWfneWXH3jiVlQXLt2NrUJ7ldnTisvFBwM69b2a11T5Fdi/w/I7PXIq6JUxgRX0EY6C/yuYqKgSWynA0yvFDTuOtMhu4jFcIWC3sRCLJTZ92NoRmBBZtuN0sBu0sZFWesW4wcVK3I5OveNDo62M8IyQunEhYCKwoElZWeE/M9gEeOQxa/CCwKIj7Y/tWeWoOEViqAZWNjhCKdZnA8nSIKo2JgavFXui5bLTRj9Na1B90udV6ISAmjkBvQP3JAzvzuVH2KfUaK+7XPQJMYLnHkFtwiYDK5ipOi4ZGeTEwgeXyxuDqthBgAsscLpVnrC2wPSjMBJYHIAbUBBNYcqCZwJJjFJYSTGCFZSRYDy8RYALLSzS5rbAjwARW2EeoAfRT2VzFicCK+5B66e0Sd6zYvughwB5Y4Ruzm1a+DTf1nPVFMfKmUjlSh7GuMFh73CSsBFaYcZaFDtAT7mKAcKrrhQcWYWTHYzPMuKrq5iZhhRvPWFX9olbOzrpOFvBe9AyKGhZh09fMc9PKA8vsyLOZbXxPhG3UWR8msHgO1B0BJrDqPgSeKmBnoeNpx9wYIxAAAkxgBQCyzS6YwLIJmM3iTGDZBAwAmMCyj5mXNZjA8hJNADvrOiawvMVe1hoTWDKE+HocEWACK46jGlGbVBYcskVhGE2XufWGUWcnOqnG/nDSNtdhBMKCABNYYRkJgCu7xgHjXtVbVrfvgPam3nqr4Xv/56aegcHpfb73I3bwQv8yeGFguWm/+qQAVEgWP8svI1S9xY08sKiuuGYgXcXYTHa8IuLugWUnKRDhGcX1pF/z1qxd2brOal7JjmqK8zpo26Len6rnphHOMpJRxMbOsybquLL+0UCACaxojFNDaBkbAktIt9xxy2rouLWaJl5MT+tkcPHlg6IP0OikHU/qXLS3ZcMiWPzhDUDpeD1pmxthBEKGgB0Cq/O2NdC1fQ1Mff2nUPjZefhv310FHd0p+GzfBs0qN4tClQ1psj0DiUwKVu3ZqpQCPmRQm6qTSAC0p/OwtnMSPnDZqbqr7YTAKk7koDiZq9G9aYWzAPZBgDA0/X04P/OPUCxfgHI5H0SXWh8H3+7WfqaKaSiUcNk6XzBjpShvjLXBN09W37tBKTvdNwjn9h6B8nQBStMF026tCCx6bnQu6oCmbAZGZ6egVC5XnheU0v70roMApfK8dPdmHao8L4LCyIt+EpkkJNubKk0t3bERWnq7a5q2WiOJa5VUVxYgmQjHusoLkNy0IVnXEVY0F+ldpq1NL85JVQILj7pVRHE+uzEtLnXNCKzuHb3Q2rukxkzteXFx36BKYNH9M2+M4gIg2xFpBJjAivTwxUv5uBBYZi8VL0crTItRslf1y7OXOHBbjEDQCNghsEi3P/36Erj+5haNuBrPZyoq+01gOfFKCBpPJ/2ZBYB30pYXdZwQWG898hy89ehzNd2/O/cXXqjkaxuYkRCPFQYtbjJUBq2rzLvHisAiXR//1iNww3t/Fe795y/BcO5CDeGNbYixbMzsDNOawYuxUCVH7DxjnTzbvbAljG3I1nVi6A+9d6CY0MCOfarz2U6bcS1rd69hFXfPDCM7909ccWa7wokAE1jhHJeG1EqFwJrc3w+T+wek+CCZgl/o8ItccTQHueOj0jpeFMBFVTKbgrYbeyrNob6ot5eCG1OUtx897GWzttvS24sYjzx93HYbXIERiBICTjY5jUpgre2YgHSyDHicy0zaMgVYtWAKzs9ktR+Z4LHB1nQxFJ5XTanlkE0th+6W34KW9GUV1Ue+O98jaOF7N0BppgBjLxyDRHcJUr0FOP/0K9qPKGv/4PdNIcgsa4e2d14C08cHYebYoPb/+DcroX5luNJ11FUm9SKwfjCwDE5faK1Rz2p+LWnOAf5gvcl8WmaaZ9fNCCx8Z6KQVza+w9FTcumOXigMTsPUy4OQH5iEfP8FIALrv7+8B8ZnJ+B7N+yfp18jEli0rsuu64KFt68zHS9cA9pdI6HnSqo9U/d1lWeT0EVD4pykpnCdh2tqNwQWeimW8yWge0GvZmkiD+f29gW6bncBU12ryggs3P/g/UJCz5zx75/S5jnOd5kwgSVDiK/XCwEmsOqFPPdbg4AKgaUKGz50ZV+QVNuyU87OgtJOu2Et22j2hnUcWK/gEGACSx1rPNqF3lIfP7zRtBLFsZLFOaIGjOIdqWvkbcnulu2wtPW2mkb/Jfsn8/6GXlWzZ8bhx5d+GjI3z0Lr1ydMFRlbudj0GpJL7/jWh4C8t/D/ZYQT9atquYoHWL0ILDMbrOYXBfgP2nvLjMBSiRlEdYnAen1kJxRKo3DHyrfmQWDn/RsXDyzVo0+88Va9463LiZ5uSLgiOeiGwKLseFZrfvbol4+fjMCyGiN563Ml+D5SRYrLBY0AE1hBI879mS/O71ivXVt459y/TgQXfiTJljRgLAn8kunUAyo/MFe3+erF0HJ17cZi5Km5/jDoKumOcS/GnjlRo/7kgX5NlzgI2Yu2aF/4DeyNg51sAyMgIsAElvqc2LJ8ELLJomUAbvSO2bhoxLRRCt6NRATKTT1znhVhECKw0JNq+thgRaVz08/MU+/6z/wl5MfH4Cef/a+QurwEmduqsa/yz2Sh+Gb1K3lu95yH0SWfuEVq4pI7roWWdd0w8PmXAGNqkVzyZ3N1kehyI6n2LKx84IaaJupFYB0Z6pJ66eVKKS1eFkmcCKw/+OMWzSxadzCBZT67xY23fs1C6zo390ac6+qxyvQsgLZtPTD96hDM/HSoYjaurXGNTWtuozlJ5JdYd2zfCS0+nL4fbFi/9g+awNL2C9vXQJTmBukszkXaa9BaRb8vEnE2m8e4pscxonGN83xn26KJABNY0Ry3WGvtxhNLzNLjFii7WYGs+qMvV251CkP9uHzNDQOWrEO0EGACy5/xIqJBbJ28a8LkeUU6EoH1s9/+v0F/bLBzoLrRw7JXLf6q5kGDnjSiTH2wHfLPV4NR03UjTyjsA/tCcotIKiyPnl3oaSXWRU8wDAr/zl98UnnQ9N5jZnXrRWCZeVHp5wbGmKMkCWh0nAgsuheM4g3JBjgu72ynHlj6dWXQ5IhsbMJ23WgNTl6BYlxFkSjUk6qyDIai3fUco3qc2PB63Cl7qegl52RfRF5yXuvI7TECXiHABJZXSAbcDp3/9yO+kmgKvrCKE3kY3Otv0FaK62R0Lp50ksXAorgH2IbqGW+joaNz+OnuFmi9rhsyK9sAv0SRIBaICZ0pt9KZ6lDsAL+nCsWiwq9mbdtWVrrDuAJolxuhMcIz9CiEt5s2uS4jECUEmMDyZ7QoVhG1jtkFMdYVxTfCo4ZhE4qBNXn4FMyem6yoh8cEtefjB+fiU236zv+A/PAY9N39Z5C6tgDZB6YBPa/y/28TFPrSUB6semBRI2EmsKYLJ6FQGoP+yS9rGQmDErM4VjQ3kODCLIVvjFfjgkWJwMLMbri2y17eCdm1nfDI7XfDr6x/B1AMrM3dc8Topza8pv3baB5YuP6gGFiyOSeuTWjNgvWCjIsq07Oe1ynml6iD0XrWCYFF85liusls1fcb9BjRvKI1fxB7KxkeqtdpP5h7Ywxyb45pMX8RP4qBZWefQn0ygaWKPperFwJMYNULeZf92v2y4aY7O4skt/3I6ssy++jrq36pM+pTlkVF5Qy/zBa/rpt5jXnxQorLV1y/sOd2448AE1jBjDHFzwqmN396oXhWRjGwZna3AB0XNOo9zAQW6UuxmfxBz36rRrGwokRgkcXkSfGJ634LNi1dU8lCSJ5mFAvLztosDu9uL7zz7c+q+NYQYyRZWeqEwIoickHurbzCR6azk/vGi/2CV/ZxO4yAEQJMYEV0XuDXgmR7E5SnC9o5ZT8FiSAolTVG308RH7L4ABXFlr3JBOAXIEdy0V7CWWxDw6JU1gLFy6Rr+xotFpffgjqd3nkAWjYsgsUf3gCJlrQWo4CEXki4aHEqp3cd1KoiwcfCCDQiAlEgsPB5g88dfEfosxBFYbzQ82pt5yS0p/OQwBVKiCX3xRaY/evadwAd2SudnfOswqN45WIZ8ucmYOzA6/DmnzwJ5QsJKE8moOXzk5C+odYzNvcbv1SxHDMNbvzRTi3eYGFkClJtWcD4VCT5sxNQLpUrv2N/KHisMH9+En72m1+uQXHtV+6Arpuq8SbxGCLKL//rA9q/+HsilYDM0nbo+k/rYe2X76hpA72wAMo1RyOvWLhH89B6c+xTvo6e/qggdoTHB0XJpkpaHLapYlrzzvroVccAM1+KIrblVnEnQdypTyaw5qNPaxaV9RbVFNePvGYBbR2K7wUSbX2ctH7IYsbAc3uPQMctq7UTB+I7RTxC6Pd+oWfPVkjr1vVG+wQ39y6t+cletB0xCLPI9oN2CCw8XTLVdx5WPLQZUh1NQPjSPeg13nZwxfm6as/WSpXRfSc4/q4dAGNWlgmsmA1olM0RH7JxyX5Bi1G/xyYIr7G4jInfY8HtxxeBKBBYQT1z/Bjlu9edhDAeFzSy1cyLyiqTH8WxovYwIyEdOdT3oc9GaDeOlb4dsyyEYgZDin1FuutjYVH2Q7Pxfm3o3nmXrGJ+eTlnrLIPmvVj5tnnpC0rW5jA8m6k7WzAqVdeq9Ti7+S9oBoH1rvRtm7JLLOe1/2L8aS8bj/I9uzcP7L4WfW8r2RZF4PElPuqPwJMYNV/DGKlgRM3dTM35no+KGM1KBeNseMubmY/j0kcZwbbZAcBJrDsoGW/bJgJLPSomrh2YcUoMZg6HalDAkdVxADwqvVUyyWXlaD9lWqWR5F0Q28x8tgya3Nitg8wcDsFrRfLiQSWqm5+lBODuMv6oGN5TGDJkPL+Oh198rJlPvpURdNNGA1qJWwB760ILD8CscuC1ns5d71uS1yrWBFZsiOiTuqSPSr7BsJZvH/1/dJHeq9x4vaiiQATWNEct9BqzQRWaIcGmMAK79iwZtFBgAksf8eKCSxv8WUCyxpPJrC8nW92WmMCyw5a9ssygWUfM7EGE1jf0SBhAsv9XOIWvEWACSxv8eTWbCAgvhjssPU2uuGiDhAwczVX+ZLioLtAqjghVwNRjDuJFAJhJrDEYK5mz9gwAx5WAguP9IlH+d565Dl469HnQDyOR/jqj+GFBfPsrilo3jVdUQc9ytCzzOrYo+iBRV5j6NmFBFmY5YX+ZfDCwPLAVXRzhJCUffxbj8AN7/3VmiDuem8xVa+EOLz/rDbRdPQp8IEOaYd2jo0ZmaA6r8Jkvhlh5+XciMJ9ZEa6qZBQZuOpUle23sD9g9kxQN4PhulOioYuTGBFY5xiqSU/sMI7rExghXdsWLP6IsAElr/4M4HlL75MYPmLL7XOBJb3ODOBpY4pE1hVrJjAUveiYgJL/R7jkvVFgAms+uLf0L1H2TU3rgMnS8cbV7vZLkZAFQEmsFSRslfuppVvw009Z+1V8rG0Pog6dSMLpo6Z+zBoehSEgseTBxbpbOSJFaUYWKrYex3zyqxfs6DIKnqKHlhUh4493rHyrYpHgyxWURQ8R8g+szhHRqSMGVGogm+UA3XLvF1U7DcrE1VPe5kHlp13t2rA+zBiZccDS/bccDOPjBJzcSB2N4hyXT0CTGDxfAgcgWRLGhItaVi6YyO09HZX+g/jiyBwcOrcoV0CS5/WupwvQmmiNh18nU3i7hkBTxGwswimjv/060vg+ptb4LN9GwCDTJO4eeZRWuvTuw4ClMpQHM0B3b9jz5wATDEtPmM9BcKjxtLJMrSmCrBl+aD2U28pDyahXIJKsHZ9gPPMsnbY+KOdUJopQGFkqkbVI+/aA/mzE/U2Qan/ls9PQvqGPEz9bgeUh3ApOCfX/ehT2r96uyfzr0H/5JdhSfOvw+KWW6FYvgDlcvVZ/+bYw1qdQmlUqe96FprMp6EECe1eDEK8JLDwWBfKY7e+rv37u1cPQrorCz17toJsIxolAgvtQbtIMLAzCj3z9OOGzzl83jmRztvWQNf2NXBu7xGY7qv/s8fKhkQmCcn2pkoRL5/tNK9EvJ1gWs86qa4srNqztaIC7jNwvyHegzSfrHTtuGU1dNy6WmqOSlvSRpwWSCYAbRbX3mEhsMT7FbESx8jN/esUNq4XDwSYwIrHOEbKijgeT4vUAFgoa5fA0n9hkS2g44IR29HYCISFwKJRwHuQ4pX4ERTZ79G+smsc8NhgWETFI2nku0cB40DFQcQ4VuR5ZhUTCzMSolcWCWVdDFM2QrOxEUlkv8fQSwKLCO+nBi7R1NZ7kcnev1EisPwekyi27+ez3c2HlDBjKXrY2Ulk5MazLyhMzLIuhoXACgoH7qcxEWACqzHHvS5WI/OeXdcFbdtWQtu2nooO+OWrnC9pX0lY6osAjs/C29fB5P4BmNzfL1UGX5QkhcFpmHq59ismja+0MS7ACEQAASawvB2ksBBYxb40lAaTML2jDcqjCVj43jkPHQzQToKeV2MvHIOJH5+C05+Z8wqJuqAnVmJhuWJG9u/fVWM3XZw+PggzxwZh+IpvwczCNyt1RAIr/3wTJLJlSG8Ln0fuN0+uhqlCCn4+2jFv6HAekqCX1ukLrZ4MLRNYchgzPQsgs7JNXlBXAj1Oc8fD7/FnyyihMJJWJLQ2c9OeWDfua2/cZ+B+Y+Tp49pcMSOwkPwVRXUN7OV42G0r2Z6BpTt6gdbe+YFJyPdfAJHAor0VeZThvMI9F44/4oL4sDACUUOACayojViE9TX7goRupaILc4TNbFjVeXwbdugbynAmsLwd7rAQWFMfbAckXkiMPJAwvhXGuYqzWHleUdZFip9FOIgEFnpxYXZC9O4Kq4gxsCiuFOqL5NYTxy/zRHUmsOQwqsYb0rck8ziT9xr+Em4DscssbLS1txmBFXUPNNXsw2Sn3mtbNkf4OiMQVgSYwArryMRILzyD3rl9DeBXNr3nFXr44NeCsX0noDRdiJHF0TOFxig/cEHJ88rIQm18t1Y968xQGHnqWPQAYo0ZgYsIuCGwDr7dDbliEl4YWK615sXCGRej+PzUx4FpvmYxtFy9ONRjlk2VYMuyc7CkOQcbF9fPk6LwLxko/Gu6BqulLbfV/K04mYOBz7/kC64tkIJqJCp7XUxDEao+VPbqiqUv+cQtlT8l2srQdP80ZFPLoTP7KzC2/00Yf+lNmPqN/VC4tF+Lh5WE5kr5wel92v/P7G6BRBtA9v5pd8r4WFsksDCJAMn5XDMcGerypHc/CKz7Dr+zoluulAJ8rsgInTAfIbRDYNGzzs1axZOB9bERxANl4Z1z/7oVXGereNTHfW2GMc+SzdVnPeHrxXvY7RjZrY9zRPMIfuZEJfYlHXuUZXhnAssu2mrl6b6N+32khob/pZjA8h/jhu9Blhmk4QEKAQBmZ+m9UM0so5AXbXMbjEDQCLghsEhX2jx7sXA2ikNnZ0MYNH7UX0cmDx/rPVqv7iv9ItmS290KoleRURZCP5VdBE2QdEhhDcMslDyjsKpWkhdVe1MvrG7fUblAMbCuWLgH0skuiELsK3HsopiFUO9Bgfag1xgmhcC4Xo1CYFG8Pz/vxXq37bXnldncaPS1WZhJXdkcNIp9yQSWDDV/r0d5PvmLjD+tM4HlD67cqg4BkcDCL0F4vhzPXmMcA5b6IoBfa0q5Iky+2K+Nh9dxJTDTJGbQqWxcdZldihN5GNxbDQZcXyS4d0ZAjoATAuvy3ibo6k7BH+xdBG1dyUr8nb/+xlycHTfx/6JEYFGwdjyeFRYCq/RmCoonUlB4MQPl09XnlP44oXxWOC/RCilIQxIyjukrgLwN+ioHRchBSUnhzIoWuPLY+2Hm5TE4/3+9CU235SDzv87CdOEEFErj0Ja5ChKJzLyA7koNh6BQUAQWrXPoPWiHtH78W4/ADe/9Vbj3n78Ew7kLFY9NuuejTmBRXCeMf4Ue3DLB5yTF7pGVjcJ1jDeKGJzb2zcvgzPFvtLHGFW1x+hdYrauM1ubuXkfqeoZhnJRJhz0cawovrBZDCzCmp49+rphGIeo69C9oxdS7RnNEw7FzjM+6rbXU38msOqJfoP0LRJYUcju0SBDo5kZtDuxfsPdCF9TG2kuNYKtTggswuWvXlkJC5elKjB54YkVJQKL4gyh3WEhsGgwxBhYQc3lDshovldByRQUYAqKSt01reiAd/7ik0BZF7O7pqB5V3iPBSoZdbFQUASWqJOdzU3cCSy7mfXsYGdnLtSrLB31MotF5cQTyw1GUSZ0nIxhXO2VHSF0ghXXMUeg0T0Z6zU3mMCqF/IN0i/e2JBMAH4hIGECK1yDHzSBhYQmSaqjCVY8tLny++i+E/Ni+fTs2QrprizgAo+FEQgDAm4IrKv+9kbILKo+C/H4D4oXmw5sB70TShOzkGhJA8a1C5sgaYWCdoeFwMp9sQVm/7oZSqMJgJzTKFRzSHc5oKISgP/5J3i0cBTymodXO6S1g4Zl3XFDvGZ2/DCRSkBmaTuUcgUoDE8BxsRKLKhG22p7bgwS3SWYuHbhPAPCHLydFDUisNoyBfjoVcfgjbE2wGyFfoide10ksCjZDb1D9R5YdO+L71CyIUybdVwPrtqzFRKZFGAmNZnQ+98q2Q96QbT2LoHTOw+EzrOf7BXtHPrKUZg+Ojynb6msZcnTy+ldB7X1D66DzKR/5wEo6E4yuEmIRPNq1e4tWpvYdpyF7HWDWb3w0c+Vqb7z804yMIEVzKjQM0fb3yarb3E7z/hgNI1nL0xgxXNcQ2OV0RckJrBCMzyaIkETWHrrZd55bsiCcKHM2sQFATdz0o8sSE6+0odhLMJCYFEMLC8wcRPHyov+jdpAcgpjZKGXF3p7ieImfhYSVRgnS4wX1jkw5Jc5nrVrRGDRnPQyC6GosJ3NjUhgiW3pCSy6Zra+ChWBtai5hqyxGlgVzGTeTJ5NHAcNqcaBFZ/laLdZXVLDj0yC9VwTOoC3IasYeV4TEExgBTMlGOdgcDbrhQms+uIf296NNlWyIKOxBSOkhoVpQUsQyYJPqyxkQwo3qxUzBJzcP/UisD5y7xloG7Y+NvbGpmb4h08sCWyU6kVglc4mazyG3BptdgzwPMzFeFwCVa87t33p6//qt/8CVvzmlsqfvpX4FdfNk84qDT0Ir2neXSRPDVyi/S8SWhQAXqWdepYJ+iihnXdYHAksJ4S7HczqOZf0favYKWaoNNKdwizQcUv+AByWEa6PHlbzSjWIe300j0+v4j6FSGQna8L4oBK8JUxgBY95Q/TIBFb4hzmMD1smsMI/b1jDOQSc3D9MYFVnDxNY7u8kJrDcY8gElnsM7bSgQuyI7TGB9U9agGj0+GACy85si19ZJrDqP6ZMYNV/DFADJrDCMQ6x06JRA3VbufWGbZCdbMCDtoGDIwaNOPenioCT+8dsPrs5svFF6FVV2ZNyj+1bpdzOx3qPnOc7kQAAIABJREFUarGuSIzIgiu7xoGyEyo37LCgeNTNYTOVaphBsBXSMA55mIUS1OsI4W/0fweaV1a95+x4YtERQvISU/HAWvzJ34PmzVfC3XffDcPDwzUwkieWW3yDqB8FAus9l94Og2eGKqQ54YLEDiaFwOQQdOwx7EcI7RBYUSKuzD5OGM1hcYys6qomunHyPgri/uI+4oWAnfvXiog2I2Td3Ef1RprvwWBHgAmsYPFumN6YwAII+5HJKDxsmcBqmEdG5Ax1cv8wgbWxZpyZwHI/9ZnAco4hE1jOsXNS084GmAksACawnMwyruMXAnbuXyaw/BoFbhcRYAKrgecBuUHSOXwvoDB6uKm+gL3on9tQR8DJBly9dW9LRklXby3n1sKKgJM56YbAegyugi6DINx+4/OFr66AyUUpeHD7aa0rFQ8s9KhCYuqzfRu0jINWEgSB5bXnFdlDHlhm9vkdA8us398u/5t2ScUTS/TAojatPLFkHljYBs5VnLMk2V1T0Lxr2u/parv9oAgsJ8G2KQaW6IFFxA4+g+go7r8/Pw1//sHzYLauc/K8sg2mRQWVja+Xa1EvdXfTlpHdHKvIDaKNWVfl/jHz7LNDBIvJEMTnhooeNEJivyonVPzywJIljPJiVtX7GeuFDVFqgwmsKI2Wx7p23rYGuravAUrlS807SSlLaUTFNMDYViOk4/V4aHxtTp8qGTuiFNW+duqycZpXUdDVpalcPSIIOFmsmBFY+Pfi+CycefgQpPNlaJko1aDw3+AK6IB04Oh8bc8yuNCVBAwEj4KEFgqSWokSwILRIhQyCZhpT0I2VYJssgi/sXoALm2/AI+/th4m89Y6R5HAwoVTAhLQAintp2lRBySbmyB3dhjKxerYITmEgkcLgxT0yEL5Xs/7pN2aEVikO2YxJEm0ZCHZ0gQtf/g+SF9zKfz+7/8+jIyM1PSRzWahs5yGR2bXVa5l75+Gpt+fqfye7C4BJKXq+V4ASVYUGdHqVhEvCSx6D+JzI8oEVjlfgtLE3D2Ccm7vEZjuG3QLte36yfYMJDKpSj0na2Cx03nrrGQCcI1M9o7uOwFjz5yA7h290Npbmzjj9K6DWnNe6GEbDK4QSgRUiCORwOrZsxXSXVnjNf7FOUnGlqcLUJouVObk6Z0HoDiaq2QLpWeOlR6liTyU89VkMTSPqY9Vu6sJR6b6zsPg3r4arFUILLqPxr9/CsafO6U9Q/BvZoL3YqqjCVY8tLlShO5BLwfbyZrQy/4brS0msBptxA3sFVOB2mHrqTk/ghPz0PiDAD9k/cGVW20sBJzcR1ZHYukL4drDM/D+R8+HHkz0xMLMhkhsUQbDm1a+DTf1nIUnjl+mxeRRkSgSWE2QBMw8SELB1JEwmhkI/9jpx8WMwMIySF4RkYW/t9/1Hui46z3w7LPPwsmTJ+Gll16CXG4u06JebrnlFmjOleC9L5lj0f7KiJapMCzityeWlwSWHrMoE1hhCbPgxRpYnMf69wM921XtdfJuCct9xHr4g4ATAstKE6ceSVZ6iB6UYlmVvaUKgUX3keopItQjiJNAfN/6M/fNWmUCK1i8Q9mb+PLGhxAKPiRURXzoUF1qS7UdLuc/AvyQ9R9j7iH+CDi5j+g5ufWnkxpA9Hw8M5OCZHsTLN3RCyuOz8K7nx4PHMALXSk4sy4DiwYKsKi/IO3/Hz6xBDK5Emx4cQrOrGuCf7m9A+JMYCFpRZKGJODxQZIr/+xDsHDTBvj3ez4Ns8PBj510sCwKTEABylCuEHIYjB4F7UXfqwnIQ6JrASTW90Bu4yWQ++XVcOjQITh79qwpgXX//fdDZmoWrvl/XjHtudEILPQ2KE7kba2rzI4Q6kGNGoGlX1cWBqdh6uWqx1Xu+Kjm9WEliUwSWnq7K0XyA5OQ778A2XVdmpeTKPr+xLpUtvW6bkh3t2jtYhnaaGOgaRL08EDvMOwD+yIhnaku/b3j1tWVZzx6eOGzHcuOPH1cervimlz/fpBW4AKxR8ANgUXzWH8viATW5P5+mNw/oM1RvAfF+Ux1cW7W3IP9FwDvQ7yX8Z4W7wH6HT2mSLAP7EsULwksshvvRXz2Gnl8eTlxnKwJvey/0dpiAqvRRtzAXpHAoiIqbDmV5WDb0ZlI/JCNzlixpuFFwMl9RM/Jwx/5+TzDvnm6re6GkhfVrz05DlueUiNh8BghHSlEA+JMYFGWvroPlM8KGMXtSm5eD5lP3g4/+tGPtB8SMw+s73znO1AcnoC3737MVNtGI7CcrKviSGDp15WUiYywUYmBZeY5orKOFeuK/dLzWR9jrLLhHp7RjmKZ6cxrYJ8fTA3evBsCy2itonovGD23VO9Bv2JgqXpgOVmjuZlmQffnRtc41GUCy+EoJlvS0Ll9DeQHLgAy134KukmijDx1zJdu2rb1QGblAsCYWGiX+MDC/kszBe3Mviiyur4orNgojREVn351CGZeHVKsHb1isjmpjW9zdXz9mk/RQ441ZgTsI+BksfLx37sO2lub4L98b/7RqqPj1RhJE4UkvDUVfKyr4Z40HN3aCqtfzWk/KhJ2Amtmd4tmRm53q4o5hmXI06pVF3+sbf1quOSuW2DwxZfh/IsvO267nhUvufMWaLtiNRzf/Q0oTExVVDEisEo9iyB/wzvg/MIMDC6qztXPf/7zMDExUal7+eWXa/9/1113QWpiBlZ8/nlTEzEmFrSVK4HdaazqFej9hf5lkCul4ODbVe8eP8bHzodBFQIL485tWXaushY980u/BPhjdpzHTv9u7Kf1Bq0zaB2LbdJ6MtOzANq29kDzNYuh5erF2loavalE0behrXNuW1MpYhYQHf+uF2zDbNMu9kv96UkDOoKkSmBR/7zOcjOLuC4h4CWBpb8XtXtwWw9o+6OfVvdHZvtB1EfcW6mO0sI75/ayKGbHaa08sDBGl34fKntuUF9+3YO0/6V+yD7x2YPXg+AKVMchLuWYwHI4knbPtDvsRqvmZKPkpD8nGbJUvno50cWLOk7PeHvRdz3akM1J8etiPXTkPhmBuCDg5Ln82opLYXnKmpw6M5OGH55vjgRMYSewvMg+aOR5teI3twDGvfrZw1+Gn33qy5EYK1FJs7hdRgQWHisch3wlBha1dffdd8Pw8HClaYx9RSKLgUXlOgfmNk00VvR7PUDFQO4U1N2v/u0QSCoEFulJseSQiHthYHndCSyz9YZRPBqKZWOGuZFHVGVz+uQx7eOuWRwro1hUZv2IccrcEFjUh53x9mvOcbvRR8BLAkt/DxIh6yYzpizzqRH6TggsMxJZ9tzwa/TN9r927PVLt0Zolwksh6MsIwscNqtVw8wkqfZMJT6Kk42Sk/5pwSHGwML+6fw/neFH5rlt28qauANO4mc50VWljlmsBJW6USxD9mIsB4zpgOfZ9d6BTGBFcVRZ57AiYOe5/Ccdi+C6pizcmG2FbAJfu+YyU0zASD4Fp6bSdfHEUsUbY2AVMgC/6K2SbUuac4A/py+0SrMPihtv1X7tlHNDYFGQdop9hQQOZh5shzRkly2CRZs3wMTrp2DyWDWuhx3d6l124eYN0LxsEZx9/hCUZmY1Qg7lpd/6Y+3fGShCsr0FFu58P5w5exb+5dC/QbpnifZz4sQJGBsbg1deeQXy+Txce+21Wp0PfehD2r9Dn/5bSJXKsHSommHOzN7MzXNlMr835/WX/9ssJBaWoeXzc3HigpSwE1gU04ViJOmxCZLAMupfHCeKoSPGQ0UbktkUtN3YU6mSe2MMcm+O1Qw19eOGwNLHwTGLgUUdY4wrXOvSOtaKwKKYQWL8LDHuq51YskHOde4rWgjo47Gh5kb3IJFQC29fNy9OG8WeormoJ7Aoplv28k7Iru00jSVnRcSiF1dmZZu278D9B4mosx5xMQYWxobD/aWVB5aMwKI4g9SP3/eeWdw9o5llFvMrWrMwXNoygeVwPPwksMzO4fv9Jcfqi5n+gYAvaLMvZn7r6HC4Gqqa+EWFjGcCq6GmARvrMwJ2CKxvLFkBtzYvsKURHivUHy20VTmAwpiF0AvxMwuhGwJL9LxCz6QkJGARVI/QeWF/WNr47fK/aap8K/Er2r9ob2pROyx/4kEt4yBmHiRB4mpwsBp8mzyv/uiP/kgr0v++T9g2S++JhdkJMUZW0BJ2AovwMPLGCJLAUvEGEcdOvzZU9Y4Xn7FG/Zp5jljF35HNK5UYWKr9yvri64yAEwTc3gtiVj5VL0grXe14JInt0JFnNwSWk0yvTrDnOuFAgAksh+PgB4GFnletvUvgzMOHoDg+q6X9RMG+UOh3hypLq2kZXJKJmn70D0r8OlWamIVES3pevKz+nQegMJqzpSPZe3rnAWnmGanyXKCCAH5lxIxmHbesBsqEgxfFecWQMQKMgHME6Lm8avcWrRFcPJnJwmRK87xatWfrvExZVAePFopSKCcgXwL48UgznJ2pZrxzrrF1TfSk+u6OhbB53yRseqYa18isFhJYC0aLcM/Oc/CL3ix8d8ciW6q1ZQrw0auOQTpRgtZ00VZdWeHJWzqhPJiE0tlq5kBZHfG6SGCVtJx8oJFYcZTmlUs0s2YG5uKzob2lZAImupogWSxDZqYI34Yz2g96XZVKc9kKUZ5++mnt34k/eFz7FwO425UwEFjlMsBEIQNvjLXBN0/OZZFD+cBlp2Bt5yQ8/tp6Zc9CM/vtfOQTjxBSm0ab1/xPzsHk4/8ON9/XCf/pvi74+58sh+PnW4HWV1THi3UkPfvsjDH1qz3zkol5z0FxrULtnt518OJ8qq6F011Z6NmztdK1KpFkh3SjMSI7cVMten9Qv5hhMJGpPp+9wNcOrlw2egjgfCLBfRPun+yKfj6j5+C5vUegPF0AjBNldpyW+tXmdak8b98l7ulIH1qjGM1r9LJcumNjRXXcd+D+w4nICCzUI9XRBCse2qzdb3jfiaJlMC2VLddiTnTjOuFEgAksh+PiB4FFD52wscgqL34nOofVXodTInTVxC8qTsYodEaxQoxAyBCw44llFmdwaNVaU6swHhbGxfJb7GYhRAKrbbgIH7n3DFBdOzp2ZPLwsd6jdqool524dqEr8go7apSsg1agIok1DLOAxyjxSOXTcBr+HmqT1mDWQRQnnlfUfxgILNLl56Md8MTxyyrQ3L3uJKCHE8bHQi8tN+IXgUUxZT6wqwM+sKtT0x/toPe+yjrOjV2qdY3st+PR70UGNJmuRt5bZgSWrC2+zgiICBgdTbWLkr4NMZ6ULB6cnb6snldiQgM77YplZQQW6mGWhEFsy84z1o3OXLe+CDQsgWV186sMiR8Elkq/9SojS7laL734WJw58kxg1WtWcr+NhIAXBJYeL1oU3vfd81q2wqAJLNLl/Y+eh7WH5zwfjMTtEUIvCSzMYIeZBlu/PgEYU8kNgYVHBOPqZWX3vkwsaoemJx6oVPvGN74B+ENyww03QDabrfzuxRFCuzr6UV4ksLzsw87myk4Qdy91DKot2njLCCyVDb8Xm3Yzsk8/Zl4EvQ4KX+6nPgiozmc7zwLREr8JLPFe0B+rlcWicoI6E1hOUGvsOkxgWaTztJoaTGDNoSOmag76dmICyxxxJrCCno3cXyMiwASWs1FnAssZbkHWYgLLe7TtbFqZwJrz7GMCy/t5yC36hwATWPaxZQLLPmaNXqNhCSz9wJu5Qbo5chU3YiWsHliNfgNb2c8EFs8ORsB/BLwmsEhjs9TUX4ReX406eEcH/PDODjDzwFLxvFI5cuUlgUWATH2wHfLPuwuyzh5YtdPrP7oz8I/XtsKbb76p/ZCQB5Ybzytqi44Q+jq5FRuXeWB9ZtMRraWPH67Gf1FsmosZIEDxpOiSWSIjI/DEGFjiut3O0UkzrxOrQTMLXG0VtJ7aq/cHYJ6MjYGASjIEcU5aJfUK0gPLKgOpbPTsfCyQtcXXw4cAE1gAwASWfGIygSXHKGwlmMAK24iwPnFEgAms2lFlAiteM50JrPnjyQSWt/ObCSxv8eTWGAE9Akxg8XyIIwINS2DZ+SoTx4E3sslOsE9xwdEoGEXJTjMPjijZwLoyAlFBAN8pYmpqUXezIO5GNsruX3qHPbj9dKAQxdUDC4OUY/QrlloEkpvXQ+aTt2vxr/QxsKjkLbfcov3v+5875xi+MAdxd2wUV1RCQHU9abRul3lgKSngQyE9aaAafJrUYM8RHwZEsUk/HBoUu1YqZvTBzCwum5tTRKSMEfkVhAeWG88rEUijGHZURvSCtPNBUmnAuJBvCDQ2gSWkERVRTnVltXS/hmlxL6YBLudLUJqY9W2AZA1T6tPSRB7KeXepyMV0y9S3kf2j+07A2DMnZOrx9Toi0HnbGujavkZLr4tpdlkYAUbAPwTqRWDdv/1kxShMYZ1qNz9Ch1kDZTLbkoDZFnMi5wtfXSFrAsgD6/HX1sNkPl2TuQ2PD7ZlCvDRq45J21IpUJ5MQPlCAqZ3tEFhv7MscSKBhRn4UDigO4BIYGUyGUgmkzA7OwvlchmIwPqdH09rmBWHJ1SGbV6Z9ldGtN8v/HonJBaXofXvxiGRLUOia24cghTZEcIgdWmEvnAtiWtKXEvjmtpM8AOAKLQW7d7RC629S4DWsfXGjXRFEgH3Eqv2bK0+p1vSkGwxzyyLdcykPF2A0nSh3uZFun8kFM2kZcMiWPzhDTWXzzx8CIrjtXs9bX90cT9IlWiMku0ZSGRSUBzNAZTKWha9uefjXHIU7XfJPlRURD+v6FpLbzcs3bFRu4fwXqJ7wVLni5VxzZDUrRnoHqT976rdW7SSNCf16xwvshDiXEa8hr5yFKaPDmv3CfbtBYFFOOvvJ8KK9s5MYEX3Vm5oAkv1a7nR15CwBHGXfaV3MjXFr1z8NcgJilyHEWAEGgmBehFYVl8XRfxVvLUoBpabsSMCi9oQYwXRESw3fejrUhZCN+2JBNZ5yGnNLYFqlj037Ue5rkhgXXvttdDd3Q0vvfQS5HK5CoHlVSys0tmklkkSM0piZsmghQmsoBGf669RYkKZBflWQV3VW02lrUYtY3UChzJjGhFHRsQXvn9FDzszr0ArbyY/xkL0+KY+VDySgoqBJWIl6ujmtJTV3tVs78weWH7MRH/abDgCCxljlI5bV0NxIg+De/tMkUUWO9WegfHvn9LK4IONBJn1pTt6IXd8FEaePu7P6Ci06gWBlV3XpTHeJIiNXnBRwcIIyBDAOYRziQTvDe3LEwsj0AAIYDDfUq4Iky/2a/Me578o9E6h95DVAqttWw+0bVsJUy8PQmFwWvOiRO8E/TsM29c/n2VfRDEwu0x+tq0Vjm5rlRWzvP6elWdh1YIpWNsxAelkuSbYdRgJrFZIQRqSkLnoc8UEFgBk0pC8dg2MLW2FE9ct0wgr/Gl0AuvKrnFt/iPRxWKMAD2v7OCDa2mj56adNqJQlp7toq70bLeyYXJ/P0zuH6gUcYJzFDByoyOtRfMDk5Dvv6CtS/FvhBW+q80E37X4zhXr4n4P930ktB/E/WEym4K2G3sq13B8cJwW3r5O6/vc3j7AUzJEjtA722gfmulZAJmVbdp9IFs/o/cUehSRkM70O603RFuxf6qL+qGeiBPWp/UG2Uu6kr1ee2CJBBaNEe27rcbKbAz1Y4Nl9Ht3qsMElps7LBx1G47AcsKuOqkT1PB6QWCJWVTY4yqo0YtXP+LmuVG+psZrFNkaNwioeubaeafQ81klQ5aMwHJjm5O6H+s9CnhcMAoeWGQfZSFkAgsgsagdmp54AA4dOgSf/vSnK1Og0QksDuIufxp4EX9H3ku8SjjxNmGca+eAm5hQZnXFXvRH3GSneaiuyukWO3s6M88vlbtC5jWmYq8X6w2Zt5qKLVa64jWjPS0TWE6QDVcdJrAUxgMnOsrIU97E61DoUrlI89WLoeXqxZXyYxhHQHI+Hhn+tq3VrwViZ2G0UxkQLlg3BMR5NXmgX/uqw8IINAoCTGDNH+ktywchmyzCCwPL510IowdWFpKQAlwSzZdWMI9VE/d5LRJY11xzDeDP+Pi4Fv/qP/7jP6BQKMBdd92lQXH9m3OxXc5+43nH0GAwd4xplvtiM6QuL0HmtuC9eM/PZOHIUBecmGiDkxNtNbbctPJt7W/ivHZsdMgqoveI23e3ylo0ZGbXXR3aa+gVwVhZGM/UTBqdwNLvzzSstq8BbS26rQeIHMH/z6xcADQnjXA2w1er27OgchnbNJP8wAXN84r2ZbQGxvFLNqdh4Z1ze0kSI2JFrGvWF9ogzg3RXrO6uMcjrKjM9KtDMPPqkIYbYiUK7Qux39JMQYu15SWBJfYrYmV1c5o9r6gNxIV0pnbMcLbzcbHuD4wGV4AJrJhMAPErvZVZ7CkTk0FnMxgBRiBUCDCBpTYcYSSwKAbWMMwCBnDn2Fe1HlhIVOHPs88+CydPVpMHUOyr3Pse0SYAea+pzYb5pSgboZO6Xtd5oX9ZbEkqK6zYe9rrmeS8PVkGw0YnsKyyPZrFC1OJgWUWp0wMLq6PgUXxs0TvHpVYVHZniEpGTrM2vTpl4yWBRbqaYWXneWWEjV0vOa8wsjuuXF4dgYYjsOiMOT5owhLHSn24zEuanfGm88v6c8R0xptaUzlr7YWO3AYjwAgwAnFGgOJKpLtboPW6bi1WCX4dFMXOVz56tmOMDYy1YRU/y4sFpZ/jg8HdUSiGkNO+yqNzGQdT1xYg+8A0eBnEPa/RVwBNYJ6J0aneUaiX+eTtmpr5Tz8NkxmAL1xbhtHRUTh27Bi8853vhOuvvx56/vUUtJ2pBle/7LLLtDqlQ3PeCW4JLHF864UbemLhzw8GlsHpC63wgctOQWu6CE8cn7M3jEIxkn57Zwes7W2Cv3xgGCZHSkBrQJWYprwmDM/IEoFlFm83bjGwaF8mjgDFR6O4TjSP9e9S1ZhQVrHGRBJK1IOIDX0sSop9Se99jGGFXltEBIeFwDKKvUUxsGQzXr+XpPjRYtxbWRtG1yluF8ULw5heOI4qQs86XGsh9iRG4ysjsOzEJ1XRjcv4j0DDEVh6SFW/lvs/DN73YJTtgnoxy7LhvRbcIiPACDACjYeAGEdDRMAOgUV1xUWw0RfCsBNYXnleiVnqvCSwGm+2zrc4+50/0/6A3lTojXYfvFIpcPnllwP+/PorU/BLg3lTqNwSWPXOQigahoQVBmw3i+kWpjlDXid/+vUlcP3NLfAH1w7AyNliJYA0exaEabTkusR5n2JkvZnHmUgGGXlCydBU8e5RJbCoL6ug5mEjsIzidqmuGZzE/JKNh/66GItZpa5ZBkOjujICS2V9paITlwkOgYYmsCCZ0DJTlPNFLUNE2AVvsMJoDvp3HpCqShskvGlRTu86WKkTFXulRnIBRoARYARCiAATWMaD4hWBBSWA0mASij9Kw8xDC6B8IaHFTXIiLZAC/Elo/7Fg3CuUzOc/DMMjI/DBHX9YAUVGYCHhhTLnw+ZMkstKkFhchta/G4dEtgyJLudtOdOgtlZQBBZ605zbe0SqNq4FUfD4WLorCz17tmoZ1rBuebqgxUG97FPXQefmbvi9pT+HBak8/Pmp67Q6TGBJ4Q1XgYv7lJYNi2DxhzfA6L4TWvyhKAvOV5y3hnLRXrqGtqLNaDtioGVMTyYq8xgJLxTc6+C1VXu21jSL9wXeH1YEFmb8O73zgNYH9pVoSWtxojBT/VRfNXvvqt1b5rWPe6tURxOseGgzJDKpeZkKzQgsvG9JZ6fjiHbTvU9tyAgdrwks9JZaumOjIxMQU8QW44N1bV8DQ185CtNHhy3bEp91HbesBszkmGxvknttlcpaVkfqV+yI5hU9W/k56WhYA63U2ARWoFC770zP9MtaU8l2IWuDrzMCjAAjwAjYR4AJLGPMPCOwLjaff74Jpj44R7g4lVZIQSMHajfDDT2xhoeH4e67764UkRFYbjyv9HogidX+yojTIfW8XlAElqp3vFHcH7EueTSIXmO8MfN8egTSoOydEogSHnWi4glFXZmRMkbzWNV7y8gM8tCRxQg22lvZ7derezDITIJuyC8jvM3ihVlNMdEb0SxOmVUbsmesE+94j24LbsYmAkxg2QQs7MXpxeDVAzLs9rJ+jAAjwAiEDQHZZsPJBwaVZ7vqcYB64RVGAouwoCDu9cImbP3qCazu7m649tprtSyD73zTPCsgEVgYAB+9sMgjy65tjURgOVmrMYFld0Zx+SARkAWeV9HF7CifWdB6q8DsKkf5zMgg0tXs/eskmLqTe17ETN+vGXlNdewEnjcbG68ILPEonyxYvtVc8YPAUpmbXCYcCDCBFY5x8EwLlU2OZ51xQ4wAI8AIMAI1CDCBZTwpmMCKzs3CBFZ1rPz0wHKymWUCKzr3USNqygTWMRh56piWOMEooLiTe54JrNo7iQmsRny6VG1mAquxx5+tZwQYAUaAEfAJATGdNnXjxgNL/KqqV509sJwPJHtg1WKH8bCanngADh06BJ/+9Kfhd6AHbodVSiDH0QOLDCci9uOHncV/0QPoZDPLBJbSFORCPiLg5GO5SqBu8SgfHSGUmeLWA8usfdKZPL+s+qE2VHWW2eTVdatjj7Kg9eJ6wypovYq+smDqVm2YJTRQmVdiu2EbIxXsuMx8BJjA4hnBCDACjAAjwAj4gAATWPNBZQ8sHyaZj00ygTUHLnlgMYHl42TjpiOFABNY5sMVNnKECazasQrbGEXq5g+JskxghWQgWA17CIhfRezV5tKMACPACPiPABNYcxh7SVyNrVwMFCPJTRD3JkgCel1NQQGmoKj9P/6t0eX98CNlCL4E18IiaKopj7GwkpDQrs1CCcbBXZbn7K4paN41rayXXwU/27cBxvOZynwOkwcW2SwGveYg7n7NhsZo165XL3oUmnnKuEHMzBNKjO+k70MkKcTg8XrvR5nOVnVFu2RxndwECtfqMpP3AAAgAElEQVSTUWbeair7Iz8CwFOsMZVxloVZMGpDNkZUx8pLThbEXUV3LhMOBJjAshgHSquJDwk/BVO1YsrW0sQslPMlP7uKTdvdO3qhtXeJlvYWU6OyMAKMACMQNgScEFiJTFJLCy0KpgfX3kkXhVJxa79eTBFtd7PhN15tmQIkoQy4ifZKJq5dCInFZWj9u3EovJSB6QfaHDWdgSS0Qxqmoaj92CGw8lCCCSjU9NsF2Couq8Ivk1DQyCVR7oNXlJX/C7gaOiFTQ2Jh8HakAhFTM6yUOwEAIrDKowko5xKQ7C5BPbhGIrBoPuPvoqSTZWhNFSBXSkGuKCdEvTpCSHowgWVnZjVm2WR7BhKZVMV4cY+DRIHTd4qewJruG4Rze4+Ygmxnb2WHwMJ9FO6nxr9/CsafO1XZW/Xs2QrprqxGsKHQvYe/49/xuhnBQXXJmNO7DtbYVc4XoTSRB5HA0vYopTLQOxvJMJR573DJVCSdqS4WNyOwaH905uFDUByf1cqhUBv4uyqBRXX1uhdGc9C/8wC09HbD0h3VY9RDXzkK00eHaywxGmeqO7rvBIw9c0LpRlQlsPQY6e3G/6fx5X23EuShLsQElsXwOHGRdTLaZpscJ21xHUaAEWAEGIFwIOCEwHJCQpmlAK83CuT94bUepbNJQCLLS7FDYP0YRuD/hGM13Zt5JHmpp1dtof5ohxfyD/CummbcxMASGyMCa+qD7YBed+2vjGheeEELEVhW/V7ZNQ53rzsJL/QvgxcGlktVZAJLChEX8BgBMWaQOAfdxDnSE1gyte3MfTsElhjXSfQMEj2grDL6mdlg5OVjN3OiDB/9daP+ZPHCxD2sUew86kMkvunvTsZItMtOG1aYqBJYYhtG48v7bjuzL5xlmcCyGBdksVPtGcCHn5/Stq0H2rathJGnj0Pu+KifXXHbjAAjwAgwAgEhQM/2qZcHoTA4DfhFGr8Oi4tR/Tsm3d0Crdd112iIXyzROwsXySiU3Qh/L+WKMPliP2TXdcHC29cFZJ28mzgQWEYkzxtwAf4n9NcA8L/D5dAGKXgneEuuyZFWLzEAMzAA0/A/YQDegEl4B7RDBhLwExhXbuRSaIUOSMPPYALyUIb/Cuu1unq740hgffPkapgqpODnox2mWK1aMAXvWXkWjgwvhCNDXVJMnWzu7GxE+QihdAhiWcAo+x0Ziu8IfFeQ2CGwcI+CHkX0PhLBMyKw8v0XID8wWYMzekih0DvNaiBI53N7+zQvJyS0UOjdSb/j31BH3E+Z7a1U6somhb4/Kiv2S38nnfXvbHqH43oA1wUyEdcMRu99IqFwbNFbe+mOXkBvOxpf0hlxx70t7nFJqK44N8T9L9pAOmMf2BeOLY6xWJfa9moP7ZTA0o8VrsNwPYZ7bpwfdo49ysaIrweLABNYweLNvTECjAAjwAg0GAJ2MhmZHWGw8zU1LPDGgcCyExOKcDfySArLmDwNp+HvdeTbY3AV4NHH+6FPWcWPwBr4ZeiAB+E1GNXFt9LbHUcCiwDyIvYVtcUElvK044I2EFDJlmc2B608sGjDL8aE0rdldjxNVN9NLCgbUISmqJHnl2pWPqtA7CIJpeJhJ4KiGtTcaG6o1nU7EE4JLH2/ooc7E1huR6V+9ZnAqh/23DMjwAgwAoxAAyAgI7BwAUiSH7gAk/trvXtEAut/u2ObVmXkqWOA8Rw6t6/xBcnDt7XDbIuzuE5RILAwahV6IGUhBSlIwLfhjBYTi0RP9ogAr4c2wJ/DMAJnoRqL8XegRyt6O6zyZUycNIqeVwfgPLwGE/AajMMmWAjLoBpTjdr8Drxt2jzZu/liXZHA0tvNBJbaKPlNYF3zbz+CzGxOi8uD8qVNP1ZTjEtFGgEcb+29cJv5ewFjD5WmC9o7BIXmyMI719fEV5p+dQhmfjoEkwf6NW8bKwLLj/cR9Yv2JJvTFZ2jMEikM+KKog88LxJYzVcvhparF1dwFuuSvUaebkQkoWdRZuWCCjQ0vvQHGmcj7GQ4Y93STEGLW5XpWQBtW3tAmxuvDvk+FF4QWKQzKUv2+q48d+A5AkxgeQ4pN8gIMAKMACPACFQRkBFYKptYkcD6IlTd//3E+gtfXQGTi6oBf+30FQUCqxVS0ArpilkYxByDkKvI+2A5/CYshy/Aif+fvXeBkqs673y/enX1W61HS6hbyCBLhAgctbAhkwwSHmObrIsnMA5rgecB8TizbCe+S1bItT1eOH4xDr4TLtGaxF5eY5KYWTeBGexADJkgjMdI2E7AgZbNw4OEhCV1C6n16Hd1db3u/U7rqz696+zzqDrn1DlV/71WL1DV3t/+9m/vU+fUv779bcsteFGKxFLzdqlRVLKe7CKxZLzCRhWw5HUeNwQsNyto+cusu9pLtbxsIeTky/wl+eHxS422dwyd8NIV6saYgBoJpQ5F1oa87uaEO6lrJ2Cp/bg9lc8OtRr55eaeGZWp051gaI5mEl/V3Ex+RLq54aDrN0qc/RCw3LBAnXgQgIAVj3mClyAAAiAAAjElIDkpet89TMlsqpq/SoZj95B4M22gy6iHukbWXcyBdcZoxlu4wihvjnRSMbPc07fvWee62yAELE7kzSfRFQ+YnHLtUW3FF2mS/ommqm8coinj5Dy7wjmgbqZLjAgm/tMJWJITSnJENeBm3U35tMH/QkeNrX6c80qKKmA9+od/bLx125f+oKYvGe8vaJ6O0zxt2fJ2WrWqn/7Hyz+m+UKt2AcBy/108Zbh0kyBJva538IJAcs93zjXtMqzNHtg3DJC16qu5EbUMZCcjNJWcjSxWMT3Kb5fSc6g7NtXUXbrqmquXlVYkTxHvJ457xLnX5KSGeo1onWk8FrnNd9/02bjJbt8XdLGTwFLzYFlxUfyZzmtH4PVxfFKDixpIzmh1Hxhcr8355OqtrnjCuJILd1WTeHM7DgnJtuWfmWOVJ+t8oRJHWnL88PzpOY4c5OfzImRX+83ImDp5sgv32AnfAIQsMJnjh5BAARAAATakICXX60FjwgNUcH11cfdb4sLQsCaGlrrK4rv0ltkt23OqjMWD3lepOgELHm/mZFYHE3GUWVqUQWsJ554wqjygQ98oKaujFdY7dy5kwYHB+nZZ5+lfH5566R5vIjAcr9M3ebBEYsQsNyzjXNNqzxWunxDdqfUOTGwy6+kO9FPF1XEfbmN/PKSp8tPActN7i1d1JjK0ryVT81fqeaikrZ2P1g5RWCZtx+KPd3ph2p/dicnOq2RKLzfiIDVSNsojB0+1BKAgIVVAQIgAAIgAAIBEvht2myc9pYeyBIla/NJFc8vaHvvobSRoykqxYuA1ZspUpIqxEKWX8UvAYtP0PtLOk4LVKIFh4gr1XeeD56X99IgvY/WayOwzIKOX+P3akcnYP3q1Ttow9pBuvbHZ6hjsUT/8K+W8rP8zd/8TU0XMl5h9alPfYre+c530sc+9jG6cOFCTf011MGrnT578XRCrz6r9bN3z1Pn3Tni6LvC0x3U99IFSm6wj5JrtE+79tOFpei/+0a3+9INBCxfMMbGCOc1GjDlLDy596Bxsh+LQubCX7qlcLTUmX2HqJIrGnmrpAw/sMu4r5jrVt8sVwy786NnbSP86hGw+AQ6871s0/3XG93ytsRmCFjMrjiZp7G9B42opPV7dtDk40eNXE1qEVYrfB7I0qYHdlVZeRGwmAPz6Nq+htZ+ZHu1X1XAYjZc+HrXFc4fluhKG3bYnsp5Rf6syTzx2pF+uR23l8IsmIn0Z7VGKoWScapjHIqsKz4FsTyzqJ1fq7FAwIrDDHvzEQKWN16oDQIgAAIgAAKeCEQtisqT80plLwKWNP3KtYca6XJFW78ErJ/StCE8NVKccmCJ7ShGYEkU1c3PnqXOfJm+/f71hrv79+93RPKHf/iHdN1119Gdd95J58+ft6zPJxvyCYd+lKgJWDImv04jhIDlxyqJjw1VHJFcVHYRSU6n09qNXtdW2tQjYKn92UUFqnXdjFdt4xSBVc/peFY+O0UzqX6Zo6nkhDuJknM6DdBuzpyit+xOihS7ao6z+Fwh1p66Pd3SqjUErLjPfq3/ELBab04xIhAAARAAgQgQUJNeR8AlX13g5O6c5F0td247RlcOTPvalxgLWsBi0YXFF7tk5rKlru9fv4f6//V76Lvf/S4dO3ZMu6WOfeeopP9KOwNhYmdUF4HViCMiYD344IM0NzdnKXr5KWCJr93fmqHM+9wl2G9kfG7bQsByS6r96rnZHqfLc2RFqx4BS4RREVZUu7ok7m62xelEKLvT8dT+3TBSxSA7UUYX+SWc7VahKnA4RWCZhSu3bdXtf3ZbCXXil53o1kpXmZe14TRusy0nMdfJFt6PDgEIWNGZC3gCAiAAAiDQQgQgYPk/mRCwvDGFgOWNl5faELC80Gqvum6+gEPAqs23p64SCFhLRKzEr1aOKnJz/ejywdkJpRCwWudzGAJW68wlRgICIAACINBEAn5GnUjC7GZvP+QIK460+vQtJw2ysoWQ/815iDgfkZRnxjbQM+OXVP/tZxJ3v4QrcU7dQqgmNf8GLZ2iZReJ5WWpxTkCS01a/6Odq+jUYLY6/N/av3QyppmVn9eCdBSVCCy/hCsZF7YQermSolFXTbYtXnn54q3bJmYeoS6KSo0qskpM7pSLSiXpJrm4tKknAstpS51d0nppq/ZrldRcfFQFDkk8bzdOaauLwFLb+r2Vz22/0bgK/PfC7nCARnprZPthI/2ibXAEIGAFxxaWQQAEQAAE2oiAn1/aIWCtXDgQsOq7kPyIwIKAtZI9BKz61mIrtYKA9T0jObhd/ixVSIKA5XwFQMB674oDCdyIjc5Ua0/GdBu95cY26jSHAASs5nBHryAAAiAAAjEmIBE6MR5CXa5bRWD9fLKfHjp8edVeHHNgIQJrafr8ijzzU8yVhRXlCKz+TME4bVO9FtxcZH5EYOmST0vEysPjlxqu3DF0wo1LqENUI85YQdFFQtkB1CX5VttY5ZOSOk55ndxEgunySXmJKnKTAF58doo4s8ufpUZgqazMPst7qsioi8Cyy5Gk67eepPW4qJwJeImSc7ZWW0NNtF+PDbSJBgEIWNGYB3gBAiAAAiAQYQI9lKIMJase+nXCWoSHbOmaJG2/6+4zlBgsU+/+KToy1UuPHttcrR8HAes1mqG/pOO0QCVaoDL9Nm2mX6Y++s8db9JMokhfym81xvNpeqWGQyaTob6+PsrlcsafmxL1LYQsOHGRdc3jLlOFpqnoZng1ddpNwOrNFOkTV71ecy24gQcByw0l/+okMklK9nXUGCxN5onKlWoECH+Z1pVyrkiVXJHO7DtEudGJajVL4ahcIcP2xTL5+FGaeuwoDe4Zoe6Rddo+Tt79HKUHsjT8wK6aOiJgpQayREn+KreybLr/ekdgp774PJWmlw9F4HXIxSwGdY0M0vo9O2psndx70BiTnwIWC2qp/g7a+PnrtKykX94SxkV85rnisfCYpAzcsoVW3bqFdCcYig3zPKs5kmSOpF+xLW3s5qg8U6BKoURqW8eJaeMKvNZ5zfNaCKLIepZrMIg+YDMcAhCwwuGMXkAABEAABGJMoNm5qKKGTiKxrPyKg4AlfstWTfn3DTfcQNls1vJkPalz3XXXEZ/E91d/9VfGn5sSdQHLKqJwkgqWAp6b8babgOWGia4OBKxG6Hlv63Qqn5voJd0WJKu2XudXRmTnh1MCeDdbr3T5hqyimXSU/RSwRJByI154yfmlE7Cs+HpN8u1mjryvULQAARBwIgABy4kQ3gcBEAABEGhbAlvTGXp7uoNupg10GXW74pAvJ+j8YspV3ahWOrWtg+YGknTZaJ7ShUqNm60qYF199dXEEVYvvfRSzZgzlDCitK644gq644476L8/u9/4c1OaJWDNUpH+Cx0lFqOO0GyNqzweHhcLtFw4uT0Xzns1RyX6S/qFEYX1Js27GWa1DgQs97i8Chy8rYnL9FPHKdWXMSJ51C2E+cOTRoTMmX2jxJEg7baFkEUqXcluG6DVt2+reVuXmNxckZky2/yRKcq/MWX8vzm6SubG3L/ML0dLcd+6wnNoLmZxRPqV9+dfnKDiRI7W7xmhZN9S9KS5uBGweN3w+pHCQg8Xs4Cl+qwbr9kG+8N+sX/sp5TuawYpPdhle2GUZgo0sW9UW4cjaDiCrv+mpYhf8Zl5y7WgNhYBS8ZrHqfUrRTKRiQdj+/CI4cpM9xDmaHeqil+j+vIvMpcyXxbOcx22B4KCICA/wQgYPnPFBZBAARAAARahMCn+tfQp/vXeBrNqYU0/fDs0haHuJZv37OOjlzbSb/34VPUe75UM4xWFbDs5ksVZdToLbu2zRKwxKef0AX6I3q9dh7pKpLtg/ymnCRojshST2x0s6YhYLmhtFTHq4Allq1y9+iSi7ebgOUmikqdITcClioU6nJRrRCfzi8YW6J0kV/ih9UJd/KeGhnkJp+U+xW4sqZdDiyn3FtmS+p4vbTV+e4mj5Xa1sscSVs1mbru9MN6GaMdCIBAYwQgYDXGD61BAARAAARakABHXn2wu4+uz3bRP8/a/2qsDn+mmKQT8+kaKq/PZKhYqc1XEha+5+7oN7q6/uGlKBu78urubjo/lKbrHp+hjlyFpK20+eGHlmxZlThvIbRj0klJei+tp0soS9fSamoFAet33nYt9aQ7aPsbc8bQIWA5XRlEcgrhjUNvGZWfGb/EuZFNDQhY3vFxhEzvrmFtw9UfusKzUZ2AxdsF1dL5jrXUdfXaan4l9X0RsLhteaFo5LzSCVj8HufUuvDwUj8snuhK7uVztPDyOVIFLCsfvQIw9y8+C2cZ7+yBMSqMzdHU40s+SxGfxQa/rmvrxq/C+BxxX51XL3GePbjUL+e0Snama1jZzbdOwLLiLP3qBCyrcboZD+qAAAj4SwAClr88YQ0EQAAEQKAFCNzU2UN/tW6jryN58lQP5UrNE7DMJwh6HZhdxJVqq1UFLBknb6/jLXetIGBJzq/f2n/GGB4ELOcrQwSsr1x7yKgs/3ZuaV0DApZ3ck7RTN4tkhElxXNhlddJ7LmNKrLK0eSUe0v6sGurO8HQLnrLLQu7bYc6QcfOZ7O45VVQrCfSTTdON5FfnNCdo7ucTvN0yxL1QAAEgiUAAStYvrAOAiAAAiAQQwKDqRRdk/G2DXB1Mkl/tmY598q352fo2/Oz9Af9q+majk4KW8D60e39xLmspOx4aikH0tYXlk6bsitqW95O6LYEIWDN39VndJ/5t3mqXEhQ7pPL+Unc+mVVz4sIxSdR/ja9jfopbeRDO0154+9Jess2R9R/pCuMEyx30KpGXG2orW4L4dq1aymZTNLXP/5pw/7/+tLXjP8iB5YetwhWVw4sRTL+fFIfjehm0iBgWVOyyy/klE/KDXe1jipgSa4kybfE9aVfjg6aPTBOktdJco2JTbMIJTmhVJ8lR5LkVzLnNmM75pxYIn6JgMW5tIwTCC8Ws4/8kl0OMHXc6jj53+Kz1JWcX/Lv3ncPUzKbquagshqvLp+U2r95njlfG7OUnF/qlli7PFa6OdcJWNIvv895tTi/lvSry4FVz7pCGxAAAf8JQMDynyksggAIgAAItCGBS1JpemXjZdWRf3X6PP3f0+eNSC6O6ApbwJI8VuLQp2856XpW1LauGxJREALW1NBaw4VV4+eofDpJMztXe3FJW9eLgKXL6/RndLSa/Nyqo2/Tr/riayNGdAKW2HziiSeM/x37wD3VbnAKoTXxRiOuVKsQsKw515PHqpFrRJfnyMoPNRJK2kr/ZkFHontU31RhxSryStqoApZqqxFWEnll57N66qKai8qqrdsT/azyhcn4VAFL16/dvDvlwHKT8L6RdYW2IAAC/hOAgOU/U1gEARAAARBoQwJJIlqfWs59NVsu02ylTKuTKcomEvT36zbTumTKELLCKAt9SSpmlrcsWiVjV/144dY+ev6WXlLbevE3CAGLRSsuyQ1lXwWsBSrTgnHa3nF6jWZsh8ke9FPtiV9zVKQC1Z7UKMaiIGAVqEwzVDS2Pf4tnaoZ55o1SwcV/NH5pdO9Pk2vUJkqxgmEXstX6SpKUsKIVPOjZD+ao46PLVByoEKU1XP2oy83NiBguaHkXIcjXtbv2aGtyMJPmEVEKOl30/3XG91b+aETsFhg4XLy7ueM/xo2kokV0VKc82qSc0jNLBon20lR++XXi5N5Gtt70IgQSvZ1UP/7N1dP4DOzaYSVCDhigwVV1edKrrgi55UR/ZVMGFsuzYzMbSuFknECplNZ4Xu5suJUx2RXmhJdaVr7ke3UtX3NEsdkglTRzaoPHWeVt4zByU+8DwIgEB0CELCiMxfwBARAAARAoIUJcHQWR2k9etKf7W9BoOJk7XYJ2t30GYSAZe7XzwgssesUReVm3Lo6URCwxLdH6CT9dxrTDkdOH5RcWPWM23yCYT3t1TbZu+ep8+6cH6Z8sQEByxeMjqfy+dOLeyu6KCorCzoBS42isove0nnmJiLJ/aica8YhAklNWu9GwFKjxpxJoAYIgEBcCEDAistMwU8QAAEQAIFYE7A7Aly2EemSBOvamoEEkdi4HuBxELBODWbpRztrc1I9++yzlM/n6xl2TZv3v//9xmsf3T/liz0/jDgJWFZ9DA4O0s6dO6tvvfTSSzQxMUGSAF5tIwnh/fCXbUDAsiZpt21M3Tb18PilhpE7hk74NS2u7Nj5qG4xU0UKVx34WEmXxN2qC6cthNLGPH5dYnK7z3Y1ubjYrYeVk6DjZtujyiIO4pePS6RtTLl53mgbGBhoJAlAwIrktMApEAABEACBViMAAcufGfUjAgsClvu5gIC1klUUI7DU2YSA5X59S00IWB8wULAopcvbBQHL+7qKYwsIWHGctfbyGQJWe803RgsCIAACINAkAm4ELHFNPbZcXrf7xbtdIrDU6Vu4v4vy93f7MqtP3rCOFrJL+bbUwpFZHKHlVCTySupFKQJLfPr7nd30i8HlfF779+833lJ9N4/1jTfeIP6TIhFYfkdcif3M+xap+1v2ecmc5iKI9/0WsMRHt0mvpX4zI7DqFTi8+NxIYnIv865Lpm5nw0sEltsk/VbjdRuZq/pqdZ9Q7ylukta7XZNeEsCr69fKV6ek9V7mF3XdE5DIPt3acG8JNUEgWAIQsILlC+sgAAIgAAIgYBCAgBXMQoCA5Z0rBCzvzKQFBKylxOaSsNyOpCpOQMDS04KAtcwGAlb9n0+NtISA1Qg9tA2TAASsMGmjLxAAARAAgbYlAAErmKn3U8BSPZRk5ubIJM7/xHmg3v72txt/NW0ilPNKR3yaCrRIZbKLOJO2Mt4P0CX0L+mSYCbxotVV4+eqp0xKBJbML0dj8WtRKX4LWW6jXWT89YhBXnIWyeeVn7zr2Z4WVCSWUyJ2q3Hr8ljp5sSOt1MeKzes1MTzbtaG1NG1NY/bKapXTabeiM9+rjPYqo8ABKz6uKFV+AQgYIXPHD2CAAiAAAi0IQEvAtaqW7fQwC1bjKPT+Qh1KdhCWLtwghSwPk2vGB3uvuGGasfnz52jl19+md72trfR2y67rPq6zNK/ezYa297KVNFeZTNUpAKV6ZlfW0MLHdZbJqWxjPe9NEjvo/WBXrlRFrBmC2kqU4L6MwWDwX2j243/TheWt2I2AqcRAatSKFN5ZpESXWlKdqVJty1uxedHMkGpgazW5U0P7LJ9v56xsmiS6u+gjZ+/jhKZFCX79Oy4LpdN91+/3JWDz258ElbTTx2n6f3Haf2eHdQ1MkhucmDJHMnn87kHX6Xcq+epNJknKldqotKMMSg+V3JFKueKVI+Axe24vZRTX3yeStOLxFsNuXBkHBdzdJyMV2Vzcu9Bw29po9rg+t0j62hwz4gWq6WANZAlXjsyv04+u5kz1AmHgKzJsb0HqTiZr64jL8J3OJ6il3YnAAGr3VcAxg8CIAACIBAKAS8CljikOz7cymGnX8tDGeT/nwQ46FMI1XEEKWB5YbaGOihJ/FgVjXKW/DlNMczRRFnAYsGKxaqvXHtoBRK/IrEaEbDcRgaZv4i63Qbo9/zr8jrp+vHbZ5WV9OtFwFI/n+2imVTOauSX3bh1baWNek+xilZzWlfm/FVs10vEm5WAJb7ptgEiQbjfV5R/9nSiKgQs/xjDkj8EIGD5wxFWQAAEQAAEQMCWAASsxhdI4ekOSmQrlN69FAXDJSoCVh+lKeFSwEpRgvhPLbytz6/C2wTjUmRrYObf5olyRIVvZym1s0jZT+ao8FiWCn/TQdm9OUqNLEefhD02VcD6+WS/4cJDhy/3xZX84Um68MhhKozPUmFsztGmWWgQkaJ39zD17h6i+RcnqDiRq9rgL6ZcODJLSqovYxtd4+hAnRXKMwU6s2+U0oNd1H3NIGWGeikz3KO1ZvY5mU1R77uHq3Wd2pqNciRSbnSJC/NhTsxLip2AJW1ljthf7pv953HweHhcUli8kSI+c7RbdtsAOQlYPJcyVxyhtt4UAZU/MkX5N6aqtvk9riMCg8yzedwyXhUws+BxSRuOSONiZUPXVuZGFcG4Po919e3byMlns22ONuZoOI4MY9bCmf+fX+P3uI4wqnMJopmGAM8Xz5vK2XwNAh4IRIEABKwozAJ8AAEQAAEQaHkCELAan+KpobWU3FCmvpcuVI1FRcDyMrpuSlE3pWuaxDFqysu4dXU58oqL1fz6Yd8PG6qA5VfkleqbCBxOPlsJWNLGaXuak+0w3tdFQtn1rZ7opzut1cqGU+SXnYCl61fdqin9mudG7ddJwLKLdvHzdFo1asxL5JWurZvTD4WRVV2JONNFFCJ6K4wrU3/gTDi9oxcQcCYAAcuZEWqAAAiAAAiAQMMEdA/f/KVESmF8jmYPjFX/zRECmaEe4pwrnNuGv/xwufDw0n/NpRFAQ8YAACAASURBVB22EFoJHMUfZaj442UxaPEbXVSZjc5WPquFk6EkZSwisOap1PA6i6MBNwIWR2KV3khS9qMLlOjV5/fye/yHzg3Q2YUsPXd6PeVLyeoWwigJWByxVfO5YRPV5Bcj6bfzHWup6+q1nszW4zPnU5p67KhjP6s/tPyZanxeXvzc5P/nqB5z5JUY8yJgdV69NN7Zg2MrouXks9zcv1sBS/1st7ovSL86AHJfMLdVx8vrxBzhJ20aEbCkP/N9yeh31zDJ2tD1ax6LKmCp43VzH3RcHKjgSMDg3Jm2fM5wbIwKIBACAQhYIUBGFyAAAiAAAiBg9+ux+uCu0lJPBLP69bpdBSyV1czO1cZJdijxIeBGwJq/q494CylH33EUXliFtwjKdkHuU3JgRUnACouF2k89UVSqDaeIJLux6aLVVDHGy+l4VkKOGoGl88murZoTyim/oV2Endq/lzxWEjXmJn+Wbpz1nGCoi1azE7DkPeRmatYVjn5BIJoEIGBFc17gFQiAAAiAQIsR8FPAMudJEUxhC1jd6RLddvlxOjnXTd8fX875EmQSd3MOrNJomvIPdFHmXy1S5tblhOUQsOJ34YiAZTe/zRKweH3zCYSPHttM88UUXTkwbQA2i1p+EhdRRvLR6Gyb8yz52b8XW80WsDiSiHOGqUXyOcnr7KfkV5LcTGobNQLLKveW5MDyQ8BiP8ynQKp5nczzK/nCnNaCmlTdqn4QApZVjjX1fiR5rFSfhDPbKOdLNPuDsWp+tNkD40ZkoSpgSZv+mzZXzZVmCjSxb9TL8kVdEACBmBKAgBXTiYPbIAACIAAC8SLgp4AlIzdHYoUtYPVnCvSZkVeNL/LmRNZBCljmGWexg0WN7N3z1Hn3csJqCFjxui7YWxGw7Oa3WQKW+CQ5sIKm20hEUtC+qfabLWDpxmuXR0r3OakKWFanH7o90c/sl24LoZe5cvvZ3iwByyqJez0+u91uaTVOt1FyXrijLgiAQDQJQMCK5rzAKxAAARAAgRYj4KeAxV+2uPBDuxS3Xxj8wgoByy+SsGMlYFE+QeXJBCV6KkbOq7AFrOfeGiT+kzJTzFAlhNRbnOepkitSsq/DiBqKSpHPHLM/lULJOH3PSzJ1dTwy3nMPvkq5V8/Tpgd2rYhMqmf88rkoPvNnrxTug/uSsn7PDuPUNRGweDu3+tlKyYThU9f2NbT2I9tp8vGjK3JxDT+wi9IDWZK2K3wuV4wT9KRfnlses1rMPqrvJTIp47RBpyLjPnn3c4Y/7JdaGonA4gin+dGztPHz11Gqv8NgxsVvAYvXPa///vdvJo6ykmthbO9BKk7madP91xv9mnmLgMVzyXOqzpETOy/vy1xZXRNe7KAuCIBAfQQgYNXHDa1AAARAAARAwBMBPwWsKOTAgoDlafpR2YaApYCl1A9bwHpmbAM9M34J5u0igXpOx/MCTxVWvLTV1bWK1FGjqGR7mpe8TmruLTVHoZU/9URv1cvALudXIwKWU9t6IoLNc+R0yqSbRPtqrrF6Gdq1sxLsgugHNkEABKwJQMDCygABEAABEACBEAi8svEyuiSVprUnj9T05jaJu/qFrJ4vDH4NFQKWXyTb1445eTtTsBOyIGAFu050CdGlV3NScXWrVz2e6bYf2okUbvtxs5XOabxW45bXvAhYOlHGT8HOTlxUmamCnZfTB1VbVvcj9V6mi85TfWY/nLZb6oRCu/ugm+TxbteVuia8cPfaB+qDAAjoCUDAwuoAARAAARAAgRAIQMDyFzJyYPnLsxnWIGA1g7p1n06CDgSsZW4QsJZYQMB6IjoXMDwBgTYiAAGrjSYbQwUBEAABEGgeARGwVA84IquRCCxpG/bImhGBNTW0lpIbytT30gXtcJHEPeyVUH9/URSw1EMJ1NF95dpDxkuffWFH/QNHS3JKAO8mikrFqIvesoqUUSOD3GwhVPtTT8eT960SwMt7XsQvaeO0/bCR5RTFCCwZj1NuNbvth40w0bVVWSECKwjKsAkCzgQgYDkzQg0QAAEQAAEQaJgABKyGERIErMYZRskCBKwozUa4vkDAWuLtR/6sRmYOApZ7ehCw3LNCTRAIkgAErCDpwjYIgAAIgAAIXCQgX1Re+L2fa5mcWkjTD8920nfpLXqC3qrW0yWAb+TLR1ATc+e2Y3TlwHRQ5h3tIgLLEVFkKngRsMJyGhFY/pG2i6JyErDECzeRWLrk4mLD7nNSlyPJbsukRFGpEVhufHVqa/ZZzZ/l38zoLXm5p9htIZQe1PGqUXL1HEhilwtS+pXoLXV+rcbnlTOSuIexEtEHCOgJQMDC6gABEAABEACBEAiICPXdj71s9MYJ3dUiAtbTdIa+RxPVt/k4dD7G/acf/p8rmhjHeV884j2EIdh2kU2VKZss0W1bTtDW/pmmuQMBq2noPXccJQGrUiGaKWboyFQvPXpss3YscdxCyF/QufB2Y19KuUKlyTwlMilK9mW0Ju0EndzoBJ3Zd4gGbtlCq27dorXBggeXTfdfX/NZV84VqZIrGnbYHn9OpgeydPLu52o/Jy++UimUqTyzWH1f2qoOGJ+tF0tpepFOffF56tq+htZ+ZDtNP3WcpvcfN/6fX5Mi/Zrb0kVWUmfy8aM09dhRGtwzQt0j66ptZZzyAtuQfuU1HiuPOchi9t3r/FqdfigCloz35N6DxtqRflaM++K9jLlwfbVwO+apcjaLYIlMkpJ9HdV1JQIW3z/5XrlibmR+J/PEflUKJSrPFLR45fpZ4bsyv0HODWyDAAgsEYCAhZUAAiAAAiAAAiEQUKOozm3aWtOrCFg6dz5KozVvNSsHlurIjUNv0Y3Dp0Mgad8FBKymT4FrB6IkYE0XMnTf6HZH3+MoYLmJDHIcuKmC21MI/ezXThxRfbeLIqonn5TuZL0gonvMY1E/250S7XuZQzd1u6/dQBxlpiteIrDc9Od0L3OT40z12ctpj05rw4/oLTccUAcEQMCeAAQsrBAQAAEQAAEQCIGAKmC9vO5Ko9eNnUUqVYjO5NN0fjFJr013aL35Mzpa8x7/2rze9Gv1+aE0nR+uje4KeojNFrBKo2kqTyQpt6eXKpP8eIMSdQKWAlY+QYUDGUoOlik1Emy0CW8XlLJYTtLoudU0W0jTybluLToIWGREqZzZN0rZbQO0+vZtWlYsHnCxE0HcrlG2lcymqPfdw9UmswfGafbAmOGHEWFzsaj9sTAhpTiRo/kXl6Nb84cnjYggtbAQIiXVlzEigkTg6N09TL27hww7bI+jvziyy2qcpZkCTeyr/eHBzbg5us382Z4/MkX5N6ZI57Mbm17qyPxmhnopM9xT09SNgMXzw/MkRVhZ+aETsGS8sz8Yo3K+RP03rYyQ5Ig45s+2VQHrwiOHDV7M0S5akP1xErDU+eW+vG4/9MLfz7qyns3Xgp/2YQsEwiQAAStM2ugLBEAABECgbQmoAtY3aGmLxG2bZilXStCTp2q/INQD67k7+umHH1r+Yl6PjXraNFvAmr+rjwpP68W/esaENsESsBKwyqeTxFF0mfctUve3gt2Kaj5JUHeqpkoAAlawa8LOuk4s0J0GKLbMW8x0ETpqv1bRNqrAIf3Wc4JhPRR1eZ3qseWlje40QDcCltqPHSudgOUmx5nbqEC7cTsJWFZrJC4CFvJ2eVnxqBt1AhCwoj5D8A8EQAAEQKAlCOgErO39i1SsJOj1GX0umRdu7aN8Z4Kuf9g5Ofrxq7PEf42U13Z3e47iaraAVXgsS6U3krT4jS6qzMY7Aus8LeXoWUOtLchFScDiHG7XbzhDZ/OddOjcgPbyaXcBi7exJbvStnmrGvns0bXlfssLRSN/FEcD9e4aptzL52jh5XNG5JM5YkpscBu1GG13X2z7s3PVt6ceP2rkl2KxhsvqDy39lwu/zv0WxueMiC8pbCcz1EPSNohxm212Xr2Wuq5eW9PNhYdrx+mnL2q/nLOM14AXAYu5Fcbmqm6Jz8Kb/60KWMb8muZIHZNqg9+X+a1n/Owf+ynryskG+y5r0qlus94XvtVrIuC10qxxot/2IgABq73mG6MFARAAARBoEgGdgOXGnT/7i400uyZFn77lpJvqDdf59j3r6Mi13hI+N1vAkkG3Qg6sI7T0RW8r+ROV1/CCCMhAlAQst0NsdwHLKheVW3aN1LOKotKd6Cf92OXgcjodz+xr1KJsdKcfNsLXS1v1XmaO7vEaRWXX1mmOzGvCKX+Wl/GFnWvMi29e6yLyyisx1I8DAQhYcZgl+AgCIAACIBB7AupD/6/Q0ja/36PlE7jepHl6kt6i62g1XUurq2MOW8A6ta2D5gaS1f5Z0HIqELCcCDm/f4qWToubo5LxXxawSlShM5SnLKVoDemj9JytR69Gs3NgmbcQdqdLdNvlx6uQDp1fbRmJdeXAUhSkOX9W9Miu9Ejy3lhFKTn5ruaxCkvAkn7FPx6D5ITifFecn4kjZgrjs9VcVOpYJFeSLjqLI3gkf5bkZrKqK/mVnFiF9b6a80vGqTILyp+ukUHi0/5kXfktYHHOKs5dxXPLcyzj5fxnnAdN5kgELBb02B/2y48CAcsPirABAsERgIAVHFtYBgEQAAEQAIEqAVXAkjckFxb/+6c0TZyo/QN0Cf1LuqTaNmwBS522rz6+yXEmIWA5InKsIJFXUpEFrCJViIXNHkrRRvIWFefYYZMrNPsUQqscWILkmbEN9Mz48jXYZFRN697LNjE/nTRH14hdp+getX+70wghUvg3W34LWLpcVHIPFc/9POXSTANrw7+1AUsgEAQBCFhBUIVNEAABEAABEFAI6ASsAcpQH6XpHvolrYA1N5CiSpKo9/xSZE7YxY2AxTmEsskS3bblBG3tDzb5tt3447yFUBWw0pSgFCUM4WqBSnSWFonXC/+dpjzlqESXUpdRJ44lSgJWIkHUly7Q1lWzRiRWvpSkfDlVg/W+0e1xRF23z7x9jguLR1y8RGBxwm4u/NnntoztPUjFyTxtuv/6FU3YlipgcV6qSc5dNbNonEInRfoTn/l1Pmnw5N6D1TqVXNHIbRW1Ir4LOzf+yTjNzJghswyjSP+8VnRztPYj26lr+xo69cXnqTS9aJzeZ15X7Du/zu9XCiXjpEvOtTVwy3KEsnHSZDJBwkbGa55nP8YLAcsPirABAsERgIAVHFtYBgEQAAEQAIEVX6r4QdsqsoAFia/SVVoBq9kY3QhY4uOd246RbLNqht+tJGAxPxaxLqNuY1shbzHkbYSc3J3/n1/j97hOHEuUBCzhx2uX17CumKO24si8UZ+9CFj1RMjIKXVq9JRVvzqhwSryKmp5rHTz0EjOIvO4mzVeVcDS5bFSx8++qz67Pf2w0TWttoeA5TdR2AMBfwlAwPKXJ6yBAAiAAAiAgCUBXQSWuTLnxTLnxJL3wtpC+Nwd/fTDD/XTb917lra+sEBqv26ErGYJWPN39VHh6Xie2sdbBHmroFr+Mx02oq1Y3FSLKmDFMfF7swUsYWolSsmW2IcOXx6rfFdBf/wGJWBx/ibeOma3TUwncEjboMcO+/UTkMTzIlDaWeIcV1xfLWpbuy2i9XtKFEcBSyf2CQerH84aYYS2INBMAhCwmkkffYMACIAACLQNAQhYwU41BKz4nVwIASvYayII6xCwgqDa+jYhYAU7xxCwguUL69EiAAErWvMBb0AABEAABFqUgBsBS4YuD6MSCRU2Ej518Mi1nfR7Hz5l5N1yE3klPjYrAuvIXR009XQyVlvqJIpKN7/mCCzZQih1v0Pj9AbN0cfpcuqltHFiIZc4RWJFWcAK+5qLS39+CVhqom4ROIQDIkb8WRESzRSVqCK7+6BTkn61LSKwlteIKmC5iXTzZ4XBCgiETwACVvjM0SMIgAAIgEAbEoCAFeykQ8CCgFXvCmv3vFZeuEHA8kKr+XUhYHmfg6iIfV48h4DlhRbqxp0ABKy4zyD8BwEQAAEQiAWBegQsNS+MRCV8g0YCHbNEYNXTCSKwvFNTc2Bx5BWX/4u2VZO4i9XztEjnqUBqBJa8L5FY3r0Iv0VUIrB45NOFDLXbCYP1zLgXAcvKvuSxUvMcIY9VPbPhvY2XrXzerS+dVsn3OjXCzsmWVTSVmgBebNRzOIBd/81KeO/ExMv7ELC80ELduBOAgBX3GYT/IAACIAACsSDgRcCS48PPPfgq5V49T5se2EV8hLg8uEtS7/SaTkqUiXomS74wWOxK0GJXkr7/kVV0YnuW5gZSVEl6Mx0VAcsqKbo6Eh5aMgIn+OkErP9IV1CKErSROg0v+f9VAetO2kw9lDK2EXLhUwm5xOFkwigJWLOFNP3pK1dQsZKk+WLK26Jvo9qNCFgsFBQn8zS29yB1jQzS+j07quTO7DtEudGJSJNMZJKU7OugSq5I5Vwx0r7qnBvcM0LdI+vo5N6DVJrM+z4Gvk/x/Wp+9CxN7Bt1bd8QsMqVFT5NP3WcpvcfN9YJr5dGBCxjrOXagzLYZml6kU598fmq/TjOLwQs10sNFVuAAASsFphEDAEEQAAEQCD6BLwIWDIap7ww/NDPOao4V5UfRXcKoRfbURGwJBeUne9rKENrqPknF+oELI60YyGO32eRioUsVcCS8XG0lrnEIRIrSgKWsPv5ZD/xyYMo1gQaEbDintcqatvxWmmN8r1Md8qkOs56IrDsckKpubewhbCVVhbG0ooEIGC14qxiTCAAAiAAApEjEJSAlT1fpPd8+HVKDXRQdttAQ+N+bXc3vbq7m379kWnaeHiRntyzhhb6vIVgBS5g5RNUOJCh5GCZUiPLURCSA2vr7gxlskSvPV0wWLDww4WToCezRH27y1SZSFBpNE1ZSlL24vtmcNKmIZguGi9QmUpUoRlDplqODvhvdMJo/SnaZrx/hvKGnyy4iYD1YzpPnAReyr+jS1f0yGJX1IsIWHyCJJfub8003WUIWPZTwFv9Un0Z4kgeKYWxOSqMzzrOHbeNc+HP19W3b6PZA+M0e2AszkOJnO/8Y01ppmBEbXEUF7Pu3T1EvbuHa3y1ErAqhbJtBN/sD8aonK+NVOatjsm+DK03rec4zi8isCK3pOFQgAQgYAUIF6ZBAARAAARAQAgEJWDpcso0i3zQAlb5dJJmdq6mzPsWVwgeImD9ykt5ymyo0D8NLQk45tP5+HV+v/B0B7FoImKQyiqs6CU5hZC3/Zm3/NmdJNhsn/1cVyJg+WmzUVsQsLwTjGPEivdRokVYBNT8aGq/VgKWUx4ruf/qbIU1tqD6gYAVFFnYjSIBCFhRnBX4BAIgAAIg0HIEOK9VsnMpTxGXCw+/7jhGN1sI203AqswmKP+NTkq9vUyZW5dzuIiAteGjRUr2EuXv7zL4brx7KUqLE5+neon4/fIbKVp8rINyVKYclajwWJbKbyRpkopUpooR6cQl6O2FHHlVoDINUGZFLi4WqaRwji5+Xwr7y39qCdpXx8VaR4Xs3fNGq867c8Z/F+7vokQvUfajS/9uRoGAZU2dRSpdyb18jhZePteM6UKfLUggM9xDvbuWI684CotfkyICFos2UsoLRZp67KiWhnr/tapYGJ+LbWQdBKwWvBAwJC0BCFhYHCAAAiAAAiAQIgE5bclNPhgIWO4nRgQsaSFRVG6ifDgai6Oy1FxUYUVi6UbJkVgcmSWJ2d3TiFdNcy6s5IYy9b10oWkDgIBljd7N51XTJg0dtzQBp/tgI4M3n37o9eTERvr1uy0ELL+Jwl6UCUDAivLswDcQAAEQAIGWI+BFwOI8IJwPhPNzcJ4O9UukOfGt07aLsEAGvYVQN4650SQVTYeY8aY8LrzV0KlwPqzyRJJe25OkwuRy7WYLWJy3ix/Uui3ydDmNqZnvS94u8YFPSOy7OB9WfkVRwNqxdpJ2rLlA3x/fQCfnlk52bOXCOZ0494+u8Jd7FBBoBgG5D0rf/Tdt9s0Nvm+WZwp0Zt8opQe7qPuawVjmOIOA5duSgKEYEICAFYNJgosgAAIgAAKtQ8CLgCWj1uXPgoDl77r46c4sFU7zo9FSabaA5e/owrMmJydKj06nPUZRwLpx6C26cfi0cSIhR2W1ekEeq1af4dYZnzlqyo9Rqdvw43gtQMDyYyXARlwIQMCKy0zBTxAAARAAgZYgAAGredNYmEjQa+/voP4bynTZnyydUmgu/D6ViVjI4iKJ1aO4he805Y1cWJdSF6WMOK1oFRaxpPA5lpzLS+czBKxw5u4XH/6etqNKrkjl3PKpnvV4xCcTdo+so5N7D1Jpcjk/XT220CbeBLpGBmn9nh00+fhR29xU9YzSTwGLr4lUfwdt/Px1lMikjEjnOApYya40JbqWc2wa1195+TO4Hs5e2uDa90ILdRslAAGrUYJoDwIgAAIgAAIeCEDA8gDL56ocXcXi1Kr3lWnrt/RbC+UEQ+k+ipFYuhMMfUbmqzmdzxCwfMWsNRZ0HivJVcSiAEe1oLQvAdnSHoQY5KeAxddEak0ncZSzlCB8bvWVgGu/1Wc4WuODgBWt+YA3IAACIAACLU6gEQFLRWP1hVTdShA2zmblwGpknJIA/ldeylNmw/Kv1mYhqx2SqTfCUNpy4nlmyCx1ZWbnaiqfTpKbBPt++OTFhiRx120h/Mq1h1aY++wLO7yYD7Su+sVbth5Lp0ELWIEODsZB4CKBRgQsqzySAhZJ3OtfYhCw6meHlt4JQMDyzgwtQAAEQAAEQKBuAhCw6kYXWEMIWP6hhYDlH0uvliBgeSWG+nEkAAGrdtaanQMLAlYcr6T4+gwBK75zB89BAARAAARiSKAeAUuGqT64NzMCqz9ToM+MvFqdgWfGNtAz45dQHCOwdMtoamit8RaLMojAcnextYuAFXbklXqtPzx+KaWTA/RLqx+gZ5/8MX3ig5+rmSBEYLlbs6i1koBsqYtaRJK6nr3Mm2xrtRO/ojZeL+NrVt1mC2fNGjf6bS4BCFjN5Y/eQQAEQAAE2owABKz4TDgELO9zBQHLOzM3LSBguaGEOn4QgIDlB8X2sAEBqz3mOWqjhIAVtRmBPyAAAiAAAi1NoFUELKdJ4ugsjtJqhaImdecxraEMraGOVhier2P49fwfV+3NLI7S8Zl91X/P39VHhac7qO+lC5TcUPa1X7+N6SIKJfJKcmH5HYnlNoE0IrD8nnG9PTXJt9R8694XiKN2UMIhUE8ElsyRm7ZxjsDyQ0iSbYDqbNrlzpN+cS2Ecw2glyUCELCwEkAABEAABEAgRALtImB94qrXqTdTjLWIxacWcnntNzqIykSViSQlOtOUWd1NfbNl6puJtggTxrIu0lLSe95iycVOwMp9speKz2aod/8UJQajya5YTtB8KU3PvTVo/N12+XHaumqW+tIFSiSIIGCFsaqi0weLV+mBLA0/sKvGqYl9ozQ/erb6Ok5eDHbe3IhQ4kE5V6RKrkjnHnyVcq+ep42fv45S/cs/OPC8qqXdBKxEJknJvmUmaz+ynbq2r6liEUa8/ZKL1fqGgBXsmod1awIQsLAyQAAEQAAEQCBEAu0iYAlS9dS2EFE33JVEXr1zfME4NY9Pz1t983b65e/8ezrx5f104t79DfcRdwO8ZZDLVupxFLDiMFY5hVD1VSIKIWDFYRb989FLwnCc8ugfdytLXgQsiWTUJRe3mtd2E7C6r91AzEeKGkXlJecmIrCCXfuwvpIABCysCBAAARAAARAIkYA8ME4/ddzo1csWFC8PlCEOybarOAhYc6NJKk4Q9e0uUzK7PBw+ndAQZ761WBWwut61iQY/eyNNPPISnX3kpWrlbkpdjEGKCvlw/DhFC0ZHm9+XXGL18Y8RZSuU3l2gXPEYTeT+NhxHfOrFScB66PDlRk98WAGXZm4hrFAf5UqfpBM/PUHf/9r36Bevn6A3D5+skpAv/PIZw18yUbwRsBI6CmNzVBifpey2AUoNLH9gQMDyxtZrbTcCVmkyT/nDkzR7YJxmD4zR6tu3GfM0+4MxKudL1futeV4rhTLlRieMdhceOezVLd/qZ4Z7KDPUa/jB4/BSencPU+/uoeqalKT1LFKpRcbLXJiPFB479y1FnlXEhvnzQzgjAsvLLKGuXwQgYPlFEnZAAARAAARAwAOBeiKxIGB5AOyhKgtVU08n6VdeylNmw9KWOLVIBNYclUhEG3Ody6i7uo3OQ9ctU3XV+DljLJz4nvNbcZ6rOBYnAUsdUzMFrOlChu4b3U7Xrt9C91zzm/S1Lz9EX7/3oaqL8oUfwkr9K9FKwFKje8Q6ONfP2U1LNwKWLopKvRbM88pb42SbnBs/gqrjhxikRpxZrV+v47WLVvPD56B4wm7rEoCA1bpzi5GBAAiAAAhEmIAfAhZ/kSovFGnqsaPVkarJXJuNIA4RWOcfS9HCGwna8NEipXqtiVVmE5T/RifNvEF0/LEKdVGKumgp6ojLAGUoGaEYrPO0WPWNPeujtC9LYYaKVOCEYBfLjns+YPxf9u5547/5+7up0pOjmbse86W/sI04CVic3J3LjcNLybshYIU9Q+H2x5/TnE/J/Bmbe/kcLbx8zth+ZY5wgYAVzNxwdFFmqIdW3bqFkl3Wn2MyR4XxOSPyqvPqtdR19dqqQ9JW5iiKApb4PHtwjDjKz03hqK3eXcOkrkmJwPJDwOJnCinMn1myfwbndyxxxhZCN7OFOn4RgIDlF0nYAQEQAAEQAAEPBPwQsLg79ddUCFgeJqGOqhypxRFbUT+FUHJT8RB7KEUbqTZpcR3DN6LPOApNyp35r9eYKZYn6X9f2FuP+aa3cRKwopQDCxFYwS8X/pzWRaxAwAqeP/egOx3P3Lvb+2CUBax6aEoeK13OLz8ELLNfOJGznllCG78JQMDymyjsgQAIgAAIgIALAhCwXECKUJXKZIJye3qpMJEgzpmVpxLlqUyrqYM6TZFYUXGZBazsmh7659+8i3I/QGUVngAAIABJREFUOUETX/m+L64tUJlKVKFt37yD0mu6aebBpbxKnNheSisIWDvWTtKONcvbIEfPrabFcpJY4OIikYWIwPJlWUXWiJWApeYbEudbNQJLxivjPLNvlMozBd/nLNmXofV7RmpyUXkRsCSvE+eS4ugkNa+T5IOT+y9HDklOKN8HFKBBYcU52HjMYQlYfHJh18hgzcjqydsVIB6YbnECELBafIIxPBAAARAAgWgSgIAVzXnReSU5sOR93qJ3ngpGZBNHOEWtsIDVvXEV3fbmfXThyVfptQ/+ua8uvuvNP6SOjf30o+wfGHZ/Pf/HLSVg3Tj0VnWbIA+Mc01xxJMUCFi+LqfIGrMSsHRRrq0qYKnjle1pfk+aRPeoeay8CFhOJ+uJz/Xcf/0ebyP21EiosASsRnxGWxDwiwAELL9Iwg4IgAAIgAAIeCBQzwO0m+0A2ELoYRIcqv5059IJY5zcndM+lSeSVHw2Q7lP9lLYAtY8legMLZ9MtZ6yxCcf6kqRKpTd2E+/+ubnqwLWJBWI/5zaWtmUthzRtfG9v0yZ9X2USCVo8dS0UZ3FLC5LWwcrVCxP+TcRIVqSLYQiYD16bDMdmeqlmWKGKqb8/hCwQpyUJnYFAYsoLAGLkgnjVMdKobQiwstJwGJBLdXfQRs/fx0lMini6CQpkptp+IFdlB7IVpO1swDEhbce1ls4MXxxMk9jew/Wa6KudtyvsBIDImDx2JkBs2AmMk5zR16TuNflJBqBQIAEIGAFCBemQQAEQAAEQEBHAAJW9NfGPw0tfcl55/jyl5zC0x00f1df6AKWevqhm8gvFpU4UkoisBoR3aTte77zu7Tp5ndoJ++Vcx+O/sTaeKgKWA8dvry6bdDcDAJWrKfZtfMQsEIUsDSz4iRgceSbU26mIE7ktMuP5nqB1VHR7mRMMWd3YiMErDqgo0mkCEDAitR0wBkQaE8CbkO+25MORt2qBOoRsISFua3uwT1q3OJwGqEXZuP3p+nU/WkSQecnl32pGo3kxY5dXfM2QKl36MtP0KF7n9RuXZTk7Vupx4iKYgFLyokv76cT9+6vJmK/jLop7fLkRFXAkvGatw5yPxCwGpt9iaTQWZFrn68nJHFvjLWb1m4ErKC21LnxL8g66rOZ9BX2eHUCllVCdvHR7XXUyLbPoAUsVXSzEq5043UjYKkJ4FXxqxE2Qa5L2AYBCFhYAyAAAk0nAAGr6VMAB5pAAAJWE6D72CUErCXBDgLWDh9XFVWTMUPA8hVr3cYgYF1bww4C1hISCFh1X1ZoCAINEYCA1RA+NAYBEPCDAAQsPyjCRtwI+CVgqeOOWg4s8a9VIrCmnk7Skbs6aA1laA11aJedWdhhoYcjlrwWVRzi9k5RVBKBdWf+69ruvv/Br9HJJ39W8z5HbXFhGxyZxRFaq2/evuKEQbWRRFxdtfYvjLcQgeV1llfWdxs5ggisxji7bW2OepHk4qHlhHLrZED11AgdiYRqtoBlF3mlJoBX0dhFMTm1FVuN3LvdTJUacWY3XrGnfm40EoFl56Mu0b6OM6K43Mw46nglAAHLKzHUBwEQ8J0ABCzfkcJgDAg08hBs1xYCVrCTDwFrJV8IWIjACvaKa651CFjXVqMCIWAtrcVG7t1uVjMELDeUUKedCUDAaufZx9hBICIE/BSwmvWAFRGUcCOGBOrZhuDmAdop8a3fqOTUNjXpdZwjrySqyMyKI5c4gklKPTmwLr3n/XTp595Pr33wz40E62qxirxS60gUlZrHyi4CSxe9JW2kD47E4lMM36R5I2E7j1EtfNpgsTxJKqNWicCS8d657RhdOTBN941uN3JOSQk7ibt6zT88fildOF2ij+8cpxtu/jX60+98mb725Yfo6/c+VPUxiMTVfn9uxMGeU4LwOIzBDx+b9Xzl5l4micl1UWNexq+LgnRz3/XSj9R1yjVmFzUmNuqJwKrHV7WN/GAmpz36YRM2QMCJAAQsJ0J4HwRAIDgCF49M7h5ZR4N7Rqr9NHIjZDts7+Teg1SaXD5yPrhBwDIINEag1QSsR49tpiNTvVUonxmpFWgaIxZeaysBa+zJn9GzH1zennfDdz5Owze/g/7xsi9S/tR01TlzcvREKkGZ9X1UzhepeH6ehj55g/F35CMP0+Qzr1fbsGjEZXf+/uprlVKZcmdmKJVNU3ZND5Vm8lSazdOBj/wljT/zmrHNz9yXiFF3vPlVSiQTlNnQV7U1/ifPEv+NXbhAcwt52rJhPaWTSUOo4jJ/asr4LwtYJarQCcoZY+MxquWNqS9QsTxFv7T6gRVvtbqA1Z8pGOP93asOG/9lYcvP4vbLs1nA+rUb30n/6cFP0f/45pP06INP0tSFGVpcWCQIWP7MTGogS5se2FVj7My+Q5QbnfCnkxhYcSVgXXyuqxRKVJ5ZulYaLV4ErK6RQVq/ZwdNPn6Uph47Sm7ain+VQpnKM4s0/dRxmt5/3Ph/fo3nn5IJ2nT/9UZV3kKplkQmScm+DqrkilTOFd0NWfMMLI1lq2ZQAlZdPisjW3XrFhq4ZQu127XgboJRKygCELCCIgu7IAACjgTwq6YjIlRoAwKtJmC10pRZCVgcMcWRU1J++Tv/3sgT9ehln6kKQPye5JPi/5fTANW2Kiur6CkWldi2REK5zYFldQqh9CeRX3xCIfsm5aHsklBl9t0pB5Y6hlYXsIKKvBKO9QhY0vbj99xJv/u5O+kTH/wcPfvkjyFgtdKHUQTG4kbAcpsjyctw3IhQEoGl2nXTVtqoOc7kx1Q3QrDuRD+7cTqdIBy0gFWPz17mDXVBICgCELCCIgu7INCmBDLDPZQZ6qX84UnHCKhkX4bW7xkxft3KbhuoErvwyGGjPf+yyb9+oYBAKxNoFQFrx9pJ2rHmguNU8XasuBSzgFWpFGi28ArN/uQEnfzK01Q6mqLyGykjwTmLPD/8nW9R/vxcdUvgRuo0hjlHJUqv6aZt37yDcj85QRNf+T51bRukzisGDVuF0zNVHFYCFttk2+vedRn9ymf/Dzr7yEs08chLdPgnh2ny9GQ1Aov74ZK6eZvxX+4/s6abtn7zjhrcJ7/yPZr5yXHDJ/ZNyrezn6i2TXamadWNV1DfuzbTps++t1onVzxmRF71Zq6iRGJ5S51UiLuAdXKum74/voHOLmSNv/cMnaZNPfM0em41LZaTxFsKuXz2BX9zXwk/VcDiiBKOlOi/abNRhb9UczFHYElbCFhx+WSJh5/qs9nq27cZz2oT+0apZIquYuFHijzX8TMcP8v5UXQilLlf9of9kiLPouKznR/8nMnPm+Jz7+5h6t09ZPjPr3Fkf6ovU732rGwxF+5r9sA4zR4Y03bHohEX9j1IAUt8Vh3h/tXtluwv+y0Fz95+rFrYCJIABKwg6cI2CLQhgXr2wzvt/29DjBhyGxFoFQHL7ZTFKSeWWcDifE+c90nKwv1dlL+/uypgyes/yv7BChTm/FI9lDKEJV0OLDcnCIpxNQeWl7a6uTL7LlFjat3jM/toZnHU2DqYTi7/8CD14i5gyTieGdtAz4xfUh0+b4WV7YP8YlgCli76AwKW208c1KuXgO7ZTLUX9ElzOgHLrl8vh5noorfq5WbXzpxHK0gBS+eD+XkDz95BzDBshkEAAlYYlNEHCLQRgc6r11LX1Wtp9uAYFcbmXI1cvYnyr0F2bS88vJwzxlUHqAQCESYAASu6k2MWsMqVBTqb+3uaPnyGjj3yAq3LbKd16ato3R07jYgqKbzFz1zO02L1nxlKUh+lKUcl42/hkZ9R6fA5Ix9WqjdL5rrSKNPXSds/uRwBJa+LgDVAbJUMUYzLjs99wDPQQ19+wmizhjqqbVN9WcMvtYiAtbbrJkpSJ63vvnVFlVYRsI7O9NKx6R46dH61EYkVBwHr2t076F27d9D/fOT79Obhk9hC6PlKQAMzAY5i6t017Agl6GcyEbA4p5U5v5S532RXmlbdsoUK43NGBJSfAhbneeKI1HrGqbZ1I2A5PQOv/tAVNXOi23qsVmQu5YWikR9MJ2DZcXZcDKgAAiEQgIAVAmR0AQIgYE9Adwqh/PKstg761z7MFwiESQACVpi0vfVldwrhjnturkssYg9YMDp075NGNBZHZelyUXHd7o2r6LY376txXAQseePO/HJieW+jJJLcV25siIAlfbTaKYQqOzlVMw4Cluq7m9w9XtcK6oNA2ATqyb3lp4DVyHWktnUjYDnl3rJK6u5WwDLPXVQi7MJeT+gv/gQgYMV/DjECEIg9AfUmKvmzZn8wRuX8Ul4Xc5FcIPyan3kWYg8SA4glAV7/yWyKet897Ho9ywMs59FQc38IBC/Ja8MEF6cthH0dS6ejbu7bU0WUOz1N537yC6q87ZjxN9j1m9SVvtwVQs55deIrT9P46+M0dniMrvvsB2jDuy6nib9+kUrzi8Z2RC4nn/xZ1V6qM00bb/zlGvsiYG2gLCUpQe/LrzwN0NxA+h28fSetu31njS3pjxPFOxWdgMWvc+HthXEukgNLxnDFqhka6Fikrf0zlE4unRLJJegthJK7R+6D5nw/3L/VFkKVeyNfvOM8h/C9tQhwfinOx8X3SL5XSh44vsdJ4WdFvlbSg13Ufc2gkYuVI8jUIm3ldbahbiFUc2DJdSTXoGrD3Ieurfzw6kXAkvx36rVvFrDkGbgwPut614P4q8txpjKzyzWmW2kyN3asWmuVYjRhEoCAFSZt9AUCIGBJwOs+fPPNW06NAVoQiDMBryc3ma8BP05fCpNdnAQs4WIViXVm/jGayD1uiFsidDlxlFMIeavgeSrQe77zu8bpgj+57Eu0eGqafj3/x04mqu+rObDs2kq/knvLdScWFXUCVqtsHfz5ZD9x1JUUTtpudfBA0AKWU9QJBKxGVjHaxpGALpqJx6ImJteNT43gt4qAVnO5qrsB3OTe0kVReRGwdGMI6hnYzY9ebvOFmccZx7UGn6NNAAJWtOcH3oFAqAT41571e3bQ5ONHjf3xYRU+YSnZ10EDt2whzhcgRY4QVv3gL/tSuravobUf2V7995l9h4zTZPwo/NBiLuwPCggEQQACVhBU/bPJycrTyVX09lVfqBrlnFj8l0r0WJ7GZ9X72JM/o2c/+HW68pM30pWffC9lV3dTqjNjnERYKVeIE6e7La988EE69+SrdM0//j51bOirtmUxjAtvS5TCOU+KF+aNPFuc26qRohOwOMk9F3Oi+0b6aVbbYjlB86U0PffWoPEnAtafvnIFzRbSVbemC7UnMPrhs2wFgoDlB03YiDMBfh7k50Ipp774PJWmFw2xiovVDzm6H0TH9h6k4mSeNt1/vdFWnueM58lyxTg1W56Bp586TtP7jxvPlvyMyZFKlOSvzEtFBCx+RmSbbFsK5+JKdKWrbXU+sw01iTs/d/Pzd3lm0TiBe/iBXZTmvi8W8dkQ3SbzdHLvQaoUSlQ2nQjZyHzzCZKJTKpqQn0GNt64yEoqqd8XxOeTdz9nVJG5asQvtAUBlQAELKwJEACBKgG58dezl94PjGrOAp2AZe5Llz/LD3/UPAPIveUHVdiwIgABK/rrgkUsPnmvkcJb9ThyqpH8WdL/ax/8c+LIKjV/lpwk6CWay8uY2iUHlpxCKALWfaPbKSjRyswfApaX1Yi6rUzA6ZnQi4Alz5N2kUHqM7DT6Yd2+St1ArRdBJb67K2L/Konb2Y968Qq15ZqR+cznpfrIY42bglAwHJLCvVAoA0IxFHAaoNpwRDbgECQApb64B42TtkyaN5y1Z8pGKe6xaXwFkKOMLKLLmJxi0WuVi+tLmDpthCGJWDJ+pEtSOp64q2DUi6cLtHHd47XLDn1ize+TLb6Vdma41O38skorYQV3RZCdSuf2DBfE+r91ykBvDmfldqv0w/AdgKa237Nsx3mc7sbQcvND8+tuVoxqjAJQMAKkzb6AoGIEwjzRmiFwunXtojjg3sgUDcBCFh1owulIQSsZcwQsEJZckaiajV5M/cMASsc/uil+QQgYK2cAyshOszndghYzb8m4MESAQhYWAkgAALVffjNTogOAQuLsV0JtLKAJXNqjsSKWwSWm3WJCKwlSnFP5u6UxD2o5O3qGnMSsNgPtwc4IALLzRWMOlEh4CTKWKV3UPNJyVjcRGBJXV3+LHlfPUmQX9dFYDnlsDOz9nqQURTmKY4+R4EbfPCHAAQsfzjCCgjEmoDXL89BDRYCVlBkYTfqBLxeg15OIWz2FkIIWFFffd78a9cILKEEAcvbekFtEPBKAALWErEob8eDgOV1VaO+nwQgYPlJE7ZAIGQCfh1T6/XLc1DDhIAVFFnYjQsBpwd3GQcErPBnVE3ifmb+MZrIPV51RCKw1Agk3n7YSkUnYMU98krmCBFYrbRaMZY4EfD6LOomIbpTPjg32+KEoR8RWG7600VfRnkunRLeR9l3+BY/AhCw4jdn8BgEqgTkiFs5rpbfqOdIXa8PDUFNgSpgybHH0h+O4w2KPOxGhUA7CFicDLs7U6TfvuIYpRNl6k6XooLf1o90chW9fdUXqnXOLvw9ncs9RalEDyUSGeM9rtOqAla5skD8Nzb7TZotvFLlIAJdqwpYt11+nLaumqW+dIESCaKgI7DKuSJVckU6s+8Q5UYnatak5MDCFsJYfGzASZcE+Dk01d9BGz9/Hc2PnqWJfaOOLeUZmCOV1C2E6mmepck8UbliRDWZixtBSdrKs7b0y3ZkC2HXyCCt37ODpp86TtP7jxv/z6+pUVRW/VUKZSrPLFbd0l37jkCaWGFwzwh1j6yresDzwUV4m5/fE5kkJfs6jM85/rxDAQGvBCBgeSWG+iAQQQLmG2I9eayiKmCpqJHHI4KLDy75SqAdBCwGNl3IEAtZVw5M053bjvnKMGxjm/v2UF/HSLXbVhWw1IgzGXCrC1gyTj41k3O3BS1gOZ1iBgEr7Csc/YVBgJ9jdTnd3PTvJGDptuO5EbDstuGrPjvtJLDqr57ndjdMmlnHKk+Z+OP2OaeZ/qPvaBOAgBXt+YF3IOCKAIfuSilO5Gj+xeVfbfOHJ8n49cimJPsytH7PCHHdC48cdtWnVOJfUvhXJu6D2zdSencPU+/uoRoTfLPjwmHVXKxOZmqkX7QFgagQcPtgJw+HfC2U8yWa/cFYzTWoJpF186AeJAcRqli0mi+m6NFjm2lTzzy9Z+h0kN0Gbnuw6zepK3059WauMiKxVAGLBS5d6UpvoXSyP3Af/ehAJ2DJ+HhrYSsUdQuhjIkjsTha8KHDlwc6zEYErMxwD2WGeqn7mkFKD3YZ92a+R+PHn0CnDMZ9IMD3q9JMwTbyStaz1TOgPMemBrKU3TZAch2tvn2b8e8z+0apPFMgeZ4UG27ui0EIWOYx1PPs7QPyQE3I9xL1+Z075c8m/oyaPTBOswfGAvUDxluTAASs1pxXjKqNCaiJFYPeSx9G9JbdLzltPNUYegsS8Cpg8RdT3TUYNQFLpktOI2y16dPlwLIbpxq9FWUmOgEryj7X45tOwKrHVj1tGhGwJPpDPXkNAlY9M4E2USPAW/f4fme3np3uoWru2GYJWO1yTbZLxFnUrpVW9wcCVqvPMMbXdgT4F9jeXcPVcc8eHKPC2BytunULJTvTdOHh11cw4Qfe8kKRph47WherZFeaVt2yhQrjc3X/kiI+514+RwsvnyOOxMoM9dT4s/pDVxiv8QO+V595nEZbZfzmTqTfqcePYl9+XasBjRol4PTwLfatkteq2xCaLWBdf8kEZZMlemb8khVYbhx6yxGT0TZVdqwXpQpBC1iLpbdoMv8P1JO50virp8wVfk78pyvru2/VvgcBqx7i3ttAwPLODC3iT8DNs6juOdY8evV5Ut6TtvIcaZWQXUfRzwgsN8+i8Z/N5RHIeM1jauT7QiuxwVjqJwABq352aAkCsSKg++Wq0bwDfkBQv7TrTo1xc/Kazh83JzaqX/j9GBtsgIAXAq0kYDWSM0jaemHX7LpBC1gzi6PE2/QGu24hO6HJjoOTCGV3YqJT22bz96t/RGD5RRJ2QMA9gaCfReUZWDxqloDlnghqggAI6AhAwMLaAIE2ISC5A/pv2rxixPyFuZHEmX7gk5wF2bevouzWVUa+An7N7kGDT20xn9DktJdezXtg5bf0y3bZPgoIhE1AvRY4J51Vbrk4RGA1ImBt7Z+hdLISqwTvkgOLhSa3xWkLoTmvVLE8RbnisaYJWBwBli+9RRO5vzX8aNUSVQFLcsoM/+PLBvoLn7ix5t6NLYStuipbf1z8jKY+1/kxasmBJc/AXgQsuf/2vnuYktlUNX+W2S95fubnR+6Lc9BxFJgUXfJ4P8YGGyDQrgQgYLXrzGPcbUvAaj96swUsmQz19BZPDxp//brt9sC2nXAMPJYE1C+i6iBaXcCS8bZqviwZn5OApSaE53bNisASn1lU8yLSxe0CjKqAZZW7R3cCGnJgxW3Vwd+gCKgR/V6eK9XryMpHuQbV/LMQsIKaUdgFASIIWFgFINBmBDgBprlwWDWVKytOKpx8/GjdObG84ORok00P7KL50bPGyTM6AYsfELicvPs547+Gz0op54pUyRXpzL5DKyKzvPiDuiAQFQKtIGD1ZoqUpApNFzJ1Y+3PFIy2HM3VikUErDemvkAcYaWWYrn2ZFcvAhbbZNscHTbc+zvktA0wnRwwXODtkNJWfFrX+Ru0tusmYxtj1AWsI9N99OjRS4lzqfEfn3h5ZKpXu4TM6wsCViteaRhTuxLg0wkTmZTxrOkU2a8ychKwOLpKnp9VAYufafnZ1jgFvFwJHD/n+Bq4ZQuegQMnjQ6iQAACVhRmAT6AQBMJWEVkOSWR9ctd9fQ0nYAl/bnJWRD0qYt+jR12QMCOQCsIWH7OcKtGYomA9b8v7CUrscqKoTcBa5LYdl/HCHFfTgKW9Me5sNgfbitF+o2DgCUiFB8YcOPwaXro8OXEr+mKeX1BwPLzyoUtEIgGgXpyYDkJWOaTBMM+AVyl6vTMEI1ZgBcg4A8BCFj+cIQVEIg1ARGSZBBhCVjSny70WhWurCAjbDvWSw/Oawg4PYw2soXQjRDc7IlRk7h/9oUdVZc4KivuEVmqCBWEgMXbDzmiiqOppEDAWiIhgpXdunpmbEPNCZphXBe6+y+2EIZBH320GwGrH3GFgU7AMgtX6vOzrq25TbsxxnhBwG8CELD8Jgp7IBBDAhCwYjhpcLmlCUDAepVk+yBPNASs5eXuNgILAtblpIvAgoDV0h+fGBwIuCYAAcs1KlQEgcgQgIAVmamAIyDQPAJxFrCEmlMC+ObRRc8gUD8BSUCrnmSkRmNwDxKNKBEcalurCI76PfO3pQgNYvW+0e2OubOuHJgO7ZRCqy119RBQt/IFuYXQLGBxzirziYZOvrfqFkJdZF/ctxCq177Mr2ybQvSH04rH++1KAAJWu848xh1nAhCw4jx78B0EfCIAAcsnkDADAj4TgIClBwoBy36xQcCqjcCCgOXzBxTMgUDMCUDAivkEwv22JAABqy2nHYMGgZUEmiFg8UODn8cPu00AH/bcW0XKhO0D+osvgSAFLKaiy98RNjE1AstN/2qibjdtolbHTQSWmsfK7RisthBKW10ido684sJt1dJKSdzVQwHMW1RFGI1TDixEYLm9KlAPBGoJNJLHSvf8LPdutTdEQ2IFgkDjBCBgNc4QFkAg1gT45pseyNLwA7uq41CTyBpHDycThuDkV+GtDaXpRTr1xeepe2QdDe4ZqTGtbpuy69tJwDKOOybydQxuWPA4uUj/btqgDggIgXYRsK6/ZIL4Ty3mPFjyXqVCNFPM0JGpXnr02GajHf91p4qUTgZ/XLmfq3O493eoN3MVvTH1BSqWp6qmWbSSkk700dv6f7+m21SihxKJjNadJQFrFb191ReqdZKJTuK/egSstV030brO36Cx2W/SbOEVPzH4bkvETVkbjx69lI5M91X7EQFrurDEj7esSoGA5ft0wCAIRJoAP+NuMj0Di7Nn9h2i3OiE8XzMz8lWz3HSNpFJUbIvQ+oWfnXgdgJWsitNia40lWcWqVIoR5oZnAOBZhKAgNVM+ugbBCJAwCp8WhWwgsqj4RT94aeAJajx61cEFh1ccE2gXQQsHRA1UobrsehgFhyk7Z3bjhGLD61QJBKKx1IsTxKfUqgWid7SjbeeKCq7CKw4cRUBy2ldmSOvIGDFaYbhKwhEi4AuB6UXAcvp8JZojRjegEDzCEDAah579AwCkSBgFrBKk3nKH56k2QPjNHtgrOofR0el+jLERwo3Wvgmz2X+hdPa7UvsA/tyZt8olWcKrrpUI7D4VzP+BUv6EyM8Bn6d3/da2Fa9bb32hfogwAS8CFjZbQO0+vZtlD8yRfk3poz/59dECLbazuokIgc9C72ZIm3qmaezC1njTy0iYLEgIWW+mDIir9TSigIWJ18vVeaMqCe16AQsbsPFKmm70zbAVhGwTs510/fHN9Ssq639M0aUHq8VLnEQsLpGBimRSVL/TUtrXu7DVtvww/rxKejPBdgHgbgR0N1/1XHY/Yjau3uYencP0YVHDhvP4iggAALWBCBgYWWAQJsTMAtYLCr5IVLZITV/iXbKO+BlalQBS/3SbrYlube82Oe65i8MXtuiPgjUQ8CLgCX2na4F8wN0swUsp+1aImBZCQ3tIGBZRVHJuHUCll2bdhGwhJGax0qXxN28lpzWZD3XsZc2bkUoCFheqKIuCIRDwCmdBXYBhDMP6KW1CUDAau35xehAwJFA2AIW39yl8H7/Vbduqf479/I5WvjZOZo9OEaFsTlH380VdF/apb/VH1rut5wr0tRjR1f2+/I5x/7YVnlhZVvHRqgAAg0Q4F9kM0M9VQsXHn7d+H+7wwHiJGCt68zTjjUXtIRuHD5tvOdGwNqxdpLWZReMfFjZVLzzh7BDx0m3AAAgAElEQVTQxGUi97iWjSpgnZl/zLGNk4Dlpt8GlnPoTUXAUtcGv87lmfFLanyCgBX6NKFDEGiYgPE8ecsWKozPrdhB0Ihhuf9OPX6U+LnRTXESsFig5iL3cjc2UQcEQGAlAQhYWBEg0OYEwhawBLeb3Ftepkb3pd2uP3lP/cXbS7+oCwJhEFDz0LWKgCXsnE4hdCNgiS01yiaM+WlGH6qAZRd5Jf45CVjNGEeQfYqApW4vtVtPELCCnBHYBoFgCEg0sZ87CXQR0HYjcBKwpC0isYJZB7DaHgQgYLXHPGOUIKAlEJaAxQ8CXMz5O1SnGhGSnAQsyYUlfpj75mivwvgs8g7gOoksgVYXsDgSi//eM3TayImlFjvBgaNrzFFckucospPpk2MiYHF+LM6TJbmv7MxDwFqiY7eenPKy+TR9WjNethBKTsbiRI7mX5ww7mPm6OWgDmAJmgHsg4BXApwnjvPFSS5Xr+2t6nNeKz5lUHKqurGZGe6hzFBvTVX12ZOFttJMgSb2LeUsRAEBEHBPAAKWe1aoCQItSSAsAUuNGAk7Aksmz6pfeY/FNX6oQAGBqBFodQFLeOsSsdsJDk7RW1GbS7/8EQGLTyjkkwrdFAhYS5S8RPS54epnHS8ClvSrizqBgOXnzMAWCNRPwOrZs958rPV7gZYg0BoEIGC1xjxiFCBQNwEOu04PZGn4gV2GeBNUEnc7AYt/3Tqz7xBVckXXeQbUATtFYEl9Hq+U7pF1xCcsSuETDyuFEp3ce9D4Fc+Pwl8guHBSeRQQqJcA/wpMyQRtuv96w4SsY6ttCJwLJNGVpvV7dhi/SEf5FEKVhypg3Te63agyXcho0XG+q2yyVPM+byVs5QIBy3l286Uk5csp+rvjQ/TmzHIuObv15Gw12BoQsILlC+sgEAYBfrbkZ0x5nlQFLOOZsFzx7VkzjDGhDxCICgEIWFGZCfgBAk0kEETuAHU4dgKWH8KZWwHL7BdvK7TaUihf+P2YErtcRX7Yh432IqA+BNvl0VDzd1itxWafQugkYDUSKSMnGLbqCoGA5X5mHzp8Of18st99gybWhIDVRPjoGgR8IqC7/4p55MDyCTTMtCUBCFhtOe0YNAgsEzAfxR0GF6sw6qgJWHjACGMloI96CEDAqqUmWwhVkQICVi2rdttCKARaUcD6Wf57dD4/Rx/+X/9VGz2NLYT1fMqiDQg0TsDLD0h+PAM37jEsgEB8CEDAis9cwVMQCIQABKyl5PJWBb+QBbLkYLQBAhCwIGAJAURgub+QIGA94R4WaoIACDRMAAJWwwhhAAS0BCBgYXGAQJsTCCuJu2A29+dnAstGthDKlg154FCXBISsNr9IIjh8N1tTdUeAW7XVbacNe+i6JO7ih3lL4ZUD08T127XUI2C1KysZN+dUi3L+K/bT7RZCjsCaOHWO3nPZ7dppRQRWu694jD8IAm7uv079hv3s7eQP3geBOBGAgBWn2YKvIBAAgbBvohCwAphEmGw7Am4eoCFgtfaygIDlfX4hYHlnhhYgAAIrCbi5/zoxC/vZ28kfvA8CcSIAAStOswVfQcBHAkHlonJyMcoClvguv1rLvxGB5TSreD9sAm4eoL0IWOK/GskY1rgkj5Xan0RcWeWz4qTcvDVMV1o9B1ZYc9MK/cRxC6Hu+pX5QARWK6xMjKHZBFoljUazOaJ/EAiTAASsMGmjLxCIEIEVAtbFo3znR8/SxL5RX7xM9mUokUktHRFcrlRtSr+8fbA0vUinvvg8VQolKs8UGuq3ni2EXSODtH7PDpp+6jhN7z9O5ZlFqhTKNPzALkoPZKv+GMcdo4BAhAi0uoA1W0hTmRLEETNcPjPyag39N2d66O+OD1Vfny+lqVjmx5qlIm36M419tkRo2uFKnQQePbaZjkz10kwxQ5Xl21Gd1oJtpm5p152KCwEr2HmA9fYgwD9YFifzNLb3YKAD5hN/uXB/akES90DRw3gLEoCA1YKTiiGBgBsCQUVCSd9uoj/4hs43cz9u3vUIWOKrtH3r3hcMX1BAIOoEWl3AcrPVS82BpYuyQSRW1FdzeP65WVfheWPdEwSsZs8A+gcB/wlY7XqQXvx4BvbfY1gEgegSgIAV3bmBZyBQQ4AjhhKZZPV1O7ElM9xDmaFeLUUWmKT4mUy9Kgrdvo2y2wbozL5RI7qKk0Rz6b9ps/FfjnpKZlPU++5hyh+epAuPHG5oxiFgNYQPjWNGQB6GWXTlqMHc6ETNCERE5qjK0kyhKs7aiV9R2UIoQgOLVFx4u6BaNvXM03uGlgXn16f6aHKxo6ZeOyd6j9myDszdk3PdxFF9HIk1X0wF1o8fhp0ErBtu/jWjmz96+Lfo7FvT9JvbvqTtFknc/ZgR2IgDAX425mdkjvrnZ8qoFbnvWj23+/EMHLXxwh8QCJIABKwg6cI2CPhMwEtuJi9fRIMQsNShq1+a/c47AAHL58UGc5Em4CaCUj1VU3K5xUnAkugp8+mDuolxOsEw0hMK5wIl0Eo5sHjrIJdXzn2YLpwu0cd3jkPACnT1wHgcCPgZ0R/EeN1ETQfRL2yCQCsSgIDVirOKMbUsgVW3bqFkZ7o6vgsPv64daz0CFkdt9e4artqcPThGhbG5unj27h6mzFAPTT1+lMq5IrE/XMRn/nd5oUhTjx2ty740Ep8737GWuq5eW7Wlyxti1Rm2EDY0BWjcBAKtKmAdOjdAZxey9Nzp9ZQvJcmLgLVj7SStyy7Q9ZdMUDZVbsKsoMuoEoCA9URUpwZ+gYAvBJJdaVp1yxYqjM/R7IExX2z6aQQClp80YavdCUDAavcVgPG3LIF6BCze5mfeWthITiinE5T8Aq/6LHYhYPlFGHaiSKBVBSxVaPAiYMk8cfJ2JG6P4qptnk8QsCBgNW/1oWcQIIKAhVUAAv4RgIDlH0tYAoGGCLDgw3lq/DoFUM2BtX7PCPHJgFZFcugUJ3I0/+JyLh3el2+cInixmMUt1Y7s4efIq97dQ4Ydtse5edh+UEUVsDiXFvvipV9hpY43KJ9hFwQaJdBqAta6zjzxn+QqEj4QsBpdKe3dniP6Dp1fXbOuokzFKQcWthBGefbgWzsRMD8Tq3msVmvywOKgoHZaIRhrUAQgYAVFFnZBwCMBv3NCqd2r+bOs3HM6CcXNKSphb8fzM2rM45ShOgg0jUCrCVg6kBCwmrbEWqLjZ8Y20DPjl8RqLBCwYjVdcLaNCZjvw+rzc1i7ENoYP4bexgQgYLXx5GPo0SLACSipXFkR8eSnhyJg8dY6XakUSsaJgZxra+CWLTXVTt79nGNbzkOQ6EpTeWYx0MgrcQQClp+rBLbiQkAenPl6TvV30MbPX0fzo2dXRHDqkrgbnzVEtOn+66k4maexvQerw/ay9TgMVo0IWHySIRfeUojSXgSOTPfRo0cvpXw5ZeRSi1PhnJGVXJGSfR3GqcPqdnhEYMVpNuFrnAjwKYbr9+zQuqw+P8u9lBuoz8/nHnyVcq+eN+7NfI+2e/aOEyP4CgJRIAABKwqzAB9AIAQCXo7T1n2JlVPMQnDXdRcQsFyjQsUWImDOp6E7fUknYAkGq6jPVhKw5ORCEcFaaPoxFAcCP5/sJ8571QoFAlYrzCLGEAcCupyq4rubZ2B1F4KXZ+84MIKPIBAFAhCwojAL8AEEQiCgbiG0uxF72QYoX57VIagJ4NXth24eBNxggYDlhhLqtBoBLwKWfAFWk8hCwGq1VYHxCIFWErDsZrV0fsE2sgNfnnFNgIB3Al6egb1bRwsQAIFGCUDAapQg2oNATAhAwIrJRMFNEHBBAAKWHpKcQogILBcLqUWrQMBamlgIWC26wDGsQAlAwAoUL4yDQMMEIGA1jBAGQCAeBHRJ3OMeCRX1CCwcnRyP6yNuXlqtK7kWdEmgpY05r5QawaHb/hAnPhCw4jRbwfoaxyTuQRDx6z4fhG+wCQJRIwABK2ozAn9AYCUBCFhYESDQJgQgYDVnoiFgNYd7q/cKAUs/wxCwWn31ux8fBKwlVhCw3K8Z1AQBCFhYAyAQbQIQsKI9P/AOBAIjELawElR/UY/ACmwCYRgEiMicx0qNwBJA6jaih8cvNd7iLXatGIEl40by9va7RKYLGeLTJ68cmKY7tx2rAuCE7rytEGWZgFP+rLBZyaETatL6sP1AfyAgBLAmsRZAIJoEIGBFc17gFQgETsBvQYmP++Zjv/n4bz4GXC38JZqL30cJQ8AKfKmggwgTMAtYcgT49FPHaXr/cSrPLFKlUK7JgyMC1qef+iUqTS/SqS8+Xz0CvBW2EKoCFosaXPozhQjPJFzzg4AIWFv7Z+i2LSeqJv/u+BC9OdNDM8UMVSp+9BR/G6XJPJ3ce1A7EH6fyuHBglgQ/zUVpxHwAURcWMjVFazJOM0ofG0nAhCw2mm2MVYQMBHwW8DSRX8EDR0CVtCEYT/KBOxOEpSTQHURWHcMnSA5RXT+hdPE9VtRwEIy9yivYH99EwFLtcrRWByVxdFZImj623PrWQs7EgpiQeutoSiPyM0zMNZklGcQvrUzAQhY7Tz7GHtbE+AbMxf+0tpI4cgrjvxID3ZR9zWDlD8yRfk3pih/eJKMX3ADLhCw/AfMTLmwqIESbQJWAlbv7mHq3T1E8y9OUHEiR+v3jFCyL1PNgyMRWHESsFh84OJlG5g5WT23xZbC6K5lmVeZ53o9nS+m6NFjm2m2kKaTc91VM+8ZOk2beuaN97gOijOBiX2jVJqxjlrkyM7c6ISzEQ81IBZ4gIWqDRNw8wy8+vZtlN02QLM/GKNyvoRnooapwwAI+EMAApY/HGEFBNqWgFMER9BgIGD5T9jNL5P+9wqL9RCwErDEjnwhlH9LIuc4CliqGOWGFQQsN5SiUcfvKDkWxDjvFUowBILInwUBK5i5gtXGCahRzI1bhAUQAIFGCEDAaoQe2oJAmxPg7Ua6MntwjApjc7Tq1i2U7EzThYdfD4QWBCz/sZrntbxQpKnHjvrfCSz6QsBOwOJIrMxQz9I12JWmC3+9dA1+/f/JGf/9+O93Ga/z+3ytzh4Yo853rKWuq9ca/1+9frvSvvjaiJEbh94ymj8zfolrMyJg8Ul0XG4cRkSha3ghVZS5kXnlec6mynT9Jd6je8SW2fWjM710bKY3pNG0Tzec59LuvjD1+FHLXJh2hCBgtc/6idtI5TlW/A7qeTZuXOAvCDSLAASsZpFHvyDQAgTqOQHN72FDwPKb6LI9O3EkuF5h2QsBN3Mkvx6L3Xqimbz4FJW62DIYlZnQ+yGRV+YanGz/MyOvenbebEtOIWRRy4vo6blTNLAkUE/+LAhYWExRJ4Do9KjPEPxrFwIQsNplpjFOEAiAgBsBi/NjcZ4sP/IpWeUsgIAVwMReNOlGHAmud1h2Q8DNHImAJfnu/vzxDsO0+Qs/56y78MhhI3cWR27x//NrUuTac+NTVOpAwIrKTHgTsNLJCvEpgpyzinNXORXZKmjOj9abKRrtzy5kjb84ld0bf4n475E3nqfDU0uRh1Eq/DmS6svQ4J4RrVucH4vzZKnFLucm5xpKDWSp993DlMymGs7PyX27yXMUJbZx9TlqDIPyBwJWUGRhFwS8EYCA5Y0XaoMACJgIuBGw/ARm9fAAActPwittuRFHgusdlt0QcDNHulMIzQKW7hRC8UGuPTc+RaUOBKyozITeD6sILKktUVROo7Cz4dQ2iu/fsfWf0Ye2/jO698W/pRfORG/7NufSk9yXXvlJHj67dn7mG4qj4BBHn72ug7jWx9zEdebgd6sRgIDVajOK8YBAiAT4ITbV30EbP38dJTIp46QzzrPD+QH419nukXV0cu9By9MI+SG1OJmnsb0HXXvM/XHZdP/11TbSr7zAv/D6Ee3l2qkWrmie3/nRs8SnUqFEi0BQAtb/efm/oB39m6qD/Z1D/y1aA3fhDQQsF5CaXEUVn3jrIJ8g+KevXEEcidWdKlY9vG3LCSMySy1iw7zt8MhUr3HiYByLKmDxPZLvlWrhe2gzCidwL00v0qkvPm/c4+0isVT/uK163+f8QgO3bKEz+w4ZJxv6KWDJMwP3G5di9pkj0jY9sItw/43G7KnPoLxVFgUEQCB8AhCwwmeOHkGgpQiov8SKgOWUz8LNF28dKLtoEAhY/i4v9ZRJf63DWqME3FxH9URg3XPNb9K167dU3bvl7/+kUVdDbw8BK3TknjtUBSyes+lChu4b3V5j685tx4ijsnQClnm+43wKoSpg6fJJNTMqUk4hVCOg3SwA9QRDPjRk9YeuMLYM8o9PfgpYbvyJch3cf6M5O4jEiua8wKv2IQABq33mGiMFAd8JWD1Ai4Dle2dNMIiHlGXo8kWllea3CUvK9y4bEbCuWvsXWn8+8cHP0bNP/rj6fjO/LNcLzY2AJUm+deJIvX2jnT0BFqhYqFKLnYAldTnSihO9exG/4jAfLBizcPzXR/6BHj7yD1WX7QQsVQySRvIDUtDjVrceu+lPFb/Ue4p66ITYdLP90E3/cazjNVWCm/tCHDlExWc8G0ZlJuBHuxKAgNWuM49xg4APBCBg+QAxJiYgYEVzotx8UdFFYEHAIoKA1Zx1DQGrljsErCUmELBq1wYErOZ8Tul6hYAVrfmAN+1HAAJW+805RhwDArqw/HqOpg5iuO1y826XccoasRsvBKwgrqTGbdYjYP0sv5S34x3Z91aTMUc9ibtEU3lJ2K1GYHFbjtzhCB51ixkisBpfi14s6AQsOxvqHMlaMM+zbvuhF9+aVVcErK99+SH6+r0PGSfo8eduPRFYMgbddjy/Iir9iMBSect4vfgYduoAddtj2GvGaW3U44+b550g+jX7qktJUc940AYEQKB1CUDAat25xchiTAACVjQmz80DXTQ89ccLCFj+cAzTCgQsPW0IWGGuRG99QcCq5QUBa4kJBCznaykIIcnN804Q/ULAcp5v1AABEFhJAAIWVgQIRJCALtpFDa0POyeE3S+i8ktsGDjdfGkPw4927KPZvzy3I3O7Mbu5FnRbCO8YOuE6Akt88BIV4edc1ROBJf1b5cLSJfmW/Ep++g5by1s1hYUuj5UVqxuH3qIbh09rMXqJyoviXKzJ9tBf/Iv/QC+cOUr3vvi3VRedoorqufbdjL+e/Fnq4S1u+nGK3pLnm0Y+c8J+RnIzbj/r+PFM6Ea48tNnnS0czhMGZfQBAq1BAAJWa8wjRtFiBHQC1vADuyg9kK2O9uTdzy2PvFyhksVR236iiYqAxQ9t6lHcfo4TtvQEIGBFa3W4+RIrnxvyefH/vjxoDAIC1uU1kwkBK5j1LbnGxPonrnqdejNF+tor24yXrBK6S93rL5kg/utOFSmdrNQ4GHcBayDbTQ/8+r+h0bO/oH0/2990AWtwzwh1j6zTLgTe5qWWqceO0uTjR2nt/8fe+8DWdd13nj8+vifqSSRFiaZsk4owViw3lWWIcRujGViKJ27jmc3uyugEcAzMOO0au4NkA2gEt9Mgm4zrppMJEHhVAUFSTGG09aJTe9bNWoO2GCfrxJE0DcZuHAp2tBnLllNHpCNRlCiSIkU9vvcWv0v9ni4P77nnnPvv3Xff9wBBLL7z53c+59xz7/3e3/mdx/dQdc826uXnlBK/YujT0sQ0XTh6igY/sZMGH9pJpYEN1FMptQqwJxanHU/f7/1/ULum2Sp1cOB4NZWqZeqplqkxf52atYapqlz+rj4TSn89VoZnQhkj4Stl29VR7/lSsZnHh8fJJOa2y2a0CwIg0B4CELDawx2tgkAoAdt4Q35BSXcaUZKo8yJgJdkn1OVGAAKWG6+0c9sIWGKDXL/ikQQBCwJW2vNT6lcFLPm7i2edLk5ZpwtYujEwvbTbXPu6GFhxxt3GU0YXiD2oXZP3VlqeWEW+l7VrbsSdV+pzbJHHKA4rlAWBbicAAavbZwD6n0sCtgIWu/pLaizXaeGVyda/a1MLVJu8mkj/quMj3pdRf3tqxVluIUykU6gkEoH+A2PUf2CUFl+fppXpJeKv6J369ToSgJwV4mtSrn32wFw+M6u1MAkBS9YAXqOyTCxecHr2zHrRyWSHyxbCT93xHm0q1+lDQ3OmavG7BYGFWpnOXd1Epy5tpVMzQ60Sdw7Oe95UMq42ItTHR8/Tjs2L61qNMicsTG97lrwKWEHPAZXRfqqMbW55yrgIWAvHJ2nh+BRtuneEyiNVkucNGYAkBCxmKUnWSfVephtwfrbptOS/L4jt8kzYt3vI85Drf2CMSn293pipiZ/3eBxM9xS5DyTBKEh0g4DVaTMP9oJANgQgYGXDGa2AgBMBWwHLX2map7fYPIxCwHIa4o7PnHYw144HlGEH5No3XYNJCFjSrThxaTJE4zXlImCJbUFlsra7CO3ZxhqzEbCKwMOlD3kVsIL6oAoNNs8Maj3SX11cp6TWHHWdNMX86tQ4WrpnQpt7t+s9JQlGELBcVgfkBYHuJgABq7vHH73PKYEoAhbHCdhycJe2R1eOnaXG0kqkHts8jJpeniM1nEAhfrDmdPm5txKoDVVs3DtM1b3DLRBx5hVoJkPA9WUjaAshe2uyJ8TGe1bH1+blORnr068FAlb6jHUt2ApYvMWQ08tTt7WqumXjMu3bdrn1b/biunjtZgzI9vUqm5ZtrkFT6IA0thAG9V7uCwsnJj3P7y0P76LSxnIr69ZHV+/DYYnXH7/XuJThLYaSvOech/XPOaY2+Hd5VlHvZVJWtdUvzrCXWf/+sVYz0l+bdqPkkee62tTq+uyS4jwT2t5T5PlK7IrznAUBy2V0kRcEupsABKzuHn/0PqcEoghYalfki6j8XY6mjtLlThaw8nLCThTueSwDl/78jYrty0aYB5baK5uX5/yRCLYIAlb7RspWwBIL/Z5YvI1Tthjy77xVkOvrlmRzDeZFwDKNiYv3lDyrqGVYSFK9ikztBv2unn6ocg5qV+qRZzP5t2mMotjnL2O7ttu043Lvdm03iecsCFg2o4g8IAACTAACFuYBCOSQQBICFn8p5LgUkiTeQVh3OX7O5efPkMSGkLxqTIqwh8K84UwyRkPe+palPRw3Y+sju2n57Su0/M4VL9ZS2qdept0/NZZLUCyQtG1Ion7bl40gAUtincj42r6Y8XXVO1AhPrEs70kELH+sJInNpLMdWwiTGVU1BpbEsZqY2UrXGzdPnJPW/AIVn1LIMa/YC2vf8CwELGVIfv/03TR/YYWefuC/awcrKw8s02wJi5nHMRX5mUOSxFWce+k970+yTqclYKn3sqB2xTZVwNLdB5O6l8jabopF5V+3/cz84yJxymzu3WoMLI5RFuYBlsRzll/AKuLzhukawe8gAAL2BCBg2bNCThDIjEASApZqrIsXleq9ZdPxvG4htLEdecwE0piT5lbTzRH2pT3dlpOtPY6ApXsxs/EsSMIbIlkSwbW5nHQnNUDASnZk5BRCOUnwaxN7aK5WsWrkwdFf0INj5yFgKbSem/oAXT5fp89+eErLMS8CVthA65431ODtaQlYqm1B7erWSV2/kogJxXW7rrFJBLwP6pOcFGl1wUbM5Bewivi8ERELioEACAQQgICFaQECOSSQxs2bT52hEl/yq4kfbCXx171zh09Qdc82Gn58D/VUy8TxE2ySlG3W6tSYr9kUQZ6cERg7sp/KPD9uJN7CIYnnzY4j+2np9CWaeeY0NZdWIsdSy1m3vZcDf+LtOJ2YIGCFj1qYgHX/bdPE/5P0jZ/cRew1NFhZXcu+MH66E6dEbmx+e26AXjj7AVpu9NJyveSd8FjuadD8SoWaTTsz+3ob1Feq02K9TCuNm/cwu9Kdm8skIhdFwOJnDX7mUJOsx7JO73j6fqrPXaf3n3qVNo3fEtn7U91CqGv33BMnvZ/89wXVA0s3u6QM30vlHip5Z4+dpSsvntVOTP+zGT+zec9uSpo+OkGLExe9e7P/96wErLBnhqhXnPdBqdH0PLt7Kr1UGqhQFsJZVHtRDgRAoH0EIGC1jz1aBgEtgTQELLUxv/eJxNGwfTjz12WKwYFhzj8B3alPbLmtOJL/XhbXQtsxCtpCKFSixHZx9Q5o1wiECVji3SO2qZ5B8MSKN2q6GFjxau2O0t0iYNmOZpCHjm1Zfz6TgCV5g7yoXJ+RgrzGTKKMTbywrE5sFBaqzWHPDFHGhMsE9dvEKmpbKAcCINDZBCBgdfb4wfqCEshSwLJxy9cFVWX8ELA6fxKGHVuO8e2c8TWtG0kLWDrxK2/EggQsCRAuW9t0NkPAijaavD2QxUBdYs829nKToO1RtnlGsyz/pWxf2vl6ZobM8kffXaKvf+bius51whbCOCMSJ9yBS9kkPvKZxK8w76ksQzT4hSSd2BfnUKA4442yIAACIMAEIGBhHoBADgmYXkSTMNl/aozJkwICVhLE81sHBKz8jo2LZaZ1AwLWvhZOCFguM8s9LwQsd2ZSAgKWPTsXEUpqtfXA8lsBAesu2vroXS0kELDs5yhyggAIJE8AAlbyTFEjCCRGwBTcNImGbNzV8bCSBOn816EehR10rHX+e9G9FkYRsEZuH6bv/ex5+sHf/JA+/5tfJpej1oW0ybOg3SMSx7sHHljRRs9VwIrWSjFLQcBKblyDnm9cBSy/l7paVreVL6gHpnZt4lfZzo0oBNX7f5Q6UAYEQAAEsiAAASsLymgDBCISgIAVERyKRSIAASsSttwUgoAVPBQQsLKfohCwojO3FSmwhdDMGAKWmZHkgIBlzwo5QQAE2ksAAlZ7+aN1EAglEMUbwhapjeeVWlfYsdZZxmiw7SPyxSMQFAsjXo0onSaBJAUssdPF+zLKdp40eUjdSQhYEquJ65Tth1nY3olt+Fnp7JcYWGH9UwPAP7b7XY+9JJt2OpEfBKxsRs12vQoK5q5aqG7DD+uBjO9tX/oI8ZotycYDS1evjY3ZUEUrIDacw3gAACAASURBVAACIJA+AQhY6TNGCyAQmUBeBSw55tl/RPTS6Us088xpai6tUGNpJXKfUTA/BCBg5WcsdJZ4R8zfOHrcJGDJdfv0PzvvVfep294g3RZCaQ8C1ikPBQQs/bXA3lb+FBa8XfJ9/u63qL8Sfp94+0o/vfDuzlbVn7rjPbpzy0Lr3zbt5P8KXm8hBKx0R62nUqLSwAYaOriLtjy8ixrzNWrW6usa9dZWIvLEoVIP9Q71tfLIc05poEI9lV66/cn7qHdwg3dqryldefEszR47S8OP76Hqnm2t7LzWcorzcTGs/XY9m5WqZeqplqkxf52atYYJD34HARAAASMBCFhGRMgAAu0jkFcBK4iI6eW5fRTRclQCELCiksuuXNDR8qYX4DeWV1+U7un7dQhYhqEKO8Ewu1HOd0tF9YRqF3XT9St2YQthtBFSY/ZJHCu1trCDblQvqrCDbnRWmtp16Z2N95btvHJp1yZvms+xNu0jDwiAQPEIQMAq3piiRwUikOaN3+Yr3/KZWarPLreI8gOXP/GDIH9RW5qY9lzh2SV+4fgkLRyfIrVs2sNSGdtMldH+zNtNu19J1s9fkPt2D1FtaoFqk1eNVfN48tfq6viIx/Xy82esyxorR4ZECPAY1edrNH10onUN6l5UPvbJj3pt/vvn/rn3//944HeMAhbXy/XzFmFdknnVf2CU+g+MJdKvJCtJegvhjs2L9PHR83TLxmXvf92Wzl3dRAu1cqvbz565o9sQpNJfvtfyOsv3T76PmlK3CVj+5w0TG/X3oGcVvgfyvZDva8xdTby2cuLnHva02n5o3PPC4nuoKmDJOillbOxT25U11ubZTK3fRsCSZzOdbWFrvE1/dHn4nsD3Bh3nOHWjLAiAQHcSgIDVneOOXncIgXYLWLovhIIvyPtDfjOVTXoI0mSVtK3tqi+KlxxvSZCtZ2x3u77itotZJ7VrGl/xvPrJzG973fr06M+NApb0PyzGSjecQhjkZfTg6C/owTG9sNdJc8fFVhasOD4VUrIEXONIdpuAFedU3CieqkGjq66xahyrODPCRoTS1R+nrM0aH6dfKAsCIAACSROAgJU0UdQHAgkSsBVlOF/j2gpxbAXbFPSVj79IBn35vXLsrBfXitvxRIzn3vL+n+vgvwe1u3Bi0srLx9ZeXT72vOrfP0Yb7xmm6t5hz37uh9gct/4ilRdWS2/O0LU3Z6y6pgpYXtk3Ziir8bUyEpk8AlkIWLIG+JF78yqHnlcsMPnTy1O3Oc+UMO+tOwYWaNfAAu0bni20J9bFa310amZoHbuT57fTcr3kzBQFgglAwAqfGVGec2S92vroXVS/dI14q59pnQyzQr2H8rpXGd3cKsLtRE0iQkVZY4sqYG3ce+O5LqPnyahjh3IgAALZEoCAlS1vtAYCTgRsBawoXybDjpcWI+XrohrfIehhyfXh2wlESGad94dL8OmkbCliPaqAJX3M2sOuiGyT7pPpxSwJD6wo21uS7qdtfXG2DkobNnWop+PZ2tcp+XSnAXIQdTWAe6f0KY92ut5Du80DK8qY+derJAQskw1x1sc4Xq5FFbBsn4FN44LfQQAEikUAAlaxxhO9KRgB25t3lNgQcnwzi1R8Cs+FoxNUHqnSpntHWjE4ONYDx3zof2CMSn29rSOfbQSsrY/s9mJF+AWPNIYHAlYaVG/WKTGweCx5TCVJjDOeNzx/kNpPIE0BS+Kj+I99b3+Pwy2wEZ9MffjQ0JyXJWzLXFEFrMWVXu8UQI53xXGvJHEMMD5B8O25AVpp8GMkUhIEIGAlQXFtHf7nnCwErLD1Ub2Hqr2V5yp/HC01vqGOUBQBS+J2SZ2DD9088dN2JNS4qLblbPMhtqktKeQDge4iAAGru8Ybve0wArYCVpxu2cSG4BhI/uOZbQQsNTZE2NfFOPZDwIpDz74sONuzalfONAWsdvUpTrtJCFg27RdVwGLvKvayQsqGAASs9DjbPOek1/pqzaZYgUHPVarolqSApXqpR/EeS+u5Lu2xQP0gAAKdTQACVmePH6wvOIEsBCwWpnoHN9DtT95HS6cv0cwzp2nwEzvJ/zWOvbCodPNLOz9UcTr3xMnWCFT3bKPhx2++7HA9XN+OI/s9L66kH3S4Tq67p9LrnRAkib8qLk5cXD09sdEs+AzJrnvsiVUa2EBDB3fRlod3tRoWzvwwbEpcjstfOHrKO7kSKVkCtgLWv3z5617Dl8/XqdRbouHtW+n6co2uXJqjnmqZStWbJ8wla2G2tSUhYH1h/LRndJiQs6lcp3JPgz5/91ueZ1JRUhIC1p2D8/SpXT+nk78Y8f6HpCcAASu92eF9gGs0vecCuZepzzlq6zb3NBeLpV1dGXmuWiMk3bBZns3U+6/UZeOBxbFKZ4/djJPKz3z87CfJ/5FS/sb3ab5fm9qV/P4DX/g5jJ/HkEAABEAgaQIQsJImivpAIEECWQhYbK7EOZIHaGnX1BW/KKV+XZQYSeK9lbiApZyOJ7YiNpNp1OL9rpsbNuOb1XyO18POLW0rYB38L3/UuZ10sDwJAculDha7BivF2U6bhIDFWzDZQ+3lyVspShB9h+Hu+KwQsLIdQtNzjs09LQ2Lw+KTmu6/YV5U6gnCqmd9UF9Mz4QqI3/7rvM5DZaoEwRAoJgEIGAVc1zRq4IQyPqF3+TirmINE7Akry4AfNwh0oluELDikrUrrzs+POih3ySs2LUYP5d6KEH8GvNdQ5JHvOe7p/myTkSvOFZ98bV964qLGBSnXpeyImDpRCgR7MRWF7HPxY5uyev6wo8g7utnhk6UaZcYldTcVe+huhANQUHrxQaTYGdjq/p8FWXbobTT6WNiwwt5QAAE0iEAASsdrqgVBBIhAAFLjxECViJTLHIlELAio8usIASszFCvaQgC1nrxrT0j0VmtQsCKP14QsP7HFkSJnwUBK/68Qg0gAAL5IgABK1/jAWtAoK0EonhgiZBkMjztr21Zi32m/nbL77oA//7+58UDq4hj4g9OnOSLShFYtcsjyEXAevbMHaEnHAaNw4Ojv6AHx86nPkSmLYQ6Dyw2zFQ2deM7sAEIWPEHragClomMeEL5n7Nsn83C6lbnZFYfRVyvBRMf/A4CIFAsAhCwijWe6A0IxCIAASsWvq4sDAGrvcMOAUvPHwJWvLlpEqEgYMXjq5Z2fWnHFsL1/CFg/XULCgSsZK9P1AYCIJAfAhCw8jMWsAQEckPAFCvBf+KN6Zhn9ahm6WTQi3ccAFl5YKlbF+PYXISyYS8M7WCV9LzKyxi5CIV5sRl2rBLwe2T9dHaQ2OsqSmpXDCzVVg7KzrbwyYwscklql2AYhWUeyyQpYCHe3+oIp+35ncd5pNoU5cOk1OFaNg4PHitb0Q3jGoc0yoJA5xOAgNX5Y4gegEDiBLY8vMs7Nrk0sME7clqSHPN87omT3p/4pVoErOr4CG0/tD72yftPvUr1uevr6ogtNJR6qHeor1WvHPPMxzbz8c2qzUlBaocok5TtadQzdmQ/lYf6vAdPf2Lhkv/Ov7u+mEWxU9rf8fT93nzjedes1akx3yGnwinzWRg05q9Ts9bwODJPSXLEu/94+CxfNqKMUZ7KlEtN2tS7QsuNXlqu31zj0rCRPZUkvX2ln154d2ekZkTAYnvZbraf+5FWWqiV6Rs/uYtWmiVaXOltNaMKWHLy4ufuPuPl+eZPdlODeojLI9kTcF0nwzywukXAKlXL1FMte88e/Ayi3vdlnbQfheLl1D2bec9PJX4NXE3q8x3/rbpnGw0/vscNiuZeplYi7cm92xOwhvpox5H9xvYCx9XQbn12majRbD2rSPvGxkwZbrTbUc8bpj7hdxDIOQEIWDkfIJgHAu0kEOWkG9VenedIXAGrXV/qIGAFz8iw04hcX8yizHl/DJBOHCPdfDadqum/jiBg2c8c3cl69jVkn1O1WYSktC1RvcZUAUv1vOJ/m7Yfpm1zJ9bvuk5CwCLSeYvDQ8d8BYQ9m0lp1znJ5VyfzYLid5mtX5/D1G5WJ2JHsR1lQAAE3AhAwHLjhdwg0FUEtj6ym/p2D7X6zC/TnFjYktRYrtPCK5PEX7eWz8xSZWwzVUb7vf/mv6kPSVLH4EM7SS3rArc0UKHth8aNRaQ9Y0bLDNIu9+/y86seB0g35wSLKJLYc2hpYtqbC2mz6nQBSzefF1+fppXpJY8j81QTBKxoV9+OzYv08dHzdOrSVjo1c3ONi1abuRR7St05ON/KePFaH/H/bJKUHdpwne7aMt+yOWsB65aNy8T/YxvYlomZrXS9USK2g9MXX1v1wOV/s8dWVE8zGyZFzOMqFkDAgoAV5zoYOTROvQM3twD7n+/Y8549t6Lcu7lOrlueCXU2qs+TcZ7V+Lmj1NdL/Q+MeV5c/udWaZ+98+vzNeJnT04u7TELZsLXqJrk3s33ab5f16YWqDZ5Nc7QoCwIgICBAAQsTBEQAIFYBFRvFzUWVd5iJMXqLAobCfg9sdRjvI2FY2TodAFL13XTViAIWDEmTYZFeZudfyvhy5O30stTt1lZIGV1nlBWlcTIJO3K6YdycqIEcZeqRcCK0VRXF4WA5T788MByZ2ZTwuTNZFOH63y2qVOXx+U+GMU7T55jw8ritOU4I4iyIOBGAAKWGy/kBoGuJsAPi2riGBQcM0seVlQBi38rbSzT1kdXy17+y7e0DJfenKFrb850NeOkO8/j0bi2QldePJt01Wvqk7kh48w/QsByR84ejP37x1oF+w+MeV6NPH6NpRW6/Nza68c/vmlsIZR2/ePq3iuU6Ott0P23XvA8mPYNz9LZ+X56d26z501l8sTSCVhczy191+j+26aJ608rsX1+LzWxWQQsFuP8yVaYS8veTqqX74fqPdTWfnhgmT2w/M8sWdwHbccu7/m8OXlwl3fv4XuQmuS+ENaP2tRVWjg+SRv3DlN17zAtnJgM9UwKer6U+tWyklfuh3wt8P3R/5yz8Z7VdtUkz6DqvTSsL/IcG1YGAlbeZzXsKxIBCFhFGk30BQRSJmAT50h3GqAa5yDoixk/WLg8VKTc3UJUHzfWmC2EoLkBAcuW3s18JhHK5guwe6v6EmrckCTr7sa61JMExZspjIVOwJIyqidUWlxVrzFpVzyvcAqhO3n/yWuuHisQsMwCVrs8gt1nQj5L6O5HutOlg3phe0J02POlGgsy6HlS2lY/purIRvHEChslCFj5nMOwqpgEIGAVc1zRKxBIhUDYA4bEO1h++wotv3OFNt07QuWRKl04OuGdBCexkST+AP9bBA658XPcAI4fwPGSOPYCUnwCzFZiUcWvTV+DOjf4gTOLdsUiaZ8fXiV+h+sLYdJ8+Mt1/4HR1nyWmCNq7A1/TDmJo6GzRY3BwWU5rgfH95DYH9xm0FfzKP2T2Fv+2GZR6kGZVQL9lRXi+FuSJJ6U/JsFLX/ieFIcZ4rjTfGpfueublqHkmNrcZwsiUWVFmuJ2/W9qVs9O1QBi8U5TrzlEMmOAL9Ey3rF90u+by4cn/I8V0yJ17zS1WXa8qcnaXa6Tu9M3Dzt17T12FR3Xn9XY1BKzE01Xqesk3MvvdfqSpb3I1nTXeIsBTFvd8xNXTwpXUzGoD6ocVF1cyvsHiPPk1JW8ooI5X/+sBWwZI7EHSOxSVj1fXAL9d25Bc+xeV1EYFchCEDAKsQwohMgkA2BMAFLLBAvKt0DdNAXUfUrn+nktWx6i1ZcCKhzI+mvmyZbguZmuwUsXTw4lU3Qw7epv/J7kIedLi6MbZ3Ilx0BNRC7GkfK5UQ/8YBK23o1BhZiX0Un7l8LXD04wrxriypg6U6YVU9MlhHJ+j7kX5f5v+O234kn6ka/GvQlTeMbRcBKa47YepylwQl1gkC3EICA1S0jjX6CQAIE+GGKEwe01CWOQ9BcWqGZZ07T0ulL3kk01Gi2ykgdXvlG0/ud83H+oYO7vHha7LHVrNXp3OETq+WRcktg7Mh+Kg/1eUdn+1PcB3fXDvvnJs8Znjs8h3guRUl86tD2Q/to9tjZ0PhhQdfC4sRFzyOK44j0VMs0/Pgequ7Z5nlIUaln3UuN/+GbvQQa8zc9KS4cPeWdQKhLXr9vXEeSR9qN0m+5Bm3KCudN47d4p04huRPYVK5Tuedm/KrP3b32ZNNv/mQ3NajH874yJd5qyMkfLN5UJsrvfMLgSrNEf/bWHbRYK5PY/LWJPVGq68oyvAWLE3shS4KAZTEVSj3eOqqu7SaBw6LmRLPI/cg/vpEa0PQ3Ul0xCvFzGd8bTPcjmybkmcEmb+ueNrDB81SUJNfPjqfv9/7kf/6Qeyh738195z3vPs73c10Ke1bh+xrf32yeReWZQdrl+3jQycEu/UZeEACBYAIQsDAzQAAEnAnYeGLpYhYENaZz+XaJs+DcCRRIhEDYKZOJNOBYSVIxv2xfJm08v9SXqzAPLLW7WXsjunhvqVuAHYcK2QMIqF5UUbybsvLEYsFqrlYhxL5yn8pBL822a4601o0eWDrSeROw3GdEvksk6VWke2ZwIRC0dVAtr+4GiCJguXgyul6/Lv1FXhAAgbUEIGBhRoAACEQm4BJ00//QrTaoO8EwsmEoGIlAlEDs6sNo2NfMJB+CI3UwhUJhQYJtj3i3EYTTFnNNweNTQIcqQwQsNTA6Z+XYUmqMLP67Lph62oAhYEUnnJaAVcQ11oVy3j6ouNiu5k3qY0wcG9Sypo8xcduSLZOmerISsEx28O+qzTiMyIYa8oBAPAIQsOLxQ2kQ6GoCELCKNfwQsNzHEwKWOzOU0BNQvZn83lQQsIozcyBgpTOWELDS4Sq1QsBazxcCVrpzDrWDQBABCFiYFyAAArEI6L6YRTn2OKuHpFgdzrCwelR0Wk3LQ79L3KpO3rJhs4VBFwBeZWVzKIE6bnG2EIYFyzcdhmDj6ZXEHJNr34ZzEu0VqY6w7Xh8yp//pEEJpq72P6sthNJu0DZHjsfFnmE60a1IYxalL/41YOT2Yfrez56n1y6cpT98/T+TrQdH2AEOWW89jsIgzTIuh4q4bBNL0+awuvOyPa3d9/2w+6/Kz3YLIZeT7fCu4xt0TzUdZOTaBvKDAAisJwABC7MCBEAgFgEIWLHwhRaGgJUOWxthBQJWdPYQsKKzg4AVnV0nlYSAle5oQcBKhy8ErLVcIWClM89QKwiYCEDAMhHC7yAAAlYE1C+ELl81dWWlYRfPICtj25ApSjyLpAUsk4dOFCwuMbCi1O9aJswrQeqSeFJhHklx4rKZ4kkl6YHFfdJ9Pda9bLgydc3frQKWGovKhZuUlTI2wdvZG4u9siQWlZSFB5YL+XTz6q4FCFjpco+yHT5di+xrT/q+b99ysXKq8eDCPlyZPLDifPQqFlX0BgTyQQACVj7GAVaAQMcTUI8QlqOLQ4NP3zgimo8p5uOKr7x4lmaPnaXhx/dQdc8277hsKvVQ0JHjnQaMH4BWZpdp8vAJo+lyJDSX4RRbwLvBmZkyW0lJHIktD3ZyXLiMlbGTETOUBirUU+ml+uwyUaPZOj5b2md76nPX6f2nXm21wMd/8zHgkngMeCyCjuCWPKqANX10ghYnLrbaVc33xqzR9H7PUsDifsu84mPGSwMbWqaZjg+POATaYo2lFWourdDMM6dp6fQl2nFk/+o13CUpCQGLT/XjxKKUKX3qjvfozi0L9Gdv3UGLtbJ3IiCnPAhY/ZUV+vzdb9HbV/rphXd3mrpS2N9l3bj9yfuod3BDa70KErB+fPEd+j9PfZsufPtndP7b/0CN+evUrDW0bLCFUD9t5N4p91LOaRIp8jIJxfZzT5xsmdSs1akxX8uLia1nM7nv5sYwnyF8z+d7vzznuAhYpWqZeqrlVm029zKd13Ye2cAmEOh0AhCwOn0EYT8I5IyAevJamIBl2n6YN++erFC7bH+wsUk4p/GAFSV+lo3NujyqZ1/Q1+okTjJSBSyxRzef/S+TWQpY/hdhU7txuNuUdYk5YlNfp+VJQsCy8bxSubTrFEKxI4rNnTa2ce1VvT6DBKz56xP03vxRennyVnp56jYyxbGCgGUelbBDNsyl25vDb3sa9+44vcv6vh/HVinrImDpThAOsyNvY5QEM9QBAnklAAErryMDu0AgYQLsIcUeGnyTTTPpBCx+uebkb5+9abYfGl9nzuXnz9DymVnqNgFLxmjwoVWPBWEW1wNLODNTZmtKQWOlK5P2gyx78PTtHmo1v+neESqPVOnC0QnvizQLWpzmXnqvNb9sBSx+QeSk8pZ5yr+r85k9KurztXXXUdICVm3yKtWmFrzx4nGTJP2Vf3O/2UtjaWLa47T1kd1UGe2nythm0zAn/vvC8UlaOD7l2eAfs8QbymmFcQQs9qbaVK4TB2Z3TRCwXImln1+uX74OeA2TdUPWGll72BIJ4g4BK/lx8YtAfL/g+wZ7yfrX1ORbTaZG/1pve+9OpmVzLXLfl3mc9nOl2SJzDvby7x2otJ6r/CVkbsjf+g+MUv+BsXWVhvUzb2NkJoIcINC5BCBgde7YwXIQcCKQttAgxugErChxHbpNwNKdsBNXwHKaKETkMlZpzyvbuF1+m20FLOEifIO+eOu+xAbFsZItKiZPKJsYWEmcROY67sgfj0AcAStOyxCw4tBLp6zOGzFoLYeAlc4YcK1BsbDgKROfdyc/m8U5jTfrZ7H4I4UaQKCYBCBgFXNc0SsQWEeA4wGUNpbp8nNvpUpn495hqu4d9r5esReIunWCH+wlNa6teHGvOF///ptfuxZOTBJ/wRabVYO5DxyjYMvBXVSbukrs+VGElBcBi0UbTkFzRcZXHaO05pVubqjj7bdZ5kYSc2LjPavzWU3qgyy3L/NZJ2DxXOc4USqrsJOMvOtoNNybSncdyTUYh4PYLHVsfXR1biCtJ3D/bdPUV6p727+ipgdHf7GmqE1darvtioElttvYHJVPp5RbenOGrr0x07oP6q597s/mgU302KFP0egHy/SPH95E/+lv3qH/9NfvtLp65djquqEmbCE0zwa5L/jXLX624GcGb4zenDFX0qE50nhGMt2POuHZTOaEzT2N5wnPF0lpPed06BSD2SDQNgIQsNqGHg2DQLEJ6GIV+Xut81jRxf4I8rIp0tfUvAhYYTNTPdmnCLM4yOPM1YvKz0FXNix+lsrRNp5UUAws27I2Y6faHOfrtU173Z5HFZ+ixJdql4Al7UaxuejjHnqYyY3Of+yTH6VvfPsr9M2vPEvf+sNnve3RvJbYxN1rvYx/+i5iscYUP6vovIPEPt0aW1QWacS+1M3JTn42C7un4Toq6tWBfnU6AQhYnT6CsB8EckpAYn/0PzBGpb7ewLgDOgGLYwlwnAqJcyRdDHpIkngWHHun0z2x1DhlLlv5spoG7BHFMZZkjMLa1cU4U8v448Gov0lcpzjjy1+NOaaFrt04ApbEKfH3QeJ2qXE00hKwhLO0m6SAxbG1/CehSXy0pOabxA3RxRxJqp281vPx0fO0Y/Oid1Lf4kovfWhobo2pP50ddDY9aQHr3NVN9L2p1RiG/iRxu8TGV6dXPRWj2OzcyQ4rAAGrvQPG6xbHP+I4SJJst2m31/LorXPMU36mSDLmlzzXqfcF/z00jXajUzCX9N/T5HlDSumeRc21IgcIgECaBCBgpUkXdYMACKwLxO5HYooZpPP+YK8TNc5RER9G8yhguUxp21hUYXElxJspzvia4ljFEbDCxsj2RM6wLYTyxVvHPexaMJV1Gcu08upOe0yrvbzV+9judz3R6msTe2iuVknEvKQFLBakgoLLS+wtMRqeV/rhg4CVyNSOVUk3PDPEAhSjcKc/q0jXXb2nYyBDURAAgRgEIGDFgIeiIAACZgJhRxdTo+l9HVw6fYlmnjlNQwd3eXGvJKkP/fwAyomFLyr1eKc7SWourQTGCTFbmGyOsSP7qTzU5237iJvkoZD7uzK7TJOHT8StMnZ5Hh8epwtHT3kn36n95fGWVJ+7Tu8/9Wrr3+r4cn+4X954KonHdseR/a25oRtfaU94+9tfnLjonf5lK2D5OdtuIQx6cOev3tsP7fNORpz7zurpiJxuf/I+6h3csG5u+AUsZspspb8mESpIwOJ4OVyerym+tpij/1qJPQkcKwi7Fpq1uneaZJRjyx3NyGX2vApYLKhJ+kcDV+l/2DnV+vcLZz9Ab88NUH9lhUrUJBayOEHAWj/FeP3hdYjvc3y/C0txthCqa05j/voaz8lcTv6sjcrpM0PWGNJoT57Ndjx9f26eVaL0U3ffl+s3iee6KHahDAiAwFoCELAwI0AABFIlECpg3WhZ54Vh89U6VeMjVJ7kqXx+YUO81SKYlGgRNQaWLm4XN6rabOuRxGVt43eoAlKUkwSDOMcRsHReY7q5EWSzDFoUAUvKSvwOm2sw0UmiVGZzchMErHx5YPnFKPYQY6FNEntj+bcJIvaV/upxiaETR8BKwlM1zTUAdXcHgaCDBTqp57b3/U7qE2wFgSISgIBVxFFFn0AgRwRsXp5dBSz/Q1IRH9xtAmXH2VKXo+mRqSmqGCTCSpwthNKBoDmpCkm6zhZNwFKFMwhYmU5zSmILoYs3VRKB57MllF1raQhYYesV7gvZjS1aKi4B0wcVm3tacemgZyDQfgIQsNo/BrAABApNAAKW+/BCwHJnZlMCApYNpfh5IGDFZxinBghYceglWxYCVrI8URsIZEEAAlYWlNEGCEQnAAErOjuUBAEQsCDgImBZVOdlKboHli2HpPOFCWfiJRenTdP2wzh125RNQsCyOUlQ9Sg0vcSGzee8bSEUceTToz9fhzzO+JpeGGzGF3lWCSQhYHE9HFTeHwtL+Oridvnb1ZXttjEyXft+HrKF8MLiizS9dMwLnM9bNcMOM5HyRfRE7ra5gv7mh4DL/UgXKsHl2s9Pz2EJCHQGAQhYnTFOFODgUQAAIABJREFUsBIEOpYABKzOGToIWH/dGizX04jCYm+ZHmQhYFHXBnFPY3WAgJUG1Wh1mq59CFjRuKIUCKRJAAJWmnRRNwjEJwABKz5D1AACIBBAQOc54o87pAtMLmXDvF1MX72SDKaOAe5sAqZTCP29U4PH2waet4ljJfM5KIaN7oj3OB5Y0i+1XZvRVF+8VZufm/oAXT5fp89++ObpdFKvev3aHLGuem9JXTbbaW3604154ghZLjGwhG03e2DJ/UgVvuMIWF//zEX60XeXSHdQhj8ODzywuvEK774+Z/Vcp/MmtiGOOHQ2lJAHBOIRgIAVjx9KgwAIaAioL978gM9JjiHmB5H63HV6/6lX19Uw/Pgequ7ZRucOn/COH5cjmqUOz2Nldtn7vVmrU2O+1vLgiBJ/p1sHsTRQoZ5Kr1X3hXOpWqaeaplMx7TLmIVVLkdTq+PrlYl45LlXV6PpzY+eSolKAxto8BM7afChnd5/898kBQVi1QlYPMeYgcxJtV+xBayhPtpxZL83Hjwu8hCsE7DkWjj3xEkqD/XR2JH9WtQ6AUvq8BfkseUxzouAxesEJ5v5ZDWRuygTC0rNJtH8SoXKPQ3aVK63er+40ksrzRINlGvUw0+CNxJv/eP0zZ/spgb10EKtbE3sC+OnW3m53Dd+cpd12U7PqApYjaUVai6t0IWjp2hpYtqqex998Ffo3z3zb2ipfNz739ce+wf6++/MQcCyoodM3UCA73N8v5PnyKT7rD4zyPUr7Up7QfejZq3hPRfNHjtLV148m7RpqA8EQMBHAAIWpgMIgEAqBHTxhvyNqV4n8pvp5dlmu1ZWX+pSgZdRpSbvHr8ZUeI6mboRxSPJVKfLdjwXAcvkSRFXwJJ+qZ4UNp6MJiY6ASuo/yZPKCmTlQeW9A2eWKZRXv87C1gSi+pDQ3PEsaskSXwlFp0GK7XW38Xzyl/WveXuK6EKWHG8MD77pcfoc19+jD7/m1+mH/zNDyFgdd90Qo/bRMDWkzHofpREnNA2dRvNgkDHEYCA1XFDBoNBoDMIyIs3f33mL1MsAKiJPU22Hxqn3qE+6ts91Pr58vNnaPnMrPflmsuqW5BsBKwRrnegQnMvvefVyw8XRUqVsc1UGe1vdUlYqX3kBzJJ7JXEXCVtfWT3Gu7+vGo9OgGrOj6yxqtJyvH46xLbwLYsvDJJjeU6SV6/oKLOjYXjk7RwfMqz3/PcUpLYznWxt9SFoxNUHqnSpntHvHJcXp2TQXND9cDqPzBG/QdGafH1aVqZXmrNSbX9MAFLOOv66+eus1ltz78V18SZWTATdUy4/3x9+T1EdP2VssLsf/98na4vNenkXy3S7HSd3pm43jIjyS2E6nwKm6NFur6T6IuLgMXBwjmxsMUJApb9CPDaWJ+v0fTRCZIXYNN6FVa7CFh/9AdfoYlXX6Urv30/NTb3te6h7E3KyX9PtX3xtu8VcoJA/gjI80Zaz3O215HcD/33IwhY+ZsvsKi4BCBgFXds0TMQaCsBUxwrv3GmgNlRBCyp3yb+TltBRWw8idhMYSKM+ptOwLIJ0q/WpW7zlN+DPIJsY8rYfBG1EVZUAcsvoLAtLqcQqv1WWQWJUOpDcBwPLBuvMdc4dP7raeutvfStH496cXo4Xo+Olc01qPP8cpmjES+lwhZzEbDUmFcQsOynRVAsKiltugaDWhEB6735ozR/fcI7CVK2dnL+sHUyjueXfY+REwTaQyBtz3pbAUt9vuR/Q8Bqz5xAq91JAAJWd447eg0CqRNgT47K6OZWO5efe0vbJnsT9e8fo433DFN173ArH8cR4FgiQYnj9Gx5eFfroWHj3tWyCycmqTZ51futtLFMWx9djcPCD/be/4fYkTqUBBuQ/kqVV44Fs2JhQFJt6qrniaRL/rxqHikbJ7jp0pszdO2NmXVjJG0FjY3MDckj46va57dd5gbPA+6v1+6bMyRzUliFBVOXh1Hh7JUd29wSsKQ9sZnr4rnqj32htuvNyWq5NRelDzJH+d86m6WslPGLX2q7Jlbyu3+7pcpTJ0D7mVX7e+iT/2qgVfT03y3T6R8utzjr5lnQOEPASnBxuFHVg6O/aFV6y8Zl2jd80/vy1MwQXbzW1/r95anb1hjAZZcbvXTyFyPJG1awGvla9Nacg7taPZN7WRwB6y+f/ff01k9fozd+7deotmFDq+41nqpKu7LmFAwxugMCHgF5rkvrOQ4CFiYaCHQGAQhYnTFOsBIEOpaAyxcz02lx/pdnnaeMgNJ5BgV9ve5YuG0wPI6AlZV3gO5EPxWXjYCl83QL8grUxcHRxYMLi+uksgrz3tJ5UZmmR1wBS+r/ld+o0u/++S30wtNX6IWn51rN2pyeJpkhYJlGK9rvHN/KH1xdrUX17onWSneX4nuK7vCHOAKWGgNLKPvvYab7YHePDHoPAm4EIGC58UJuEGgXAQhY7SKPdkGgoAQkho50T+L+2MQscBGw+LQYjoegxgzqRAFLYiRJrCKXqaErKzEagmKP6eoPilslsV2kjMTeklhUYTGwJBaVlK1NLXgeRmrsLfndb6vEwOJ2OCaazCuJjxbGSOaG2q5aRuJX+OemlJV4YSYBS8r640nJQzD3lfss8bM43hv3Kyx+lfS374NbqO/OLS2T5TqSP0i73JYax8p2/oQJWByTjmPT9T8wRqW+3la8HWHGcXhkbmwZ6aU7xzfQ1Nkavf/OTY9JCFi2I5FevnKpSXcOztOOzYv08dHzxJ5Xpy5t9f6b//b23ACtNHpasa/Ss6S4NQcJWLJOcgw+vke5rO26IO4QsIo7h9CzfBCQeKzyrGKyKiz2paksfgcBEIhOAAJWdHYoCQIgEEDANjZTEDwXAUvK676YdZIHlku8MJWbzVYv24ka5BGUpnePaleYZ4Gth45tX23zmQSsoJdKXdwunaDjt0WNNSa/6WJv2fYjKF+YgCX5dR6UUcqGxcKyHV+cRhhtxOUUwpcnbyXeLsgnEvLfJKkxsKK10p2lggQsIRFlbYeA1Z3zCL3uPAIQsDpvzGBxMQhAwCrGOKIXIJAbAnEELI4j0lMt0/ZD+zzvKlUckIcFFlVWZpdp8vAJ7wS80sAGai6trImX1UkCFnvl9FR6V0/XazSdxlJXlreWcGJWtknKrMnfaAae+meq06tLU1bdUsfiDKcdT9/v/T//O+qWHB53SYsTF72TwaIknn88D3k+8ryUJEKSyoo589fbHUf2e2PJ4yJJthHx71TqaY2J/+GXx/7c4RPUrNW9EwPlWpA6oswNU7+5D72DG+j2J+8jHas4Apb0V8b13BMnW+Ms16/Y6CJgCatN47cQnzaKZCbAnlibelfoIyMz9JHtl7z/5r994yd30UKtvCZIuLk25PAT4Gu/Pned3n/q1db1K79HEbA2D2yiTf1V+jdf/yz9yv330O+cfoFma0vr7of8B2whxFwEgfYRgIDVPvZoubsJQMDq7vFH70EgcQJxBCz1oV/+HbTlyuQZ1EkCVuKDkPMKTTGh4sSUSeqB0nQyZhBiNfaWKmCpZdYIWJeuecJd1sn0AhxHwJK+hMULiyRg3WClG6OsGXZSexyc/cGx8y2TEQMrmdFzPc3TptVvfPsr9LFPfpR++/t/QpeWr0LAsoGGPCCQIYGknjcyNBlNgUAhCEDAKsQwohMg0H4CUV74TVaHbbnSBcyWOsMELNNLu8kum9+DXtptynGeoEDzOnFE6lS3mAVttdJtT5M6wmIzqWXFq8hFKHTZImoKxG5zOIDtVr6gcTHN57Dtlrp2bcc/y3y214KNCKWz26askwcWBKwspwjasiBg+qDyrR+P0tZbe+nToz+3qG01CwQsa1TICAJtIQABqy3Y0SgIEAQsTAIQAIFECJhe+KM0AgHrJjUIWG+R/+hsCFhRrqj1ZSBgJcMRtXQ3AQhY3T3+6H13EoCA1Z3jjl63nwAErPaPASwAgUIQyMLrxGXLleoZ5PcuMr1sxBkQm0DdUv/lv1wryujaDXtIUmOshAW5NgUIdylr44HlKo5I/4M80FQ2YQKWbbs242wbxN1fl3C2qb/deWxZBQVgty0rffTXETXGWVDweJ1nX7vZ5rF92UL47Jk76Kezg3k0sSNtMt1TkvDACvPM7aQ1pyMHGEaDgI9AmIc7QIEACKRPAAJW+ozRAgh0BQEIWKvDDAFrlUPYyVzqBaE+DELAym7JsBWhIGBlNyZptgQBKx26ELDS4YpaQSCPBCBg5XFUYFM3EYCA1U2jjb6CQIoEshCwXMzXCUl+YUXqUz2hdHGdOL8p9paLjUl497TbA8ulvy55XQOiB9Utc1I3vqpQ5vfu0ZV16UMn5LUVsKQvYV5Upv6m5YH12S89Rp/78mP0h6//Z3rtwlmTGV39OwSsdIbfVsD64mv7WgK/yRI1BhY8sEzE8DsImAkEfYwxl1rNEeVjm23dyAcCIGBPAAKWPSvkBIGOIlCqlqmnWqbG/HVq1hqp214dH6Hth/Z5bXLbssUs7YZ7KiUqDWyg5tIKNZZWWs25CFhXXjxLs8fOtlhFEbBKAxXqqfRSfXaZqNG06vaWh3fR0MFdrbx8DDsfx87t65K6VWTk0DhtGr+Fzh0+4bUdWnbiIk0fnSCdcGZTVmy+cPQULU1MU+9QH1GJbyWriV/kOLEwwhzYJhkjtU/CysvrS1wH17vjyP51GNR2pb0gXjIneWx5jGWMbn/yPuod3NA69U/a5/7Li6ha1mpAOzCTcF46fYlmnjm97jpSu5SYgHVjfKVdvg54bpnWjaAthCJg/cEPXqBXJ99eNyc7cFhSM1kErBfe3UlvX+mn+ZUKNe2Wq9RsKkLFvJbxGtys1akxX1vXJdlC+Hsv/ZL327knTq5ZL4MYQMAqwsxAH/JCQJ5Vdjx9v2dS2Km/8vys2i5l5e/tODk4LzxhBwi0kwAErHbSR9sgkCIB21O9kjYh63ZtvWyCXrzVvpviOnF+nQeW6gkVhWuYcCb1JRHrRCdgJWFzUKwxU4D/KF81bYK4q/3RjZFLbLUojDqhjK3HWVICljBx9dwME7A+/5tfph/8zQ9b23g7gXvWNoqAJe1+bWIPzdUqWZtR2PZ067MaA8vGCwQCVmGnCTrWBgIuzwymE5PbYD6aBAEQ8BGAgIXpAAIFJdB/YIz6D4zS5efP0PKZ2dR6yd417K0iqe+DW6jvzi2pt6u+AKvbxNgzqXegQnMvvedlHXxop/f//G/+O/+uJmHV/8AYlfp6iV+u/YlfThrLdVp4ZZLKI1XadO8ILb99hZbfueL9N//twtGJwC/wXI/Kqja1QLXJq60mxGa1Xc7AXnTs8cRjyXa2eO8e8jxO+De/p52/DikrZdSHM/bKqgd4Dfj7zh4GQfNIHgqZjfDl/2exSBX7pD6uh+tjjsxTxkZ+ZyFRZaWWFVacV5eYS9/uIRLOqoAljPztMwfmkWaSdoVZmm3Z1m0rYDFD9TqyFVX9ZWVOxhGwhm/dSnt/9UO058O76e57d9Mff/Uv6M2//6l3bfM1HnQd2fIoar59w7O0b9tl2rF5kforKwQBK9mRlvVZXdujCFj/6ov/gu751V+i/9D7Y1qg615cQX/i+c33Kb5fqfeFZHuF2kCg8wnoBKyg+4Q8x/Lzg//5Kux5o/MJoQcg0DkEIGB1zljBUhDIJQE1VpHtyXpJdcb04q1+6Q47aU9sYrdwFl+CPIOinp7GdduyCrJRF2MlildRlFPbdCJFWNB6nYClerqFxXZR54lpi5n6gsd8ZE7q4oXZBI1Par5yPTbeF0m2Z1OX6TpS64hzfHhQrDGp3zS+/rIf++RHib1UvvmVZ+lbf/jsum7aXOs2bIqY57Hd79KHhuYgYKU0uOp9MIqAJabpXryDvBFT6g6qBYGOJxB2Hamd0z0zdDwEdAAECkIAAlZBBhLdAIF2EbAVZdKyT168l96coWtvzNDCick1Xk0s1vjT1kfX/jvILo6X5I+nJWWCTtbbuHeYqnuHje1yOxxXgeP8SBKbbdg0rq14cZwqY5upf/8YeWXfnPE8nZiBiG5qf7luKSvtJClgcX9KG8utLggrfgCU5Nl8YKz1bxEp1LKS4fJzb60T++Q3k8DhZ6myYhsqo5vpCsc7W1rxYoFx4vayTO1qN6yPwkryqNeRWjYpAUva3XjP6nVkGl8XAUs421zzWY5/HtpiT6xb+q7RyfPbableyoNJhbLBJGD512l1fRYQsl5562S1vM4DCwJWoaYMOpMSAbmO4lQvzwxx6kBZEACB5AhAwEqOJWoCga4kkBcByyRwRPHG8Mdz4vqDBCzdoEdpT+oK8whSPWWieBUlKWCJzWHeaiojVaSIU7YrL7oUO20bwy4pAUu64tKuePaZPLB0czNFfKgaBDwCJgHLPzdN3rW6+wIELEw2EDATMJ3UHPS8ZXs/MreOHCAAAmkQgICVBlXUCQJdQoAfDNRYRe3aQrhwfJIWjk95sUA4vpIaIymKoKTGdeJ/S38lBha3yW1LihN/R2JRSbsSM4jrlthMalwnidGgxu3yx1dS4zolKWDp+usX+3QClk1ZNbaLjK/UKYwQmyKZRcf2wZ2FVIklJ/HR1GtBZ1FQ7B7bdvk67qcN9L/VP0xT712g//rdv6d/eOvn9LMz57QAolz7ydBELd1KgGMbchwsiat4z4GNtKGvhz7+LzZ7SL7+mYve/4eJUPLiDQGrW2cR+p0EAbmOJE6oxEWVuoNiUbJncGW0v/U8qbPDi/WZQdzMJDigDhAoEgEIWEUaTfQFBDImEPRi2C4BS203LDaTK6agL3Sm0w9d2+D8sg1Qyrqcjhd2gqH6hT9JAUvXro2AZVPWFCA8j/Gkoox9XsrYCklsbxzvy6ix5Hi8t/Vtpj/9J/+rd+IgnzxoShCwTITwe1oEVG/T56Y+4DX16dGfQ8BKCzrqBQEfAZMQHAcWvCDj0ENZEIhOAAJWdHYoCQJdT8D/Yshfty4cPUXNpZU18aPShsQeUaWBDevaZU8lKvV4wdg5xXmJlTpYYJKkCljsTbRp/BbvxBpu1yZxTKvZY2dbWW9/8j7qHdzQ+ve5J062/pv/zr9L4nJcXlJou42m55UmieOp9FRvxq2Sv7OgpEsiJHE8lqGDu7yx5jG3EaHUOhvzNWrW6lpWnmBY6vF+r+7ZRsOP72lVIe22+r1to/efMkY23JFHT8BFwJIx4nnP899FvI4qYHG57bduo+9MPGstYHEZTmHzG3MCBISA3Mt4nfPHLIxCSNa6c4dPeGswBKwoFFEGBKITKA1UqKfS26ogyWcF796iPF9FtxQlQQAEbAlAwLIlhXwgAALrCMSJg5M1zjgCltjq98TSxaJy6ZfOayyovTjeLrY2hTESAUsVOKIIWCZ7gjhLGVOQb1Pd+D2cgJOAdaMq1xMMuVhUAYvLjtw+TN/72fPWApb0OIk1APOn+ATUtS6JHot3LQSsJGiiDhAAARAAgW4mAAGrm0cffQeBmATyLGCpwkpYYHQVQ5goI3mjCFi2W/mCgsfbDlVQQHRdWTW4adiLvm4rn46zi1jgMja2HJAvHgHd3AiqVa6FKCKj6VCCoPYgYMUbW5QOJ6CudeoWpCj8wgQsU33q1nL/Oq0LAG+qE7+DAAiAAAiAQKcSgIDVqSMHu0EgBwQgYH2ktW3K5iUHAlbwpIWAlYOLWTEBAlb+xgQWZUMAAlY2nNEKCIAACIAACEQhAAErCjWUAYEuJxDkXWMKtp01srCg5iZbdF+8uZxu65NaZ9KiTNQthP4go1E8ZdT+qv108cByiZFkGiP8ni4BFwFLLImy/VAtK//WXYNvLP+/dGn5Kv329/+EXNccF6/AdOmi9rwQ8Hu76ryZbD5O2PbH5b5g8pB1qcvWPuQDARAAARAAgbwTgICV9xGCfSCQQwIQsH699fKsO9Ev6ZcLCFg5vBAKbBIErAIPLrrWIgABC5MBBEAABEAABDqLAASszhovWAsCuSDgF7DyGoMjjgeWCjlpMco0iC6eIhLUPO1g6jqb48QaM3HA7+0nIONrcw0k6YElPVfbdfHA4rxqEu+t9pOFBXkiwPNMYqvp7GKvP54/cZLNdST1wwMrDmmUBQEQAAEQKCoBCFhFHVn0CwRSJNAJAtbYkf1UHurztvzFTfLSEefIZH/ZnkqJSgMbtGaxaGCb0hSweBuX6Yho4Sz2emWQCkPARcDa8vAuGjq4i2aeOU1Lpy9RfXbZmz82ScrydcHXhyS59lhc4PT8D79Js7VF+p3Tf6XdQtg71EdU6vFOKlTT7PJVOvx3/9HGJOTpAgL8AYYTr1vDt26l//u//XGr1z3VMpWqZWrMX6dmreHNG54/ce4psj5Ku2GIIWB1wQREF0EABEAABJwJQMByRoYCIAACnSBgySi5eDPpRtZmm4lpVoTFojKVDfs9TQGL282rh10cZihrT8BFwJJao2w/VMvKv+XaE2+qe/p+fV0cOrU3SXpf2pNCzk4kEOYRpfMoTPKeAgGrE2cNbAYBEAABEGgnAQhY7aSPtkGgQwnwCyonDgqed4HDb6srbg4SzWnupfe8/x98aCc1luu08MqkdVVSB9shZft2D9HWR3Zb1xGWsVsErMrYZqqM9tPymdlVzx6k1jXI3iFLE9OpEIkiYPHc5jnO1wnPebkGbAxUA2bz/Ob0307+hff/fgGL58Ll58+sq7b/gTEq9fUGNsfeXdXxERtTkKeABO4cnKdyqUk/nR30ehckYLEHH8/fvg9uob47t3hzjOeapDj3FKlD5nXQtSFr3aZ7R6g8UqULRyeoMV/z7rdyH+L/lzoKOEzoEgiAAAiAAAhoCUDAwuQAARCITMDvVRS5kowKRvlq7ve8kpcdNZi6yXz/C5JrWVPd8hLDL0FpxMDi+vMiUMaJr2TDsVPzpH0NRhGwhGWUsroT347903/tVesXsHRjZnOKaKeON+yOR+AL46dpsFKjL762z6soSMCS01pNp6ZGuaeo1ge1b/L8comjFY8WSoMACIAACIBA/ghAwMrfmMAiEMgNgf4DY1QZ3UxXjp2lxtLKOrvSfnlOEgS/FHDa+ujq/9skeVGQslyGY6JwvB5T4pcf18T1cv0uSeeB5W8/js2Nayt05cWzLiYlmpe9Efr3j9HGe4apunfY8zpw8ehJ1JgcVsZzM80x8ubkxptz8vJz9vNaLSv4wuqQNUeuhU/f+WtrqH/17i+tXoMH9degbr3iiqKKyHw92V5HOZwmXWvS0pszdO2NmVb/v/b712jLYHOdgOVf4yWzV/bNm2VViH4Bi++P/nVS1iu1jKzLch/yi1Gy1kmZhROTVJu8GTRe2oOA1bXTGR0HARAAARAgIghYmAYgAAJaAqZYNp0kYEknXb6aqy8KUcq6xAuLErtHJ2Cp3mM20zyPL0biDSH2Q8CyGcnk88R5eVavG5t5JteCeF4d/C9/5HXKpmxY76MKWNxu1LLJjwZqtCWgelF968ejtPXW3nUCln+OskBusz0vbG0XLyrVziCvXslj8vyKcw3a8kI+EAABEAABEMg7AQhYeR8h2AcCbSTAcUA4HgjH1+E4O2riB26ONcMxZ3TxaOKYP3JonHoHKlYvE7btRBGhXMSv6aMTVJ+vefGyOEncEv5vXawiibHCsXk4Ro/EWLHpk8SEknhDUjZMwFo4PkkLx6fWVZ8nz6bSQIW2HxqnleklWnx9mvoPjBJ750DAspkVyeeJ8/LsvwbYMr42+Brha0WX8ihgqfGzZE4mTxs1xiUg96Pa1ILnxSRx2Z76zAXasrlB/8vB614Tsk5LnEP+G8fY88e80tkSJGBJfMPlt6/Q8jtXWu1KHbLGyjXB/5ZrAQJW3FFHeRAAARAAgW4gAAGrG0YZfQSBFAmIV4LtV2sXU6LE0DHVn7aAJfF3XNpRRRmXstJftd0wAcsU28XEMIvf1XmFGFhZUNe3EUfAUmu18dzMo4Cl9kPnZdPekULrTEC9H4k3scTA+vTozz1QceZ1kIClilC6mG7+UZI4gxCwMHdBAARAAARAwEwAApaZEXKAAAiEEEhTwGLvLyr1eIHEk0psb3moj8aO7NdWOXn4BK3MLrfa5ZdpTlxWTRz3ZPbYzRhRtz95H/UObgjMq2uQT5hq1uqtn4PaMfVfJ2AF1dVcWgmMaWZqI9PfSz2e9x9zYT4cf6inWqbhx/dQdc82Onf4BE4jzHBA4rzoq2bynORrhK8VSXwN+WMI/dV//1O65fZt9MTf/Ucvy6Xl1VhA/rVgceJiqBdXEJ6o2wCDti7KnNx+aB9ONsxwLto0JQIWx1IbOriLZp45TUunL9E3vjdMW7eX6Pde+qU1a3qUralrPjQ0mt561FPpJfYe5ZhYvM6WBjZ4XrWh6UZZto/tVNdnvlfxPevcEyfXXQM2LJAHBEAABEAABIpEAAJWkUYTfQGBNhBIU8BKqzuml1j1FLMwjyjVmylKHKsk+qkTsJKoO091mOKy5cnWItmSpIDFXNRrUL2Ovvez52nk9mGS2FdBLKN4fZqufd2YhQkcNl42RZoLndAXmRuq56YaA0v6ElvASgCKbj6n4YmcgLmoAgRAAARAAATaQgACVluwo1EQKB4B0/aHoB6bXmLTpqQGCJf2wgQs2e4hedu9jajbYkJBwEr7qgivP2khSxekXxWw/Ftibbdc2aw5tjSDBA7dttYoW4Bt7UA+NwIijKa5hTCpAP8QsNzGFrlBAARAAAS6kwAErO4cd/QaBBInAAErcaRWFULAssKETAkRgIB1EyQErIQmVYrVQMBKES6qBgEQAAEQAIE2EICA1QboaBIEikggioDVbg46748wu6JuQYrT1yjbW+K0l6eyOi851cZuZpTleCUtYKm2f+PbX6GPffKj9Nvf/5NW3Ct/nq9+5NS67r48eSu9PHVb6++qB2UQH9t5JWXhgZXlLEu+LRH6ZQthkkFEnnFcAAAgAElEQVTcw+aGric2h2zA2zT5eYAaQQAEQAAEOp8ABKzOH0P0AARyQQACVnrD0M3ijK3Q0M2M0pt562uGgHWTCTywspx58dqCgBWPH0qDAAiAAAiAQF4IQMDKy0jADhAoCAHdS10eu2fywMoqlk23bQPM41yATW4E+NpQ48G51bA292e/9Bh97suP0ed/88v0g7/5IamBq/3CmeoF+eDoL+jBsfP09c9cpB99d6lVVrXHL3LaCqNSh40Hli7YdlbrSBz+RSmrm5O/++e30K/8RrXVTfHAkj9Emc9BYm6UeaWLBQkPrKLMSvQDBEAABEAgSQIQsJKkibpAAASokwSs6vgIbT+0j3qqZSpVyyRCUu9QH1Gpx3sRNiU5Lt2UL+z3C0dP0dLEdJwqUBYEMiXA10Z97jq9/9Sr1KzVqTFfi9W+KmCNHdlP5aE+OvfESa/eHU/f7/0//5v/zr83aw1qzF+n/XdcpgN3XKY/e+IC/X8nlmjHkf3kXcM30uXz9VZZ+dum8Vto5NC4tc28LZEaTarPLlNPpUSlgQ00+ImdNPjQTpp55jQtnb5Etz95H/UObiAvry9560ipZ41N1g0joxMBHp9zh0+0yvT11qmv1KDfeno7/fL+mwLWZz88tW6M1LKmhuX+4B9v13kVFAD+yotnafbYWRp+fA9V92zz+sO2IYEACIAACIAACBBBwMIsAAEQSJRAJwlY0nHVZvGksAEjQYJt8iIPCBSJgHiO6E5Pc+mrKmBJWdXLxe/NJO3K9fvY7nfpQ0Nz65pV4x252OXPqzv90MZTph2x86L2s0jlxDvv2TN30E9nB3PXtbATDOGZm7vhgkEgAAIgAAI5IAABKweDABNAoEgE+g+MUf+BUVp8fZpWppc8zyL2lMhTYg8K9r6S1PfBLdR35xa6/PwZWj4zq92CFNSHIgtYvB1GTbWpBapNXs3TcMKWNhFIQsAavnUr7f3VD9GeD++mu+/dTX/81b+gN//+p60esTjEae6l97z/53/zesLrCq8vvM7I9ftPRs/Tjs2LrbKyZYy3FnK69UsfoZVGD709NxCJGHuZXTg6QX27h2jrI7tp4fgkLRyf8v6b/zZ9dILqGk+0vsEyffTffrDV7vvvrND7Z296rfF6xOtStyYWI9XEXnTMVZekjH+dkrmxZaSXPji+gbbPTtPI7DR9f+pWOnd1k7YurkPK2o6BtBtke+vesnso1PMuTMCS+1Ee76G2jJAPBEAABEAABJImAAEraaKoDwRAoPWiyQ/4NieCZY1MF3NE7IAH1iqJoNg9RRbssp6Hnd5eEgIWnzjIJw9+8yvP0rf+8FktEv9c1HlCqYWfm/rAuvrmahX62sSezNEPVmr0hfHTrXZfePoKvfD0TW8xlzUnc+MzaDAoxpgpnlTQSX4yN1i85LhXKmddV5KKgaXWL955unbDBCwpk8d7aAZTAk2AAAiAAAiAQCABCFiYGCAAAqkQsNlWk0rDFpWqAtbSmzN07Y0ZWjgx6XkXubxMFlnQ4Zc6jvHFMVkqY5uJveuElWC+cuyslwep+whw3LgtB3e1Ou7NjTdnnED8o9076J898nH6++On6LXjp7RleZsgp62P3tWak2pmuX7l7596Yv2WMbH54vJGOjWj9+4J6wSvEex9paYtD+/yYulJ4rWBE9vR19ug+2+bpovX+rx2f/QnU/T6f7gZh8kru7Hs9a8bk7Dy91235ghnEbCC5sY9d9fpc49fz72Axf325uTDN68jdfxdBKyNe4epune4dS/rxrmEPoMACIAACBSbAASsYo8vegcCbSPQSQKWQJKYIxCwVon4vRJ03hAuL1dtm4xoOFUCMjeyEHPDYmDZxAzaemsvfevHo148JI6LFCXpYn6p64YILH5PMGlXxwonFq4fEZWVzWmPHAuNY6Ll3QPLZv65rLGdGIPShgHygAAIgAAIgIAQgICFuQACIJAKAY5dwjFM+h8Yo1Jfr3fCXx4SC2tqDCyJZcPxr/i0p04QsCTWmMRJSYOtX8BS49FI3B+Xl6s0bESd7SeQpYDFbfUOVLwTBPla5Wu2MtrveQjK9RtGpNLXQ/cc2EgLtXJoTKSwOqRdNY/EsWLhhNPVG3GdeDvb4kovvfDuzla77MXF8eTUFBR3rv0jHN2C3Vtuo0c+eB/97fPfp799/nvaiiTWWdB9QuLuyZqz8MokNZbrpMae4vVqU7lOn7rjPZq9voHeujJAEmvMtE66bCFU47LZxMDafmicSgMVJ5BRYmDxdcDXg8214GQMMoMACIAACIBATghAwMrJQMAMECgqAd3X8nb11yauUycIWFl8aQ97qcuzh1275la3tpulgMWM836i31c/sn4rZLtib7V7Tn5k+y760r3/s3WMs6BYWNIH05rD65XEGlM97EzeeS4Clnoypg1jl3uK1Gey2aZd5AEBEAABEACBohGAgFW0EUV/QCBnBNhzh0o9xMF125n4BUJeflU7ZIsKe3VsGr+F3n/qVarPXfc8sXSJT4a6cPQUNZdW2hIDCgJWO2cT2vYTyFrA4vWE1xW+Vvma5Rhts8fOtkzacWR/6MlvUUevv7JCn797Na5VWGIRhdNnP3wzxlWTiOZrFa3Npjr5d+mvTV5THj4xcXHiIqms2KOSU9jaJ3UzC2Yi/ZQyUgfn+9hv3EdHn/23WgFLypx74qRX7Y6n76eV2WWaPHyi1QWODzV0cBfNPHOalk5f8jzvqMFEVxNvCeXEwubcdJ3+3SfP0UqzhxZXbsYjG358D1X3bKNzh0+slldSHgUsPvWyWau3LPVzNY0vfgcBEAABEACBohKAgFXUkUW/QAAE1hAIiy0jApb6hT+sjC4OTlbYIWBlRRrtmAhkLmDdMEjXbhRvF1Mf+Xf1JEFTmU+P/nxdljisTKfymezx/66L9xd0sp+uXj5VkZlIP4M8k0ynTKplgoQk01rnjzF2+Xx9jXAottt4b8kJhiaOWXlgqXaEeaeZbMbvIAACIAACIFAUAhCwijKS6AcI5ISA6WWjXWYGiVEiQonNuheGsLLt6k+a7fr7q3upM70Qpmkf6s4ngayv/ThikBDUXftBhG0FjrDRScJmtf4kt2nbiDNy7YuA9cXX9nkmBQksqoAlZaUPQWVki6i6Ppu21Nl4UekC7duUFZttGOnmQBJB+vMsZOG+kM+1GVaBAAiAQJEIQMAq0miiLyCQAwJZv8TadhkCli2p1dMHJUHAsufW7TmzvvaTEIMgYK2dtTbiDASs1fUxipAEAavbV0n0HwRAAARAIC4BCFhxCaI8CIBArgnYbAOEB1b0l1icQpjr6Z+pcVkLWNI5l3bjBICP44EV1asobAB1W56jCCtqO/51U90u7SJgRRkjKeMqULp4UUkbUbxrbUQ+qV/ncWbzkSDTizdmYy7XYMymUBwEQAAEQKDLCUDA6vIJgO6DQNEJQMByH2GbFzRsFXHnWvQS7XqJdWkXApbdLISA9ZoWlM36CAHLbp4hFwiAAAiAAAi4EoCA5UoM+UEABDqCgC6QM3sn6Lwh1I4FBTSO6oURxTugXaBtXtAgYLVrdPLfbrvmhq7dMG8Xly2EQt50gIOLaG6K6xQ22qb+JuGJxe3rgserMbDCbJWDMmxmb1RvtShrbNDcSCNYvtpv/xqr9lfNG3YoQdT7kc04uORxEZGlXlcPOxd7kBcEQAAEQKC4BCBgFXds0TMQ6GoC6kM/P+hz4i1vvUN93vHxfCQ7H83OR7TzUe1qkmPL+Wh3TvyiEfWFge1Rj4fP6wDJy1XYse3bD+2j6viIx1PY5rU/sCtbAu0SsEYOjdOm8Vvo/adepfrc9Van5frlP6jXYBYClv/6WJy4SNNHJyjKC790qFQtU0+1TMOP76Hqnm107vAJqs8ut/prI0C7zAgRGhpLK9RcWmkV/T8eeIcG+1bo9176JWN1s8fO0pUXzxrz8RrbO7iBbn/yPnJl5SJgcTucguYGr2u8vqmJ7xtU4sfm1WSz7l04eoqWJqbX1cX3A939SDI35q9Ts9agPAtYPZUSlQY20OAndtLgQztJ19+ggZd5xfOC54f01zhJkAEEQAAEQKCrCUDA6urhR+dBoLgEdKdN+Xts+6Xd74kVVcDqJNIugYYhYHXSyGZja7sELOmdzbUvebMQsII8oeIIWKayaQlYqhfVt348Sltv7aVPj/48sYkVJEKZ+iuNuwhYURi5zKsoQNT7kXjn5VnAiuNFpetvFHYoAwIgAAIg0D0EIGB1z1ijpyCQKwL88Mpfl4O+TscxtG/3kOdhtf3QOJUGKsTbfTjxy4CaXAUsfjFvLNdp4ZVJz+Nh+cxsHFNzW5b7qUuV0X6qjG1u/QwBK7fD2DbDtj6ym/g65OuErxe5BtM2SL32pb2wrXRpCFjq9TP30nvr1rr+A2PUf2CUFl+fppXpJW8d5PXQJpkEHWk/qF2b+iUPe9ewN1J5pEqb7h2hheNTtHB8slVFVgKWiRWv45zYA6g+X/M83NQkc0P+znl19wVd2f4HxqjU19v6Oeie4sI3qB2+diRdfv6Md48JE7Aa8zW6cHSibfejJAUs6a/LtRCHN8qCAAiAAAh0JgEIWJ05brAaBDqegMvXcpfO6k59CqrDVcDiOkzxSlxs7cS86gs/BKxOHMVsbJYX76RiMZmsVq99yZ+1gKXaGbbWRfFWMwlY0n7cNda01mUlYEl/4sT8crkvqOMXZYxMc9Xl9zABS+oxxWVzac8lb5IClrSLe4rLCCAvCIAACHQfAQhY3Tfm6DEI5IIAv4Q1rq1YxUWxMXjj3mGq7h0m/lrv9xAKe3l1FbDYZo4/w/Gy2vXCYMMizTwqZ7xspEm7s+vm66S0sdzqxOXn3kq0Q3yd9+8fs64zqP00PLDSErDU/i6cmKTa5FVt/7lvkmpTV9d4T9lA0wlY3ho7upm+9vvXaMtgM5EthH5bdfcFVUjyl+H++MfXNDdc5mLaApZ3Tzm4PgajjK96HQWNXZTxtZkDujyqzUtvztC1N2esqpSy3hgdGCOv7BszrXs37ilWGJEJBEAABLqWAASsrh16dBwEikVA9yKapIAVdrR8sWiae5P2S53ZAuToFAJR4g3Z9M02hk5Y+50kYEXxdjF5UYVx1pWVa19OIUwiBpbNHFHXnLAytnPDZp6lvdYJZ9WWOCdU2vQrTp4k5pW0L7HV0uYcp78oCwIgAAIgkB8CELDyMxawBARAIAYB9UWU46BwPJSg+DscG4tjZHGsLI6NoksS40TqiCNg8cO5Lj5LjG63rajElEG8krYNQcc0bCNOmDoTFJeNY0dxDClJHC/Ifxqf/L3dAhaLKRw7iWMosY0c60eSy0t7FAFLjWPVEg1uxFfScQ+L95ekgOWP18W2hMVLkzVHYlFJ7Cv/RwpZ223nhmne8e8uY2RTn5pHxoj754+BpROwhFnSMbhcbE9CwJJroTa14HkSps3ZpX/ICwIgAAIgkF8CELDyOzawDARAwIGAS2wm3RdvtTnVeyuOgBU3Ho0DCmQFgVwRSELACjoZ03Ybb7sFLB4MkzeTzbapKAKWTARXjySbuF1JeGBFmRthpwHGEVbCxDzmZzNGcS482zGKwiyOXUFl43BO4lpIuj+oDwRAAARAoHMIQMDqnLGCpSAAAgEE+JSs7Yf2UU+17MWnYs+rxYmLq54YjWYgM5OANXn4BK3MLtOOp+/3yvOLCyfvpW52mc4dPkHNWp34BCjbxG2yPUEeIrZ1IB8IdCIBb+4TrbuewvoydmQ/lYf6WlnOPXFyXXbba9DfPl/XfH1L4jWD1w5eQ3gtsUm2wpm/Lllz+KTBxvx1mj121ov/xx5DPZVeuv3J+6h3cENrrVlTdqiPdhzZT0unL9HMM6epubRCjaUVG1NbedjLpzSwofXv4cf3UHXPNm8t03mt1S9dC7QnSQ+sKGKMKmCxnZLqc9fp/adedV6fg2By7Kmhg7s85sw+7J7iNBiazDJG3Ca3rfPAkvns73ec9uUe6lRHqcfzYI5zLahl4YHlNALIDAIgAAJdSwACVtcOPToOAsUgYPvVOuhlUkdAvrSrL1fwoirGnEEv2kPARawI87KJar2NV5FN3XFe2qV+ifsj/w47sTGOt4uuPyaxwIZVXjyw/H3UiW4246rmsT3tMUrdYWWybtf2MJMgm+NcCxCwkp45qA8EQAAEuoMABKzuGGf0suAEullYcRWwgrYi6V4mZdrIVsJu5lzwSwjdy5BA0DWoNp/Gdi0bUcYGQ5SXdp04ov496NCJNAQsVTizsUMVVr7141HaemtvpFMIwwS7qKKbzdiF5VE9c9X7Qtz6/eWT2tYqgl0cESpOv6JcC+p8dtn+H8dWlAUBEAABECgGAQhYxRhH9KLLCXSzsAIBq8snP7rfcQQgYBG5nJoKAWt1ipu8xuJeCBCw3AlCwHJnhhIgAAIgAALxCEDAiscPpUEABNpAwC/YuQY2DgrErnuZlK7BA6sNg4wmQSAFAqYA0i5NJumho9symfbHCbVd/5rH3lXsZaWmZ8/cQT+dHaQoWwijiFBZbKlLm7PLvNLlDRJ+s/DACvIKjNMfXQxKXcyvOG2hLAiAAAiAQPEIQMAq3piiRyBQeAIQsAo/xOggCKRCAALWWqwQsFZ5QMDSX24QsFJZilApCIAACIBARAIQsCKCQzEQAIHsCfjjhkTdVhMkfpl6kvQDvKk9/A4CIJAOgbwKWGpv/d42SQYml3ZMnlDc/mCl5nlZ/ei7S/T1z1ykTz0xSJ96Yov33/w3lxhYUbyoXLeHc9/Ea0xs1s0i1Zspj2u8jJH0we8JzH/jf5tO1FXL2lxVartR6rBpJ8r42tSLPCAAAiAAAsUmAAGr2OOL3oFAoQiwtwAnDvDMR3jz0fKLExdp+uiEdT+5DjlqfdP4LTRyaNxYNo8vN0ajkQEEQGAdAVk3lk5foplnTlNzaYUaSyut+EouyJLcQhgqYM0u07nDJ7Sm1WeXiRpNF9ON8aTG//Yh2lRZod+661164wfX6Jv/+hL9889tot/83Gbvv/lvX/iLERocLtFnPzylbbunUqLSwAYa/MROGnxoJ104eoqWJqa1+VmQkVTds42GH9/T+repLGfUCVilgQr1VHpbde14+v41NvA9JW+J7018j5IkNgZ9yDHZ7nIPk3b5WqESvyasJmmfBVU1lapl6qmWqTF/nZq1hskc7/fq+AhtP7TPaXytKkYmEAABEACBQhOAgFXo4UXnQAAEggjYfrWWsi4P/yAOAiCQfwJq7Dyd10lYT7ISsEw0o5zYaPLAem7qAzRXq9DXJm4KSA+O/oIeHDvfMoeFq8vn66HmJRGj0NR//+86AUvnzeRSd17ypi1gST/DtpeqLKJ42OWFJ+wAARAAARDoLAIQsDprvGAtCHQlAX4J4sQnHsVNXFfvQMXK80oVsLgsf10O8yCIax/KgwAIpE+gb/cQbX1kNy0cn6KF45O58cCStY69lSSxFxN7q0iqTV6l2tRC698Lr0xSYzlcSFKJbrp3hMojVbpwdIIa8zX6ld+orsnyPx3dRYsrvfTCuzft2HPtHP3ytXO0cfeQ5wHLnlgLl8O9bW5ynvRYmxILTbLGLp+ZpcvPnzEVaf3Ofdi8tUSf+6NtrW2PlbHNVBntJ+mvZOaA4Z2W1LnBfWDPsu0BXsTM3fOgupGkvy73UPbE4nultBvGru+DW6jvzi3eePG4IYEACIAACIBAWgQgYKVFFvWCAAgkRsD/xTlupUEnOZnqxCmEJkL4HQQ6m0BePLCC1jrVY1T1/NJ5yoSNiHriG3tc+dMXX7u5tUv+Lu1GYeUyO6LG/PL3QWJgFckzyOU+mGQcK5t7ZpreiC5zB3lBAARAAASKTwACVvHHGD0EgUwI8Jfu/v1jtPTmDF17cyaRNrc8vItKG8utui4/91bsevmFhuN1cN22CQKWLSnkA4HOJBBFlEnypT1srfPWq4Pr16uFE5PE3lhq2aAR8NbnA2Otn9jrjMtK4gDtnGSNfXnyNueB3ProXa0yHFfsyotnnevgAo1rbmXFdg4wv1wv0clfjND7Z1fov/4/izf7e4NVJIMSLMT3Hz9nl6qlbFgZuf8mKWBJu2Hjm+R934UJ8oIACIAACHQfAQhY3Tfm6DEIpELANdaJjRHiWZB0DKqoMbA64ah1G67IAwIgsJZAuwUsl7UuileReuKbbvzD1lpTu2mfnKiz2e95pcbtSlJkTOKacfGi0rUX5hFl8pKLcy9t1/gmwR11gAAIgAAIFIcABKzijCV6AgJtJZCmgCVxO5KKWwIBq61TBY2DQKoEJHaPy3ohMYM4nhDHFbJJSYojT7zySzSwvUxXQ+L8nbu6ib4/dasX04k9qjjWkHcC4Y30L3e/u8bs/+vMHa1/r0wv0eLr+tP/JGNYjCRdPCkpO/fSe632sogV+Lt/vnpCn8TvevbMHXR9boX+7g/eadnBscL8nmY245pmniTiOcYRsOLcS/3tRo1TliZb1A0CIAACINAdBCBgdcc4o5cgkDqBNAUsMT7O12M/AAhYqU8HNAACbSPg4s2kGukSTypJAetbPx4lPkEvLP10dpBYpNGlr37k1Jqf/HGsWLhwEfTC7Ehye1qcSRIUtytq/Kw4dmRdNo6AFedeGtRukvMqa45oDwRAAARAoDMJQMDqzHGD1SCQOwJJCljsQbFp/JbVU5RKvEytpjgCFr+YcuIj57lOrpvb4LZMiV+KOJ174iRRo7nG68FUFr+DAAhkSyCOgCVrjqwXYZZznKfm0koindsy0kul0vqqvPXqRvrl/VX6rae3a9sbrNS83742scf7/8/dfYauTNfpC584T81a3TttMInEHmo9lfVim6yTSbQRVAefLnjPxza2fhLB77MfXj3dkLcPZrE+q3PDP0Zp9d1fL3+A4RQ0R01bCKUeHquV2WWaPHzC2uSgdtkTqzF/nWaPnY0c88zaAGQEARAAARAAASKCgIVpAAIgkAiBJAWsNL7wB8UesY0LI4DiCGiJQEYlIAACRgJxBCyp3ObkNaMhCWTwrzm8VU62zYVVLZ5X7JF1+XydROBJwJy2VsF9l+2CfkM+PfrzTO1S50a77gtBc9RWwGJgUb3VwtrNdCDQGAiAAAiAQFcSgIDVlcOOToNA8gSSELAkSLBqXRIvCBCwkh9z1AgCeSYQJWC2Kn7ZCFm8NS8sdpSfkSqau5R1Zc22s1fWF8ZPk2w/THLbo6s9QflVvuo2SH+Zr3/mIv3ou0tJNJtoHf4+ZLmlrl0CFsPTbcNPcz4nOmioDARAAARAoGMJQMDq2KGD4SCQLwIQsPI1HrAGBLqdAAQsCFhZXAMQsG5ShoCVxYxDGyAAAiDQ3QQgYHX3+KP3IJA4AdNR69IgP/TLFgbdVj6OLZJ2XJXEAaBCEACBXBCII2BJB8T7M8wTy+alXTxWsvTQ4T5wnCgOEC/p5clb6eWp21IdnzAvKlPDWW8HNNnDv8uWdpv7URIfcmxskjyqJ5TLFkKXdmzz2lwLtnUhHwiAAAiAAAgEEYCAhXkBAiCQKAEIWIniRGUgAAIRCUDAgoAVceqsKQYBy54iBCx7VsgJAiAAAiAQjQAErGjcUAoEQEBDwFbA8hfPIi4MYmBhyoJAdxKIImSpZVw8sILyRg2YndSI2QaAT6q9IgWPt2HSLg87Ww8smziSuhiUNv1PIg/EryQoog4QAAEQKD4BCFjFH2P0EAQyJeAkYJV6iI+t3zR+C40cGm/ZmcaDLASsTKcBGgOB3BBYc+3fWHOatTo15mvrbOT1iEo9tOPp+73feNsYpzABa/roBC1OXGzVJWX9la/MLtPk4RNtY3LPgY30uaPbMmv/ynSdvvCJ85m1186GWETqHdxAtz95nzcPeD5EST2VEpUGNlBzaYUaSytWVfB83XFkfyvv7LGzdOXFs61tj/KDKmCxzWoa/MROGnxop2cD25J1SuO+n3Uf0B4IgAAIgED6BCBgpc8YLYBAVxFwEbCyPMkIAlZXTUN0FgRaBPzXvslTRj2FUCqxOY1QJxZgKIpNwB/PMU5Pk4yfJdsedXMy7gmGcfqpKwsBKw2qqBMEQAAEikcAAlbxxhQ9AoG2ErAVsPhhvXegssbzqjZ5lWpTC3T5+TO0fGY20X7wAz0nfkjmr8vV8REqj1Rp070jVBntp8rYZmN7NtswjJUgAwiAQKYE/Nd+aaBC2w+Ne+sLrzNqUgUsXqc4sWeKrBtqGa6rPrvc+jOvMUjFJ+CfG/X5WmTPKyHVt3uItj6ymxaOT9HC8UkjQGnfn5Hvn3wf7UQBS+77SxPT1Kw1jP1HBhAAARAAge4kAAGrO8cdvQaB1AjYClhhX4BTM+5GxaoXhm3sDwhYaY8M6geB9hJQBawg7y3VQniOtHfM2tV6lNhqSdrq4kWl3rtcyiZps01dNqc92tSDPCAAAiAAAsUkAAGrmOOKXoFA2whEEbD4izF/cV56c4auvTmTuu2lapm2HNxFtanVdjfuHabq3mFju5efe8uYBxlAAATyS0C99lVLtzy8i0oby+s6wNd+llue80sQlgkBvtdxyuq+IO212n90tX1/uvyXb3n2JOGBxbG0dLG4vOvo4V2pTAYIWKlgRaUgAAIgUBgCELAKM5ToCAjkg0AUAWvxtfPe1j4kEAABEEiTgCkGlrQd5F0DASvNkUHdJgI2cdiSFLDChCTdtWDqg83vELBsKCEPCIAACHQvAQhY3Tv26DkIpELAJGBJPBqO38GngF04OuHFj7GJeeWPZRPHeDUOTv+BMeo/MKqtEuJaHNooCwLtISDrhbTO17G8eOvWHF6PeF0SsYDFdU7+smpvsIWwPeObVascl4rjU8ncyLpdaS8o5pXcQyWPxMBie70TNW8kmcfy7yAxTGJQLr4+TSvTSxQWi0oXDy4OG+EMASsORZQFARAAgeITgIBV/N1Z/MEAACAASURBVDFGD0EgUwImAcv/4Fy/dK11TL2NkUnFHHGNgYXYVzajgzwgkC8C6ks6X8cmzxF5eXYpCwErX+OetDWyHS9rYUXdBhjUL9d7aJiAJb+1az63i3PS8wX1gQAIgAAIpEsAAla6fFE7CHQdAY6N0VMt0/Dje6i6ZxudO3zC87Di4Miczj1x8iaTRnPN6V0mWPzyyYkf2uMkeYnlk44a89dp7qX3aO4779H2Q/u80wnVBAErDm2UBYFsCIwcGqdN47e0GpP1Qv5gI2B5pwk2mp7Q5U/eGlDq8bxauA1uSxJ7wTRr9dZal01v0UpWBNhjt6fSS7c/eR/1Dm5w+ugSx0ZpN7QOx3uo1OWf3+p8FgFr7Mh+Kg/1Zd7frDnHGSOUBQEQAAEQyJ4ABKzsmaNFEOgKAurX1KS8p5KAp3ph6OKG+F98k2gXdYAACKRHwOSxYiNg6azzi9i8lUvdnsjlsvbQSY8kag4ioJ5QWRRK6nwWAatd/W1Xu0UZT/QDBEAABIpOAAJW0UcY/QOBNhHQnYKUtZBlE4wZAlabJgmaBYEECMi2ZRvxSZdHJ36JcMXriLpdS20XAlYCg4kqrAkExbFS72Vx5mTaQpIIZ2KzdDyNdoOuX2vQyAgCIAACIJArAhCwcjUcMAYEikMAAlZxxhI9AYE8E4CAlefRgW1pEYCAZU8WApY9K+QEARAAgbwTgICV9xGCfSDQoQSwhbBDBw5mg0CHENBt5RPzk4xd538BVj1HogSfLrL3VphYEIVVh0zHUDPFqyjO3HTxJjYxC/MoVIO4p+01rbsWkmg3zqExJob4HQRAAARAoD0EIGC1hztaBYHCE4CAVfghRgdBoK0EIGC1Fb+2cQhY69FAwNLPVQhY+byOYRUIgAAI5JUABKy8jgzsAoGCEEgjnkVSaEzBa+N8LU/KRtQDAiBwk0DQtimVT5y4P1KX6v0R1wNLPTgiDZs7aZ4kIejkub+2Hnb++bz42nli7ycpq3pCtbu/YR5RSdqc5NyAB1a7Zw3aBwEQAIHkCUDASp4pagQBEPARyPoobhf4ELBcaCEvCLSPAAtAnPjlVk2NpRVqLq1QaWAD9VRKsU4D7B3qIyr1tNpZE8R9dpnOHT5B1T3baPjxPTT30ns09533vP/mv/Fv9dnllnliM/+hPNRHvBaus32+Rs1afV3Z9pG2b1lYcXB71yT3BSl37omTN6toNNdwdK07KH9poEI9ld7VehvNJKoMHGcey8Z8jbY8vIuGDu5q5Xn/qVepPnfdOwiAU9B8XpqYpgtHT9HgJ3bS4EM7vf/mv6mcpayfO897nv98HfD1kEaSa48FYjVJf8XmOO2rcyOoPdv6IWDZkkI+EAABEOgcAhCwOmesYCkIgEDCBCBgJQwU1YFASgTCPK/SOHlNuuEXsORvtp4yNt5iefOycRm+JL1r0xYa0oy9FeRFpXJUWdnMZ6lDV9Yf4013op/LeBYxb9rzqojM0CcQAAEQyDsBCFh5HyHYBwIgkBoBCFipoUXFIJAoAf+LaLPW8DxTJC0cn6KF45OUhEgxcmicegcqrbpZYOLkstWL1xVObI+a2ANo+cxs68+Xnz+z5t+JQkupsr7dQ55XUP8DY1Tq6/W2vcVNflaN5TotvDLpeUsxq8rYZqqM9nv/7fdwc2lz6yO7ie2+cHTC85BKIsk4s7eUpJXpJVp8fZpqUwtUm7zqtelnxV57urkhdYggqysr7XFdci1wXu6jXAum/ontnE/lLGX5GuP6OzGpY8P/Zo+1ON5cncgBNoMACIBAEQlAwCriqKJPIAACVgQgYFlhQiYQaDsBG0+KJAQsXUddBKww7xrx3mo70BgGpMmZzZJ4YbaebjG6EqtoUEwo0wmVNl55Oo/CsLhsrh0Jm89SVxKx5FztSip/kqySsgn1gAAIgAAIJEMAAlYyHFELCIBABxLgL/v9+8do4z3DVN077Hlx8FdzSVsfvcv7T/9WDV03+w+MUWV0M105dja1GCQdiBgmg0AiBDhItKTGtRW68uLZdfWmeQ36X/h5jeC1QtLCidV1g+MAlTaWSdYN+Z0FCUm1qbVlE4GTUSUb966uk5KSXOv841uqlj2WImBJu8I5o+4am/HbLJm9e8qBMVp6c4auvTGzjpWUUeeIvzFT2cvPrc4nrkt3LZiMdxGwgvoZtV2TXUn9DgErKZKoBwRAAATyRwACVv7GBBaBAAhkTCCJY7zT9krIGAmaAwEQ8BEI8pwRTxnJpp6eJn+3EcA7AXaSJ82p/Q3i2yneamFeVboYZzaeWGnGR3MRsIJszft2PAhYnbCiwEYQAAEQiEYAAlY0bigFAl1NwB+vpD5fo+mjEx3NQydgSRwNfpEyJYlX0slxQ0x9xO8g0K0EXAQsNSaUzfqRZ64SX4njULGHURxhRWJRqf31x2SS37IWsPikwu2HxtcNhcQpk/ho6vjaCFhqbDWbWFhxOJvmE/PmWG9sl7pVU8rKFsKg/knsLY5LxnxcknCOUta2HfXezX3Iu+hm2zfkAwEQAIFuJwABq9tnAPoPAhEI2MSjiVBt24roBKy2GYSGQQAEckXARcAqiseVDIAuVmCUARJPVZuyWQtYEntLtU2EJN2pizYCluqdF3S6pa5dG1ZR8uhijdkIWHFERrXdKLa7loGA5UoM+UEABEAgvwQgYOV3bGAZCOSWAD+AcuKH8iJ81eSYKz3VMm0/tI+q4yOrJ101mjixKLczEIZ1MwE+1W3Hkf20OHExM+/PbhSwhHNPpZfYa0aSyTOI7wu6VBrYQD2VUuvnsFPhmrV6YicG6uwRW9kOk4DFPKjU493z5P7H/3/uiZNUHuqjsSP7W81wjLZZjoc4f907yU/KSntSh78se+9eOHqqVYeUTe1aL/V4dgln+ZDDHtV8bcl9MEyg476xndzXoLh0gbYr7abWP1/FELCyoIw2QAAEQCAbAhCwsuGMVkCgkASK9lCoegcUzZOikJMQneo6Au3y4FBB62JgFWXdMAk6uolnE99JyrablT9Wkmt/w8qqc0P6q7Lh/rdjPgeNnS7Gmc146vqbl8WpaM8qeeEKO0AABECgHQQgYLWDOtoEARAAARAAARCIRMD0wq/b6hWpsRuFgoJeq/XFaTdO2Tj9CiurE3SSaE/iKyVRl0sdYYH2owpY3L7JE1kdXzXIuEsf0sqbZpD+ODYnwQoCVpwRQFkQAAEQyBcBCFj5Gg9YAwIgAAIgAAIgEEIAAlY20wMC1ipnm5MEIWClNychYKXHFjWDAAiAQCcSgIDViaMGm0EABIwEong0YAuhESsygEDbCZgELDEwye1aQR5YqsdKlDWn7TAthMIoNpoEnSh1RimjHtChq8O/lU/NowpYSQgqUfqSVRm5D4adQqjaksYWQpWzixdVEbY9ZjXeaAcEQAAEOo0ABKxOGzHYCwIgYEUgysskBCwrtMgEAm0lAAErG/xxPLAgYGUzRmm0AgErDaqoEwRAAARAICkCELCSIol6QAAEUifg8uU7ioCVegfQAAiAgBMBl2vepeJNH7mV+EVdTbrYTH7vD7WseOgUdc3RsXLhnYaHjkv7LnmjjK8q9nVSf1U2UQQsqcN0QqXLOMTxwHJpB3lBAARAAAQ6iwAErM4aL1gLAl1NwH/kuQkEH2nOR5uHHdNuqgO/gwAItJeAyzXvYml1fIS2H9q3rsj7T71K9bnrXlBufwoTsKaPTtDixEXacWQ/9Q71UbtP1nPhYJM3SQGrNFChnkpvq1mVs409oXlKPd4YuCbPjhtlq3u20fDje1pVXDh6ipYmpinsnsJt8vhLmj12lq68eNbVjFzkHzk0TpvGb6Fzh09QfXaZbLbjieFJCFje+JV6aMfT93vVyj2c1wK+Nvkabdbq1Jiv5YIXjAABEAABEMiWAASsbHmjNRAAARAAARAAgZwS0HlRhQlYalcgYK0fXPFISnubdtRtj/4YWIuvnfcCtyOtEshawArzZLTdPoyxAwEQAAEQKC4BCFjFHVv0DARAwECAv/T27R6i2tQC1Savev/t/3rPLzJIIAACxScg1/72Q+PEXkIiYMgawMJLY7lOC69MeuvE1kd2a6GoZTudntpfdZ206Z9JwGIvL05ha66uXX8ZHjseQ1nbbWzjPJ0kYAkrtrtZa3jeYWmmoK220p7KWTyw2MOxp1IKHU+dzWEClozvyvQSLb4+3bp3p9l/1A0CIAACIJAvAhCw8jUesAYEQCBDArI1xvRylaFJaAoEQKANBFTPIDHB703l6t1TNE8sYaJjFTZspjXWJtaZzRiJDa7bHjtJwPJ7RLU7WH6UeGGmy9smlpx67zbVid9B4P9v72x64zqyM1xsdotqkbSokSlg2IIXnNEsBgpMeJFVKGQRZJbyzvAyyA8QhPyAYIBsA4G/IvbOXhqYRSBlNQMMKEQrCxAQw+TMiKMRJVKiqCa7g3Pp07os3o+6319PbWyxb1Wdek7dqu73nnsKAhCAQHsIIGC1x5eMBAIQ8BG4+vm66V3um5dffe/9VY5Tl6L/lv8fjBbN0ubIHD15Yd49eWGW7ozMYG3ReHWH/dblsmGCQKDLBGQNmLw7CcxNZIsjIrj41wupK2uCrA2uxW7DtV7dr9N1Uu289uXZ2hpVXAUsZSZtjXffmMOHO7Nm7X71A/+a7vno7kUfeXVHi6EmioAVVvfw0Y4XoVt10T3Mz7sKAUvtmO2hd0YzNPaBBmnuAXvvDuJu791V+4b+IQABCECgPAIIWOWxpicIQKBEAvZTXJcn/GqeyxPgEodCVxCAQA4E/Hms7ObicjMlyQNkt93WSCwdpwsbVwHLzy5NLqqwHElxUWN+H4VFFeUwBTM1EcS5CgEryt+2gKUDbvs9kMmxVIYABCAAgUQEELAS4eJiCECgKQRUhNL8KJo3JOqLtOS1kTwrkudG8t2QA6sp3sZOCMQTkDUgLGdQkQKWfx05frpvXn79NN7YBlwhp9XNLw/M6+9+OGdtUM6kJAKWnC73fGvb9FeH5spnq+bw4a4XiaXrcxgaEU8k75LkX5LT84S1RF4t3Vnz8iVJ3qSw8tFvPjGnB2MjJ0raeZ2kHWmv6qLCkeZYE85lCFi2P/05uGwmCFhVzxL6hwAEINB+AghY7fcxI4RAJwmogGUPPkrA0h+xcmx37se7d9ILDBoCzSBQpIDlJ5AmqqiuBKNObLRtTiJgqSgTl6PQZW2X193klTsVVsJYRkXn1YW/HUVcls0uEXbKCAGrLrMFOyAAAQi0lwACVnt9y8gg0GkCVQtY0r8UEcPiikQyXNn42Px4/1EtnvTH2cvnEGgCgST3YFkClkSATQ7eX8DXxHs/TMCS1/jsMj06MZOjExPGWUUSWS/nP7pkfv7vf2/mBvPeiZBh4peLgCV5reaGfY+5sA8rns2Taa3X36oELPWn3k9BDF9988zsf/tsxtnef/WBUNB+KDmvVu6um+dbjws/UbEJ6xY2QgACEIBANAEELGYIBCDQSgJVC1hJcm4R+dXKKcigKiaQ5h5Uk+1IzSRRKGmG3cSozzS5AuMELP9pgMoxi4CVxhd1rVOVgKU8ou4B9ZFem2T/dY2Sq6tfsAsCEIAABMolgIBVLm96gwAESiLg8gU67hWVshLPxkV/lISMbiDQOQL649keOAJW+FTIQ3DP4/XDOJ+1bTJXncTd37+de8sWoVz2X/UPAlbbZirjgQAEIFAsAQSsYvnSOgQgUBEBly/QCFgVOYduIVATAghYyR2BgJWcWR41ELDyoEgbEIAABCDQdAIIWE33IPZDoMEEwo48z2NIUQKW9hvXT9kRWPoaUZJXn+LGwOcQgEA4gSIFrKD1Q0Vz2yL73tfPy1qDXOZIEyJlitxTXBiVcU1UJFQZ/UsfYXtoWBJ3v11hSfrT2N6EOZlmXNSBAAQgAIFwAghYzA4IQKAyAkX+2EDAqsytdAyBxhBAwHJ3VRPEgiL3FHdSxV6JgPWBbxPmZLGzgdYhAAEIdI8AAlb3fM6IIVBbAkV8GbVfuwhKEhwHpKgoiLDxEoEV5xE+h0A+BFwFLOnNNXJTLfOvG3HCSpjg7h/l2z/8xUiES1WliPXZHkvQa3Ikca/K4+H9ZonAslu1E8DXb7RYBAEIQAACdSKAgFUnb2BLpwk04RjvoOPR8zx6PI/jtOXYdTl+/XT/2DsWPVDAWlkwNx9shs63+ZUFY3qyPJ4VBKxO35oMvsUEbAFL1w15pc8usi4ErRu95UtmbtC7cH0SAWv0YNP0Zd35qQSttUfbe+b51uPZNZOD92Y6npTmHXt91nVSXgnLqyBg5UWy2HYyCViT6dn+/FPZ//aZefXNsw9z/6f9N895VSwNWocABCAAgTIJIGCVSZu+IBBBQL642yf71A1Y1UlkXXjYCYaDBKy4duxoCASsOGJ8DoFmErAFLM1FlWQ09imiWjeJgGX3F7TW2tdovqEktuZ5bdhJgln6QMDKQq+8ulkErLjvOUXMq/LI0BMEIAABCBRNAAGraMK0DwFHAvIj6PRgbPa2th1rFH/Zwq0VI0/Z5cm/POkP+nExORib51vb3hPV46f7xRsV08O1L24Zsfvwv3fM5PjUCFcp8vqNFP8rODI2uVaL2C/jsAUsraNtRJkw3Fj1ojGirtV+F35x1Sz88qp5+fXTc+x4hbDyaYQBHSGQRMCS+1rub7tc+WzV9FeHF/7++rsfZmtP3CuEdmVdt+TvYf3quqHrc9kuW723YeaXB0bH6e9f9guxS9e68e6hGe+8iTURASsWUS0ukEjnG/c2Ltjy9o975mTvyPtMrtHi3w9lX5b9WYs9N3ReVfm6bC0gYwQEIAABCAQSQMBiYkAAAqEE4qKZ/BWrzs9iD8Iliso+ESzuBCWXSCyXp8fab1juDwQsbkoIlEMgiYAVF3ViW+y/j5MKWP624nJvpYkay5NuVGRu3FoXxsz/d3Jg5emtYttKEo2olpADq1if0DoEIACBthFAwGqbRxkPBDIQGIwWzdLmyBw9eWHePXnhRS/JDxD7iHf5winl2pe/mvUmT9cPH354qnr4aMfpiXsGcwOrLt0ZmcHaopF8Lb1hf3aN2ix/mLw78XJu6Hgv/911M7x93YvOEiEu6gTDOHu9fi/3zcuvzhgFlbgfdQhYcZT5HAL5EFABS9Yuf4RQ0P0bJiTZdW3LpC1Zi67eXTfj3fPrpH2t2CPF37/WDRvxq2+fmcnRST5AUrSiNvur2mus7ilxzaeJwNK1PWrNdeEcZxufxxPQ/TfqSm8+f75+bm9O4rt4K7gCAhCAAATaTAABq83eZWwQSEjAFlbCBCyNRIrK01JVfpawJ8B+FHYODvt0rSwClgtyBCwXSlwDgeIJhN37QdGWcZFQtrUuEZt2na6L12kELDgXf59k7SHquwIRWFnpUh8CEIBAtwggYHXL34wWArOcUOcEnZ9yb9nCip0DSz6Xovks5N+SA0VyVmiRaITDh7tG88JIfizJk1V0kSe/S3fWvJxW3ulYIUWENc3Pope4Clgy7jzylCFgFT0baB8CZrbWBeXSkXVC8uUN1pa8SEw7+tJFwNK1zmZt593zfy559iR3VVix19g0ftT+m5hDyC90KCvNkeTyeprmZsqTs+ZVVF80kWuaeZSkju6/cfM66HMErCSkuRYCEIAABBCwmAMQ6BiBPPOVCDo7KsHOV1JWfhY7l02YW4N+mLoKWNJm3AlKLtMJAcuFEtdAIBuBqGimuPx3LgJWXA67IOvLyBXY5Cgu//5ks3IRsLLkGgubbXa/aSK+ss3k+td23X8RsOrvSyyEAAQgUHcCCFh19xD2QSAlAckxsXJ33TzfeuydBjV6sGn6Kwue4GQXFWXktKve8iUzPTpxz6nSmzsX8fTRP39iPvrNJ1470p6c6mcmUy+PVpHF9Qt00I8PyckxN+ybycF7Lzor7BXCvAUsyVsjrO2iPuKHUpEzhrbbTkDvI1nf7BImYHnRm705T6j2F1kTTl+/N3/67e9nf9a1TtdY/SDwIcH+sfnx/iMzHZ8WHpHaVgFLoqvmBvPm5oPNc3uOf50sQsDSftW/QfMp7b0k8+pk/9js3H+Utola1NM99Ma9TwNP6owykgisWrgQIyAAAQg0hgACVmNchaEQSEag7KgitS5MSCpajMkiYNlkyxKw4jxaNLO4/vkcAm0lECZghY1XRKG43HmRAtbf3hUu4tv9N3H9iIrA0vFFnTBbhIBV5D0QNK+K7K/otl1yUNo2IGAV7RXahwAEINAuAghY7fIno+kwgbhX+Ww0Rf+4ifsim3f/TRKwOjxNGToEakEgDwFLBxJ22IV/oK6vHmeJnop6PbwW0B2McBF0XAQs7aru4ojLeB2w1eaSuH0/yNC6+6g2cDEEAhCAAAQ8AghYTAQItIQAAtavzLUvz46gjyouwlnREVhxNvI5BCBQLAEErGL5pm3dRdBBwEpLt/h6CFjFM6YHCEAAAl0ngIDV9RnA+BtJwH5KH/Tahf0KYSMH6mC0/UM0rIqLcKV1EbAcwHMJBBpMIE8BK2zdSLLmpEHZxuTiLgKWzcq//7lGuqXh3cQ6upcVPRdtNlF7qH0tEVhNnFnYDAEIQKA6AghY1bGnZwikJoCA9QEdAlbqaURFCHSWAAJWPV2PgJWvXxCw8uVJaxCAAAQgUD0BBKzqfYAFEIglEPakvYlPnoPytKQ5Wt5+ZTIOYpIn0GFPj/1t6A9gnh7HkedzCNSPgKuAFbXGhkW52mucy9pTldBQhGfSiFBqR5q6QXuKtlf2+ly3faEu8yrJvl8Xm4u4N2gTAhCAAASyE0DAys6QFiBQOIEwAUu+6GlpylHcarMecS/2H23vGTmKXsvk4L2ZjiehXKVuf2XBjB5sfqhzdGKmRyehdf7vX37n7CdpV9pXG/XYdH8bdfuh4jw4LoQABIyrgBW1xl79fN2s3F331i5Zw7T468jfXNaeNv1ol7Gcvn5v/vTb35vp+NRMDsbOM07qJt3L6ihgvfrmmdn/9pmJ28ucwaS8UPcylzmYsovIarqHnrsnJlNzun9s3m7/1extbV+o72Lz3KBnesuXvD1/ErHvFzEm2oQABCAAgWoJIGBVy5/eIeBEoK25TsIG/+f/+IORqKywEvSDpYgn7VEngiFgOU1dLoJALQm4ClhlGd8mAUuYaYRsmujapMzrKGDpGOL2sqRjbdr1RZ2Myf7btJmAvRCAAATyI4CAlR9LWoJAIgLyBUxKlFCjDV774pZZuLUya1++FDe9iCgXVl5+/dQcP90P/Tyo7uHDXXP4cCdXLLaAJT6TyDCJthB/iF+K6DfXQdAYBCAwIyCRG8ON1dn9W5bQoP1K5EnQ2tY2Aau3PDA37m2Yk70j8/aPe2a8e2jGO29SzcTBaNEM1pY8bsLPLrof6J7q/1wfbMh6Pb+y4K3dUdG9qQz0VVJhRcYqY5axC4Oi+81qd9715R6TOW/v1fJ95/RgHBh5lcQG9t8ktLgWAhCAQLsIIGC1y5+MpkEEoqJ7GjSMVpsalCyfU65a7XIG13ICYbnzio6UiYtIapuApdMoj0gZ1xN1oyJzNYpZXqXTV8KLmOr2eMvqt4ixZGnTJY9klvapCwEIQAAC3SWAgNVd3zPyignol215Qizl5Vdn/6XUh4D8cPL7JirB8NKdkRmsLZpXkveEnBz1cSKWQMBHwBawjp68MO/+94U5fLSTOkLIBXBv2DdX767PLvX6ffLC6LqhH7RtH5DoqaXN0WzcNmd7jQ1iefn2dTO8fT3WRy4CluSmkvXZhbNrv36bdbzq3zYKWOKzybsTIyztovNZ8sPJnJ/Na77nuCwTXAMBCEAAAg4EELAcIHEJBIogkOakqiLsoE13AlECVht/qLiT4UoINIOALWAVkTsvikRXI3TiTmx0Oakxboa5CFjahkt/rpFfUXa1cV9w2QdtJi684/zL5xCAAAQgAAEhgIDFPIBARQTsfB0uubCiTNWcI5InRHJIUfIjoHk8Xn/3w4UcWNqL5lgp+hWV/EZFSxDoHgFbwNJcRXF59/IiJXmYZK1Y+MVVs/DLq97/y9/avm6UIWDJnjq/PDCr9za8fFniU5tzEgErLveWtiX7Q1heJ/Xv0j+OTG9h3rQhf6U/F6R9X9gHzujn+v2mDePPay2gHQhAAAIQSEcAASsdN2pBoHYE4nKs1M7gBhkUlK/MPsVMh9P2H6INchumQuACgapyYNmGqKDTlXWjDAFLWNr7oM05iYDlevtERSRpG23NceYqYBXB3dU/XAcBCEAAAu0igIDVLn8ymi4T6M15T/Kn41MzORg3moQ8Qb+y8fGFMYg4VEWRH0VS/Ml/wwQs75SsydSLqKBAAAL1ImALWJLHZ1/y1h28L/R0OpuC5AeaG/bNjXufeqcitl341vFe/9dfm+GvfzbD8eO//c+FtTXTjLH2Qe3XbjPPRO7e/jCZBp6QqP3K3mx6c+bmf/6D96e27g8SCT43mDc3H2x630eCuJ/sH5ud+48yuVnuGbl35N4NysWVqXEqQwACEIBArQkgYNXaPRgHgW4SCHsNoU55NMIELPVYnWzt5ixi1BC4SKDqHFi2RW3MkRQ17+y1vWvrZFdOHw47hVDmRh4n+eZxuiXrIwQgAAEINJMAAlYz/YbVEGglgTxf9yjrlY08bW6lUxkUBGpIgB/A1Tql6PU57gGDPXoXIa1oUaZajxTbe1CCfcmLlTUnVh6J9osdOa1DAAIQgEDeBBCw8iZKexCAQGoCeYpBRf9A0kHmaXNqcFSEAAQSEUDASoQr94uLXp8RsHJ3WaYGEbAy4aMyBCAAAQj4CCBgMR0gAIHKCdQlIbrL6zxhyfJd6lYOGgMg0HECHHbRjQmQp4AV9kq7knSJ3uoG9fhRBglZWkuisZKexkwEVjxzroAABCDQNgIIWG3zKOOBQAMJIGA10GmYDIEGl+o5IAAABOBJREFUEkDAaqDTUpiMgJUCWglVELBKgEwXEIAABFpOAAGr5Q5meBDIg0BRr3vU5Uj7NIx4BSkNNepAoDoC8uM5jwTS1Y2AnpMSCHvFO6gde25keT2cyKBwT4Xt+1ojzYmcREAnvTO4HgIQgEBzCSBgNdd3WA6B0giMHmya/sqC0SPPteMsR5HLl1hpU9rWMjk6MdOjE/N867E52t4rbXxpOlIBS47wlqO8JwfvzXQ8mTXlHa3uK1lYpbGPOhCAwHkCIsSf7B+bnfuPQNMRAlc/Xzcrd9dNb/mSmRv0Ikd9un9sfvTNDakn9Wf73f6xMZOpEYElrmi/TdjL4saS9+fzKwvmpm/fnxv2TW/Yn3Uj96fcp1HfM8SX4lMtN+59aoYbq55v2Gvz9hjtQQACEKgXAQSsevkDayBQawJ2+H+W3B9BrxK8/K/vzcuvvq81AzXOfkXFzt+RJ6tGAMFICEAAAjUlEJfHysVsxBEXSsmviYuSC/qeUZe0A8lHSw0IQAACEMhKAAErK0HqQ6BDBORHgL+kOQJbvnhK8bclT76Pn+6bw4e75vDhTiOILtxaMde+uGUGa0tmMFr0jgP3J6BFwGqEGzESAhDoAIEsApbsTbJHPd/aNpODcQdolTvEpTsjs3RnzcieKtFZdgn6ntFfHZorn61euBYfles7eoMABCBQBQEErCqo0ycEOkygqOO0q0IalusEAasqj9AvBCAAgfMEsghYaU7Hg39yAkl8JA+L0jxAS24VNSAAAQhAoG4EELDq5hHsgUBLCYjQI+Xal2f/lSI5rySH1Hj3TWMir2z3XL593QxvXzeHj3bMeOfN7GNbwJLXIyfvzsZLgQAEIACB8ghIlM9gbdHLaeXPtxRkgazj/khge20vz+pu9aQ+0lH7vyvYJBCwujU3GC0EIAABPwEELOYDBCBQCoGgyKs2nwjWtfGWMonoBAIQgEAGAnqiblQTiCMZAOdYNWgP1ebxUY6gaQoCEIBAwwggYDXMYZgLgaYRWL23YeaXB0ZzX6n9Ev4vp/bV/bTBpLzDxivttFmwS8qJ6yEAAQi4ENAcSS+/furlSsxSXASsNDkZe8sDc+Pehmef2EnJTiAoX6a2msZH2S2iBQhAAAIQqAMBBKw6eAEbINBiAmE/GLKcYFhnXFE/kBCw6uw5bIMABOpIICzPYBpbXQQsbTfJqbjzP7tspG0ig9J4JbpOVCRWEh/lbxktQgACEIBAFQQQsKqgTp8Q6AABiUS6svHx2alCPVlqzoocRS5FxJw2lsgfSJOpd5rV2+2/mr2t7TYOnzFBAAIQyJWA5KyaG/bN5OC9F7Wbpeh+JOt0XEkkjvTmvL1uOj7NfFKh5Olaubtunm89bl2EchzzoM9FHNTSX1kwowebs39LHs3p0Qms0oClDgQgAIGGEkDAaqjjMBsCdScQdqJQWyOv1B8uT/h5Sl/32Yt9EIBAmwlERfXouBMJWDnCyjPiLEezatGURrrZxnBSZC3cgxEQgAAESiGAgFUKZjqBQHcI6Jdve8RtF64QsLozxxkpBCDQbAJ1FrCaTbYc6yU/ljwkCytd+b5RDm16gQAEIFAvAghY9fIH1kCg8QQQsP7J+F95CHIoEViNn+YMAAIQaDABBKwGO88Y71AYBKxm+xDrIQABCKQl8P9A1X/8FTPuLgAAAABJRU5ErkJggg==;" vertex="1" parent="7">
                    <mxGeometry x="60" y="60" width="686.67" height="386.24" as="geometry"/>
                </mxCell>
            </root>
        </mxGraphModel>
    </diagram>
</mxfile>